<svg width="466" height="347" viewBox="0 0 466 347" fill="none" xmlns="http://www.w3.org/2000/svg">
<path d="M710.916 -125.411C738.418 -106.179 762.8 -85.7077 773.631 -53.691C784.591 -21.3984 779.682 10.6731 771.132 42.471C756.524 96.2024 727.113 140.563 684.941 176.65C669.21 190.125 652.496 202.129 633.201 210.152C631.777 210.603 630.46 211.337 629.329 212.31C628.197 213.283 627.275 214.475 626.618 215.814C590.438 288.82 530.83 329.691 451.063 342.461C409.435 349.185 368.152 347.108 328.064 333.859C283.565 319.146 245.955 293.934 218.053 255.651C214.847 251.268 211.509 248.981 206.115 248.462C170.528 245.094 136.102 236.979 105.53 217.921C56.64 187.472 31.7684 142.923 34.5528 85.2153C36.2724 48.6195 53.731 17.79 77.1901 -9.6201C84.5478 -18.1662 92.5533 -26.2184 100.985 -35.1362C87.9832 -47.5538 74.9165 -59.9422 63.5201 -73.9373C21.0126 -126.204 -2.46834 -185.549 0.247963 -253.212C2.85334 -317.959 29.858 -372.506 77.8653 -415.805C138.096 -470.188 210.426 -495.881 290.852 -493.048C357.585 -490.709 412.392 -460.716 452.181 -405.999C460.858 -393.973 467.128 -380.389 470.647 -365.993C471.064 -363.756 472.049 -361.663 473.506 -359.914C474.963 -358.165 476.845 -356.818 478.971 -356.001C486.035 -352.97 493.2 -350.193 500.037 -346.733C506.59 -343.437 512.74 -339.446 519.72 -335.386C534.638 -350.367 551.81 -362.928 570.615 -372.612C628.059 -402.149 705.423 -392.971 747.435 -350.114C776.11 -320.856 786.335 -284.681 782.557 -244.411C778.125 -197.157 753.093 -161.453 718.029 -131.552C715.711 -129.522 713.442 -127.584 710.916 -125.411ZM409.64 -88.219C454.999 -61.6134 462.717 -43.7381 446.777 -3.57604C500.19 -30.3302 547.904 -16.632 591.44 18.2115C636.313 54.1242 646.581 103.697 643.595 159.497C647.736 157.597 651.085 154.604 654.666 151.881C708.94 110.548 740.694 55.8817 749.254 -11.5108C752.463 -36.6847 745.38 -59.4973 723.8 -76.1277C712.608 -84.7654 701.462 -93.2181 688.961 -99.9066C681.646 -103.838 675.518 -104.986 667.774 -100.266C661.024 -96.1398 653.133 -93.8976 645.576 -91.3191C640.917 -89.9412 636.921 -86.9164 634.335 -82.8097C627.756 -72.2673 617.746 -64.306 605.984 -60.26C572.973 -48.7766 545.142 -59.2771 522.117 -82.8949C479.302 -126.921 470.456 -181.561 476.266 -239.962C478.571 -261.619 484.995 -282.636 495.194 -301.884C488.619 -306.26 482.534 -310.019 475.245 -312.562C473.717 -305.713 472.202 -299.444 470.916 -293.153C464.674 -262.295 451.289 -234.632 429.34 -212.357C416.827 -199.649 412.023 -188.307 416.47 -170.274C423.291 -142.891 418.832 -115.318 409.64 -88.219ZM205.624 -91.6499C187.427 -114.628 174.884 -139.429 169.009 -167.328C168.091 -171.709 165.725 -174.173 162.322 -176.562C144.75 -188.613 129.752 -204.034 118.202 -221.926C92.889 -261.815 80.0084 -303.923 98.841 -350.324C117.042 -395.133 159.801 -417.453 208.419 -410.291C241.969 -405.369 270.722 -390.181 296.293 -368.571C300.979 -364.615 305.06 -363.501 311.137 -365.26C327.964 -369.981 345.235 -372.956 362.676 -374.139C384.632 -375.836 406.715 -374.821 428.426 -371.116C428.425 -371.945 428.321 -372.77 428.113 -373.573C427.41 -374.943 426.632 -376.273 425.781 -377.557C394.401 -425.144 349.209 -450.868 293.257 -452.986C217.458 -455.849 150.388 -431.515 96.3222 -376.804C60.5708 -340.683 39.5626 -297.402 40.751 -245.808C42.4738 -171.058 78.7343 -113.33 133.33 -65.2651C136.194 -62.7489 138.619 -61.9896 142.245 -64.1935C161.906 -76.2095 183.104 -84.4628 205.638 -91.6468L205.624 -91.6499ZM550.529 -312.622C552.4 -310.75 553.691 -309.545 555.021 -308.317C597.83 -268.775 628.295 -221.334 643.001 -164.993C646.852 -150.236 656.388 -147.178 667.425 -143.203C668.732 -142.751 670.136 -142.651 671.494 -142.913C672.852 -143.174 674.117 -143.789 675.162 -144.693C709.709 -169.601 737.891 -199.101 744.467 -243.419C748.882 -273.213 742.166 -300.223 721.524 -322.756C703.594 -342.356 680.242 -351.043 654.288 -352.509C614.008 -354.77 580.238 -339.556 550.543 -312.619L550.529 -312.622ZM275.165 244.464C354.617 333.029 516.901 316.135 577.154 222.901C508.419 222.676 450.054 202.294 412.919 139.467C399.36 166.8 378.977 187.606 355.308 205.698C331.46 223.827 304.216 237.004 275.182 244.453L275.165 244.464ZM250.939 42.5945C212.951 33.5257 176.835 17.9106 144.213 -3.54864C139.723 -6.48573 137.325 -3.51319 134.676 -1.17879C118.019 13.3661 103.804 30.482 92.5692 49.519C77.6728 75.0697 73.1755 101.834 83.7078 129.767C102.973 180.634 145.337 200.605 195.395 211.959C178.116 143.693 198.22 88.5241 250.956 42.5837L250.939 42.5945ZM535.561 178.1C547.867 181.747 564.437 181.629 581.031 180.033C599.555 178.344 599.643 178.145 603.297 159.474C603.997 154.93 604.444 150.351 604.636 145.758C610.078 80.3186 571.555 34.8926 514.601 25.4351C490.456 21.4175 469.045 28.7939 452.944 47.0031C437.965 64.0364 439.333 84.3667 446.867 104.311C461.896 143.842 490.124 168.315 535.6 178.123L535.561 178.1ZM369.291 -207.021C350.332 -249.262 323.187 -284.99 290.612 -316.894C287.216 -320.227 284.349 -319.397 280.757 -317.476C267.624 -310.677 255.377 -302.294 244.289 -292.517C219.161 -269.714 199.829 -243.493 195.871 -208.43C195.077 -201.404 195.98 -196.763 203.459 -193.305C225.602 -183.245 249.441 -177.434 273.73 -176.177C309.248 -174.003 341.113 -183.356 369.35 -207.022L369.291 -207.021ZM243.705 143.711C238.383 165.285 241.886 185.785 249.339 206.09C251.768 212.715 254.835 214.127 261.547 212.524C307.7 201.658 343.477 175.613 370.664 137.566C379.884 124.776 384.841 109.412 384.833 93.6475C384.941 71.7257 375.434 56.4492 358.574 53.7511C345.516 51.3992 332.064 52.6674 319.683 57.4177C279.642 73.2998 255.34 102.982 243.764 143.709L243.705 143.711ZM257.953 -343.388C240.5 -355.911 222.403 -364.895 201.628 -368.67C163.401 -375.625 138.697 -353.091 130.486 -321.96C124.43 -298.992 130.17 -277.018 140.133 -256.008C146.493 -242.504 155.291 -230.286 166.085 -219.964C178.794 -275.312 212.337 -313.294 258.011 -343.39L257.953 -343.388ZM181.379 -32.7476C182.906 -31.4577 184.507 -30.2597 186.176 -29.16C225.078 -7.51674 266.295 6.81362 311.181 8.22422C342.648 9.21769 373.115 5.02544 399.903 -13.3906C407.152 -18.3807 416.061 -23.9468 414.712 -34.0418C413.474 -42.9334 403.972 -45.8822 396.898 -49.8468C392.458 -52.2923 388.34 -52.3231 383.859 -47.8506C371.171 -35.2106 355.237 -28.6647 337.472 -27.6353C306.918 -25.9221 279.633 -36.2572 253.611 -51.2732C250.885 -52.8417 248.648 -55.1599 244.449 -54.3064C222.732 -49.807 201.805 -43.2251 181.41 -32.7553L181.379 -32.7476ZM525.279 -278.816C505.329 -232.242 504.99 -185.952 523.865 -137.719C534.209 -151.42 546.812 -158.651 561.375 -162.709C575.938 -166.766 590.508 -165.365 605.311 -164.682C598.434 -196.85 552.017 -263.218 525.279 -278.816ZM381.589 -169.162C355.325 -151.269 327.207 -141.852 296.308 -140.754C265.218 -139.535 234.166 -144.068 204.72 -154.124C213.089 -135.056 222.401 -119.881 234.703 -106.353C239.398 -101.26 243.618 -99.2712 250.55 -100.418C261.389 -102.22 272.407 -103.066 283.377 -103.821C315.605 -106.236 348.015 -104.213 379.696 -97.8082C388.022 -121.346 387.114 -144.528 381.579 -169.12L381.589 -169.162ZM332.621 -334.345C359.128 -303.987 381.247 -270.073 398.335 -233.593C420.396 -259.045 434.873 -287.032 438.267 -320.285C438.907 -326.618 436.355 -328.963 430.796 -330.378C398.727 -338.724 365.237 -340.063 332.612 -334.304L332.621 -334.345ZM612.101 -128.532C588.047 -132.441 566.142 -128.465 553.956 -117.226C567 -111.857 579.525 -107.696 593.242 -109.919C611.025 -112.924 611.012 -112.999 612.107 -128.56L612.101 -128.532ZM346.259 -60.6901C333.953 -62.1106 321.643 -62.9933 309.331 -60.9224C321.611 -56.9027 333.922 -56.2234 346.251 -60.721L346.259 -60.6901Z" fill="#F8F8F8"/>
</svg>
