<svg width="291" height="286" viewBox="0 0 291 286" fill="none" xmlns="http://www.w3.org/2000/svg">
<path d="M292.077 174.463C297.141 187.292 300.856 199.838 297.316 213.275C293.758 226.834 284.817 236.723 274.69 245.692C257.524 260.812 237.409 269.363 214.799 272.185C206.362 273.243 197.921 273.572 189.497 271.952C188.907 271.784 188.29 271.738 187.682 271.815C187.075 271.892 186.489 272.092 185.961 272.403C157.044 289.245 127.38 289.757 97.1739 276.062C81.3971 268.936 67.7307 258.869 57.0027 245.24C45.0958 230.11 37.9248 212.94 37.0375 193.486C36.9318 191.257 36.3066 189.716 34.577 188.316C23.1533 179.096 13.2018 168.512 7.04765 155.047C-2.80024 133.525 -1.23144 112.609 12.7865 93.4457C21.6602 81.283 34.6181 74.6645 48.8566 70.5786C53.3109 69.3145 57.8752 68.3666 62.7813 67.2184C61.1403 60.0129 59.4706 52.8027 58.7364 45.42C56.0133 17.8602 61.408 -7.81611 77.6563 -30.409C93.2067 -52.0271 114.803 -64.6175 141.044 -68.5907C173.981 -73.5959 204.565 -66.019 231.465 -46.823C253.786 -30.899 265.764 -8.19197 267.001 19.5921C267.25 25.683 266.322 31.7632 264.267 37.4987C263.904 38.3604 263.767 39.3012 263.87 40.2314C263.973 41.1616 264.313 42.0501 264.856 42.8122C266.589 45.4525 268.413 48.0284 269.971 50.7646C271.469 53.3798 272.672 56.1424 274.143 59.1167C282.643 57.3584 291.366 56.9414 299.998 57.8806C326.356 60.7662 350.77 81.4449 355.453 105.665C358.649 122.198 353.96 136.923 343.55 149.88C331.334 165.084 314.679 171.658 295.903 173.969C294.65 174.14 293.434 174.29 292.077 174.463ZM180.491 118.952C190.001 138.356 188.597 146.236 174.046 156.4C198.393 159.326 211.63 174.836 218.65 196.653C225.886 219.139 218.179 238.47 204.524 256.933C206.372 257.219 208.197 256.952 210.039 256.829C237.982 254.95 261.231 243.395 279.419 222.219C286.218 214.311 288.957 204.881 285.332 194.287C283.455 188.788 281.552 183.363 278.785 178.236C277.17 175.23 275.332 173.448 271.612 173.312C268.366 173.198 265.156 172.179 261.985 171.351C260.078 170.768 258.025 170.9 256.209 171.723C251.57 173.848 246.34 174.31 241.396 173.033C227.492 169.491 220.339 159.583 217.802 146.265C213.108 121.462 222.448 100.716 237.659 82.0009C243.352 75.0945 250.31 69.3414 258.159 65.0505C256.899 62.0595 255.666 59.3914 253.746 56.8674C251.672 58.8704 249.734 60.6774 247.869 62.5437C238.746 71.7137 227.9 78.1691 215.341 80.8358C208.179 82.3592 203.967 85.1612 201.407 92.3542C197.543 103.292 189.774 111.739 180.491 118.952ZM111.407 71.545C110.378 59.5403 111.698 48.1911 116.002 37.2903C116.679 35.5795 116.427 34.1985 115.803 32.6081C112.513 24.4926 110.869 15.8046 110.965 7.05043C111.327 -12.3676 116.449 -29.7294 133.403 -41.3775C149.78 -52.623 169.475 -50.5894 184.502 -37.1162C194.876 -27.8257 201.283 -16.1007 205.147 -2.89396C205.856 -0.47533 207.001 0.831449 209.481 1.60517C216.312 3.79891 222.899 6.69196 229.139 10.2384C237.042 14.6314 244.374 19.9837 250.97 26.1739C251.157 25.8897 251.308 25.5828 251.419 25.2606C251.488 24.6314 251.523 23.9987 251.522 23.3656C251.55 -0.0677235 241.899 -19.1316 223.218 -32.5366C197.911 -50.6945 169.435 -57.5458 138.535 -51.0312C118.115 -46.7426 101.123 -36.6575 89.8496 -18.6915C73.5167 7.33839 72.8643 35.3558 80.6781 64.2134C81.0892 65.7255 81.7478 66.5354 83.4882 66.601C92.9411 66.9347 102.068 68.9073 111.411 71.5493L111.407 71.545ZM279.539 73.906C279.756 74.9722 279.925 75.678 280.102 76.4005C285.81 99.664 285.502 122.84 277.782 145.497C275.76 151.431 278.333 154.641 281.212 158.506C281.558 158.957 282.016 159.309 282.54 159.527C283.065 159.745 283.637 159.821 284.199 159.748C301.668 159.033 317.997 155.3 330.282 141.589C338.539 132.37 342.354 121.584 340.387 109.177C338.684 98.3914 332.655 90.1203 324.099 83.7362C310.818 73.8334 295.81 71.3997 279.543 73.9102L279.539 73.906ZM59.127 202.591C66.2834 250.973 125.679 281.951 167.419 263.625C143.933 247.973 128.561 227.756 130.068 197.792C119.237 204.094 107.548 206.612 95.3463 207.454C83.0758 208.269 70.7637 206.615 59.1353 202.591L59.127 202.591ZM96.5325 127.859C85.5775 116.141 76.7452 102.601 70.4327 87.8483C69.5601 85.8234 68.0661 86.2998 66.6306 86.5002C57.6339 87.7147 48.8911 90.3642 40.7343 94.3483C29.8489 99.7367 22.2497 107.898 19.5325 119.866C14.6136 141.678 24.5992 158.128 39.1702 173.366C48.7081 146.035 68.0818 131.667 96.5408 127.86L96.5325 127.859ZM163.319 238.833C166.707 242.872 172.407 246.587 178.451 249.8C185.177 253.418 185.252 253.369 190.73 247.793C191.998 246.393 193.188 244.924 194.294 243.392C210.972 222.179 208.065 197.869 190.703 181.719C183.344 174.87 174.343 172.548 164.707 175.146C155.721 177.594 151.588 184.877 149.652 193.425C145.849 210.39 149.975 225.181 163.327 238.85L163.319 238.833ZM193.57 69.0592C196.641 50.2745 195.435 31.8686 191.503 13.544C191.094 11.6311 189.925 11.2662 188.26 11.1111C182.224 10.4675 176.132 10.5674 170.122 11.4086C156.354 13.5361 143.799 18.1493 134.505 29.2793C132.643 31.5093 131.902 33.3057 133.68 36.1865C138.984 44.6548 145.832 52.0497 153.865 57.9848C165.535 66.7788 178.564 70.7915 193.591 69.072L193.57 69.0592ZM71.1637 160.904C64.4571 167.098 61.0155 174.923 58.9708 183.576C58.3026 186.399 59.0332 187.578 61.6946 188.55C79.9585 195.28 98.1063 194.454 116.029 187.565C122.082 185.267 127.258 181.12 130.824 175.711C135.824 168.216 136.027 160.822 130.864 156.076C126.925 152.31 122.032 149.697 116.717 148.521C99.4097 144.895 84.3686 149.57 71.1841 160.916L71.1637 160.904ZM186.317 -2.94413C183.176 -11.1943 179.013 -18.3767 172.754 -24.379C161.238 -35.4266 147.677 -33.2953 137.817 -24.4781C130.544 -17.9723 127.535 -9.13446 126.19 0.329649C125.311 6.40265 125.557 12.5873 126.917 18.5736C143.799 2.46896 163.884 -2.95833 186.338 -2.93133L186.317 -2.94413ZM89.77 86.2549C90.0006 87.0432 90.2779 87.817 90.6004 88.5724C99.0216 104.811 109.891 119.066 124.942 129.721C135.493 137.192 146.874 142.658 160.217 142.411C163.829 142.343 168.14 142.452 169.963 138.684C171.552 135.353 168.966 132.189 167.441 129.226C166.474 127.381 165.071 126.437 162.524 126.956C155.318 128.417 148.38 127.051 142.064 123.379C131.213 117.043 124.21 107.315 118.698 96.2682C118.12 95.1126 117.879 93.8103 116.248 93.1516C107.793 89.774 99.1365 87.2896 89.7823 86.2592L89.77 86.2549ZM263.239 79.7802C245.864 91.2344 235.268 107.035 230.812 127.856C237.456 125.501 243.409 125.876 249.314 127.784C255.219 129.693 259.891 133.475 264.806 137.063C269.733 124.471 268.864 91.1889 263.239 79.7802ZM189.211 84.8317C176.166 85.0177 164.406 81.8759 153.577 75.251C142.655 68.6242 133.048 60.0332 125.241 49.9113C123.79 58.3485 123.543 65.6633 124.693 73.0911C125.148 75.9017 126.143 77.5404 128.776 78.7179C132.896 80.5555 136.86 82.7622 140.787 84.9889C152.37 91.4634 163.01 99.5015 172.409 108.877C180.588 102.69 185.526 94.5331 189.198 84.8438L189.211 84.8317ZM209.839 17.0773C212.042 33.4967 211.939 50.1415 209.532 66.5264C222.848 62.7952 234.142 56.4762 242.832 45.8393C244.485 43.812 244.142 42.4293 242.558 40.6845C233.467 30.5549 222.302 22.5067 209.826 17.0895L209.839 17.0773ZM258.947 151.001C251.595 144.21 243.194 140.61 236.477 141.704C239.728 146.501 243.075 150.767 248.275 153.112C255.045 156.111 255.057 156.083 258.955 150.993L258.947 151.001ZM152.556 114.032C148.663 110.756 144.648 107.664 139.963 105.584C143.258 109.746 147.32 112.769 152.56 114.02L152.556 114.032Z" fill="#FBB506"/>
</svg>
