<svg width="459" height="352" viewBox="0 0 459 352" fill="none" xmlns="http://www.w3.org/2000/svg">
<path d="M-35.4921 119.646C-57.3577 127.342 -77.2886 139.691 -94.0244 155.912C-104.967 166.507 -106.833 180.789 -108.668 195.073C-109.448 201.158 -110.249 206.891 -115.048 211.054C-122.2 217.24 -132.044 215.292 -136.644 206.619C-138.447 203.51 -139.531 200.031 -139.809 196.463C-141.269 168.55 -134.64 144.263 -113.33 126.066C-83.2258 100.352 -48.9151 83.5985 -9.94343 76.8743C-6.08479 76.312 -2.50008 74.6123 0.384735 71.9775C29.9939 45.3028 65.351 29.5906 102.497 17.2012C130.261 7.95377 158.702 2.08208 188.141 1.0422C222.189 -0.159788 250.811 10.9979 270.506 42.195C280.906 58.6848 284.718 75.8491 278.357 94.5696C274.137 106.477 269.178 118.071 263.511 129.281C277.073 129.044 289.795 128.519 302.523 128.682C324.404 128.97 345.911 131.716 366.061 142.459C396.58 158.741 407.609 186.542 396.214 218.912C395.697 220.393 395.192 221.901 394.543 223.814C405.58 227.957 416.68 230.901 426.845 236.737C453.954 252.325 463.196 274.52 455.623 305.081C447.858 336.37 429.013 359.674 406.888 380.606C386.971 399.774 365.351 416.979 342.292 432.012C340.54 433.354 338.891 434.83 337.356 436.428C347.5 450.128 355.111 464.622 357.524 481.331C363.538 522.053 349.983 555.584 317.702 576.023C263.945 610.058 205.18 618.158 143.565 591.953C129.828 586.122 117.837 577.114 109.19 563.962C106.898 560.509 105.85 556.365 106.234 552.276C106.69 546.374 110.899 544.16 115.454 547.641C144.666 569.917 177.57 573.002 211.301 569.742C237.357 567.388 262.705 560.536 286.294 549.471C313.603 536.528 329.377 505.746 323.749 474.787C322.016 465.781 317.931 457.359 311.94 450.443C293.48 460.678 274.194 469.318 254.272 476.277C214.981 490.302 174.632 499.385 132.008 494.674C118.469 493.401 105.212 489.442 92.9674 483.015C70.6081 470.961 63.9084 448.704 76.2922 427.042C87.5548 407.329 105.157 395.218 125.625 388.148C170.295 372.702 215.982 372.173 262.12 386.139C275.521 390.114 288.359 396.045 300.238 403.749C303.201 405.685 305.691 406.712 308.932 404.55C340.807 383.293 372.215 361.379 399.336 333.782C411.993 320.879 423.229 306.795 427.934 288.299C431.128 275.584 428.193 268.124 417.192 261.337C406.62 254.818 395.101 251.496 383.246 249.038C380.758 248.521 378.671 248.405 376.842 250.581C354.377 276.674 325.958 294.221 296.046 309.911C256.965 330.424 215.704 343.665 171.592 347.925C158.702 349.167 145.735 349.151 132.975 345.411C123.49 342.62 115.089 337.894 109.658 328.854C101.569 315.36 105.691 303.51 113.793 292.548C126.312 275.784 143.19 264.432 161.379 255.45C218.552 227.243 280.073 217.863 343.617 218.045C348.678 218.066 352.221 217.052 354.825 212.789C355.303 212.155 355.826 211.56 356.392 211.01C374.293 189.429 371.276 174.434 341.25 162.373C325.302 155.967 308.43 156.083 291.72 156.445C277.504 156.765 263.352 158.11 249.22 159.536C247.542 159.644 245.923 160.141 244.481 160.992C243.04 161.843 241.813 163.025 240.894 164.451C214.877 200.498 180.325 226.621 144.659 251.341C120.195 268.299 95.2182 284.559 67.2291 295.029C44.1786 303.649 20.4068 309.769 -4.7142 303.157C-28.2644 296.897 -35.8365 277.881 -22.8304 257.275C-8.90646 235.151 10.4387 218.407 30.8643 203.02C60.1009 180.995 93.3825 167.654 128.156 157.342C155.344 149.271 182.641 141.724 210.622 136.724C213.824 136.156 215.686 134.191 217.502 131.885C227.787 118.972 236.97 105.327 246.128 91.5869C261.156 69.0229 255.795 54.3209 232.261 35.4681C218.245 24.1991 200.8 25.8659 184.589 27.8025C141.668 32.9053 101.939 47.8221 64.0286 67.8815C60.7709 69.6 57.3697 71.0494 54.173 72.8772C51.2327 74.5656 48.475 76.5819 45.6281 78.4559C45.5653 80.1947 46.7976 80.7958 48.0513 81.3129C77.9973 93.8589 87.1478 125.269 74.7003 154.663C61.9471 184.789 26.5749 208.212 -4.16028 206.545C-33.0751 204.974 -50.0267 183.617 -46.0281 154.233C-44.404 142.517 -39.7485 131.988 -35.4921 119.646ZM277.977 420.489C228.384 397.707 179.927 394.836 131.321 412.394C118.803 416.772 108.051 425.118 100.562 436.269C93.3139 447.183 95.2702 452.582 107.759 456.527C120.247 460.472 132.831 460.532 145.507 459.966C172.582 458.837 198.595 452.453 223.962 444.047C242.002 438.117 260.226 431.913 277.977 420.489ZM129.031 312.173C151.53 323.041 269.422 280.675 314.497 246.374C312.384 246.298 310.848 246.096 309.347 246.211C276.036 248.639 243.124 254.311 211.047 263.152C187.46 269.703 164.521 278.216 144.515 293.004C137.936 297.775 131.971 303.276 129.02 312.148L129.031 312.173ZM173.775 175.48C109.766 189.734 49.7326 211.395 7.3365 265.927C70.9037 250.84 123.264 214.876 173.764 175.454L173.775 175.48ZM50.8135 117.368C45.1047 103.97 18.1737 99.1058 9.61953 109.479C-1.70672 123.317 -10.4587 138.851 -15.1759 156.646C-18.7868 170.2 -14.3904 175.7 -0.591212 174.806C21.5428 173.365 44.6891 154.325 50.8153 132.461C52.2768 127.167 53.321 121.871 50.8026 117.342L50.8135 117.368Z" fill="#F8F8F8"/>
</svg>
