<svg xmlns="http://www.w3.org/2000/svg" width="46" height="46" viewBox="0 0 46 46" fill="none">
    <ellipse cx="23" cy="23" rx="23" ry="23" fill="black"/>
    <mask id="mask0_582_2693" style="mask-type:alpha" maskUnits="userSpaceOnUse" x="0" y="0" width="46" height="46">
        <circle cx="23" cy="23" r="23" fill="black"/>
    </mask>
    <g mask="url(#mask0_582_2693)">
        <path fill-rule="evenodd" clip-rule="evenodd" d="M0 8.0498L16.0567 10.5587C18.0555 9.29309 20.4333 8.59897 22.9993 8.59897C26.5535 8.59897 29.7481 9.93006 32.073 12.2661C32.3657 12.5616 32.6417 12.8696 32.9023 13.1902L46 15.2363V17.0552L34.232 15.2154C35.1128 16.8991 35.5742 18.7706 35.5771 20.6708C35.5771 23.135 35.0265 25.5923 33.8864 28.0594L33.8529 28.1346L33.3679 29.1716H32.2249C29.861 29.1716 28.2944 29.8783 27.2686 31.1313C26.4643 32.114 25.9988 33.4409 25.8427 34.8877L25.8371 34.9323L25.8148 35.1636L25.805 35.264L25.7855 35.4605C25.7256 36.1073 25.6866 36.655 25.6657 37.101L46 33.9232V35.7421L0 42.93V41.111L20.3566 37.9304L20.3483 37.522L20.3455 37.4077L20.3427 37.3477L20.3399 37.2572C20.3218 36.7623 20.2758 36.1282 20.2033 35.3588L20.1894 35.2124L20.1643 34.9601C20.0193 33.505 19.5608 32.1628 18.7565 31.1648C17.7432 29.9034 16.1919 29.1856 13.8461 29.1716H12.6307L12.1471 28.1346C10.9846 25.6425 10.4215 23.1601 10.4215 20.6708C10.4215 17.5403 11.6913 14.5129 13.927 12.2661L14.1221 12.0751L0 9.86734V8.0498Z" fill="white"/>
        <path fill-rule="evenodd" clip-rule="evenodd" d="M22.9993 10.396C29.422 10.396 33.7805 15.3385 33.7805 20.6712C33.7805 22.8121 33.3135 25.0394 32.2236 27.3754C25.9054 27.3754 24.3458 31.8997 24.0503 34.7487L24.0308 34.9369C23.9318 35.9543 23.8733 36.7697 23.8579 37.383L22.1463 37.6506V37.5949C22.1225 36.6891 22.0611 35.7846 21.9623 34.8839L21.9582 34.8337C21.685 31.9917 20.1587 27.3754 13.7765 27.3754C12.6851 25.0394 12.2182 22.8121 12.2182 20.6712C12.2182 15.3385 16.578 10.396 22.9993 10.396Z" fill="black"/>
    </g>
</svg>