<svg width="40" height="40" viewBox="0 0 40 40" fill="none" xmlns="http://www.w3.org/2000/svg">
<circle cx="20" cy="20" r="20" fill="#FFCC00"/>
<path d="M22.1206 10.3249C21.455 10.1149 20.7419 10 20.005 10C17.8537 10 15.9282 10.9707 14.6406 12.4999L17.9488 15.2812L22.1206 10.3249Z" fill="black"/>
<path d="M14.6402 12.4994C13.5796 13.7591 12.9986 15.3533 13 17.0001C13 18.3154 13.2615 19.3851 13.6933 20.3399L17.9484 15.2806L14.6402 12.4994Z" fill="black"/>
<path d="M20.0044 14.3178C20.5151 14.3183 21.015 14.4647 21.4453 14.7397C21.8756 15.0148 22.2184 15.4071 22.4332 15.8705C22.648 16.3338 22.7259 16.8489 22.6578 17.355C22.5897 17.8612 22.3784 18.3373 22.0487 18.7274L26.2166 13.7711C25.3611 12.1228 23.8862 10.8816 22.1161 10.3203L17.9521 15.2766C18.203 14.9761 18.5169 14.7345 18.8716 14.5688C19.2262 14.4031 19.613 14.3174 20.0044 14.3178Z" fill="black"/>
<path d="M20.0046 19.6741C18.5268 19.6741 17.3264 18.4737 17.3264 16.9959C17.3247 16.3667 17.5465 15.7573 17.9524 15.2765L13.6934 20.3358C14.4223 21.9483 15.6307 23.2438 16.8747 24.8761L22.049 18.7273C21.7976 19.0243 21.4844 19.2629 21.1313 19.4264C20.7783 19.5899 20.3937 19.6745 20.0046 19.6741Z" fill="black"/>
<path d="M21.9403 26.5534C24.2778 22.9005 26.9996 21.2405 26.9996 16.9934C26.9996 15.8286 26.7143 14.7311 26.2112 13.7645L16.873 24.8775C17.2692 25.3965 17.6694 25.9472 18.0576 26.5573C19.476 28.7522 19.0838 30.0676 19.999 30.0676C20.9142 30.0676 20.5219 28.7483 21.9403 26.5534Z" fill="black"/>
</svg>
