<svg xmlns="http://www.w3.org/2000/svg" width="40" height="40" viewBox="0 0 40 40" fill="none">
    <path fill-rule="evenodd" clip-rule="evenodd" d="M23.8006 18.0197L16.3563 22.3776C16.071 22.545 15.9367 22.8725 16.0287 23.1791L16.8336 25.8672C16.8909 26.0576 17.1816 26.0382 17.2095 25.8414L17.4186 24.3673C17.4582 24.0898 17.5974 23.8339 17.8134 23.6429L23.957 18.2149C24.072 18.1136 23.9343 17.9417 23.8006 18.0197Z" fill="black"/>
    <path fill-rule="evenodd" clip-rule="evenodd" d="M20 40C31.0457 40 40 31.0457 40 20C40 8.9543 31.0457 0 20 0C8.9543 0 0 8.9543 0 20C0 31.0457 8.9543 40 20 40ZM23.7186 27.7895L19.5849 24.7386C18.6133 25.6842 17.7432 26.5304 17.5953 26.6725L17.5564 26.7093C17.3401 26.9143 17.1584 27.0865 16.7678 27.0865C16.3512 27.0865 16.3153 26.9622 16.2304 26.6688L16.2304 26.6687C16.2058 26.5834 16.177 26.4838 16.1335 26.3688L14.7322 21.7435L10.6445 20.4627C9.76196 20.2 9.74806 19.5926 10.8377 19.151L26.7803 12.9946C27.5112 12.6635 28.2146 13.1603 27.9387 14.2782L25.2218 27.0857C25.0293 27.9965 24.4771 28.2035 23.7186 27.7895Z" fill="black"/>
</svg>