<svg xmlns="http://www.w3.org/2000/svg" width="40" height="40" viewBox="0 0 40 40" fill="none">
    <path fill-rule="evenodd" clip-rule="evenodd" d="M20 40C31.0457 40 40 31.0457 40 20C40 8.9543 31.0457 0 20 0C8.9543 0 0 8.9543 0 20C0 31.0457 8.9543 40 20 40ZM29.7152 14.0007C30.4705 14.0007 30.6322 14.3876 30.4705 14.9402L30.4711 14.9393C30.201 16.2743 27.769 19.8821 27.207 20.7158C27.133 20.8255 27.0914 20.8871 27.0914 20.8893C26.8218 21.313 26.7138 21.534 27.0914 22.0315C27.22 22.2292 27.5128 22.5229 27.8475 22.8588C28.168 23.1804 28.527 23.5405 28.8171 23.892C29.8952 25.1449 30.7041 26.195 30.9378 26.9135C31.1536 27.6315 30.794 28 30.075 28H27.5583C26.8902 28 26.549 27.6108 25.8166 26.7754C25.5041 26.4189 25.1204 25.9812 24.6097 25.4578C23.1181 23.9841 22.4891 23.8 22.1114 23.8C21.5901 23.8 21.4463 23.9474 21.4463 24.6841V27.0051C21.4463 27.6315 21.2485 28 19.6487 28C16.9882 28 14.0581 26.3421 11.9727 23.2841C8.84477 18.8079 8 15.4185 8 14.7369C8 14.3501 8.1438 14 8.86278 14H11.3785C12.026 14 12.2597 14.2947 12.5114 14.9764C13.7344 18.6613 15.8196 21.8658 16.6646 21.8673C16.9882 21.8673 17.132 21.7199 17.132 20.8909V17.0954C17.0656 16.0313 16.7005 15.5655 16.4289 15.219C16.2587 15.0018 16.1252 14.8316 16.1252 14.5903C16.1252 14.3133 16.377 14.0007 16.7725 14.0007H20.7272C21.2665 14.0007 21.4463 14.2771 21.4463 14.9402V20.0619C21.4463 20.6145 21.68 20.7986 21.8418 20.7986C22.1653 20.7986 22.417 20.6145 23.0102 20.0066C24.8258 17.9428 26.1021 14.7377 26.1021 14.7377C26.2639 14.3508 26.5515 14.0007 27.1988 14.0007H29.7152Z" fill="black"/>
</svg>