<svg width="40" height="40" viewBox="0 0 40 40" fill="none" xmlns="http://www.w3.org/2000/svg">
<circle cx="20" cy="20" r="20" fill="black"/>
<path d="M24.173 21.2977C24.1391 21.2814 22.8713 20.6571 22.646 20.576C22.554 20.543 22.4555 20.5107 22.3507 20.5107C22.1794 20.5107 22.0356 20.596 21.9236 20.7636C21.797 20.9519 21.4136 21.4 21.2951 21.5339C21.2796 21.5516 21.2585 21.5727 21.2459 21.5727C21.2345 21.5727 21.0383 21.4919 20.9789 21.4661C19.6188 20.8753 18.5865 19.4546 18.4449 19.215C18.4247 19.1806 18.4238 19.1649 18.4237 19.1649C18.4286 19.1467 18.4744 19.1008 18.498 19.0772C18.567 19.0088 18.6418 18.9188 18.7142 18.8317C18.7485 18.7904 18.7828 18.7491 18.8165 18.7101C18.9216 18.5879 18.9683 18.493 19.0225 18.3832L19.0509 18.3261C19.1833 18.0631 19.0702 17.8412 19.0337 17.7695C19.0037 17.7096 18.4684 16.4175 18.4115 16.2818C18.2746 15.9542 18.0937 15.8017 17.8424 15.8017C17.8191 15.8017 17.8424 15.8017 17.7446 15.8058C17.6255 15.8109 16.977 15.8963 16.6903 16.077C16.3862 16.2687 15.8718 16.8798 15.8718 17.9544C15.8718 18.9216 16.4856 19.8348 16.7491 20.1821C16.7557 20.1909 16.7677 20.2087 16.7852 20.2342C17.7944 21.7081 19.0525 22.8003 20.3278 23.3098C21.5557 23.8003 22.1371 23.857 22.4676 23.857H22.4677C22.6066 23.857 22.7178 23.8461 22.8159 23.8364L22.8781 23.8305C23.3023 23.7929 24.2344 23.3099 24.4464 22.7207C24.6134 22.2566 24.6575 21.7495 24.5464 21.5655C24.4702 21.4404 24.3391 21.3774 24.173 21.2977Z" fill="white"/>
<path d="M20.1543 11.3044C15.4442 11.3044 11.6123 15.1075 11.6123 19.7822C11.6123 21.2942 12.0169 22.7742 12.7834 24.0696L11.3163 28.3973C11.2889 28.478 11.3093 28.5672 11.369 28.628C11.412 28.672 11.4705 28.6957 11.5302 28.6957C11.553 28.6957 11.5761 28.6923 11.5985 28.6851L16.1113 27.2511C17.3461 27.9109 18.7419 28.2592 20.1544 28.2592C24.864 28.2592 28.6956 24.4565 28.6956 19.7822C28.6956 15.1075 24.864 11.3044 20.1543 11.3044ZM20.1543 26.4932C18.8252 26.4932 17.5378 26.1094 16.4312 25.3833C16.394 25.3588 16.3508 25.3463 16.3074 25.3463C16.2844 25.3463 16.2613 25.3498 16.2389 25.3569L13.9783 26.0755L14.7081 23.9225C14.7317 23.8528 14.7199 23.776 14.6764 23.7166C13.8337 22.5651 13.3883 21.2047 13.3883 19.7822C13.3883 16.0813 16.4235 13.0704 20.1543 13.0704C23.8846 13.0704 26.9195 16.0813 26.9195 19.7822C26.9196 23.4827 23.8847 26.4932 20.1543 26.4932Z" fill="white"/>
</svg>
