<svg xmlns="http://www.w3.org/2000/svg" width="40" height="40" viewBox="0 0 40 40" fill="none">
    <circle cx="20" cy="20" r="20" fill="black"/>
    <path fill-rule="evenodd" clip-rule="evenodd" d="M26.6375 16.8187C26.6375 16.9064 26.6355 16.9941 26.6326 17.0837C26.6287 17.1831 26.6229 17.2805 26.6151 17.3779C26.391 20.1989 24.5266 23.0959 22.8618 25.8623L19.8187 30.5342V23.6375C16.0528 23.6375 13 20.5846 13 16.8187C13 13.0528 16.0528 10 19.8187 10C23.5846 10 26.6375 13.0528 26.6375 16.8187Z" fill="white"/>
    <path d="M19.8188 19.7414C21.4328 19.7414 22.7411 18.4331 22.7411 16.8191C22.7411 15.2052 21.4328 13.8968 19.8188 13.8968C18.2049 13.8968 16.8965 15.2052 16.8965 16.8191C16.8965 18.4331 18.2049 19.7414 19.8188 19.7414Z" fill="black"/>
</svg>