<svg width="196" height="414" viewBox="0 0 196 414" fill="none" xmlns="http://www.w3.org/2000/svg">
<g clip-path="url(#clip0_176_17248)">
<path d="M-93.607 37.7935C-87.2337 38.6554 -81.3084 41.551 -76.7093 46.0514C-53.321 67.801 -30.9001 90.5621 -7.99198 112.797C28.2231 147.936 63.9628 183.533 97.6252 221.157C109.352 234.272 120.363 248.002 130.953 262.043C132.995 264.496 134.586 267.292 135.652 270.302C136.686 273.758 136.456 277.153 133.496 279.539C132.238 280.536 130.714 281.138 129.115 281.269C127.517 281.401 125.916 281.056 124.513 280.277C116.282 276.266 108.805 270.86 102.413 264.298C78.0483 240.238 55.6034 214.407 31.9674 189.734C-7.01481 148.967 -46.0869 108.256 -85.2488 67.5997C-91.3381 61.2443 -97.3556 54.8019 -99.0494 45.6268C-100.294 38.7003 -98.5996 36.9201 -93.607 37.7935Z" fill="#161616"/>
<path d="M-119.972 81.2504C-113.538 83.6572 -107.643 87.3145 -102.626 92.0121C-75.646 116.352 -51.9032 143.698 -27.2194 170.268C2.94162 202.634 33.7949 234.354 64.2766 266.42C75.8628 278.622 86.8998 291.326 97.3877 304.531C99.5651 307.102 101.376 309.964 102.767 313.035C104.027 316.09 104.006 319.009 101.468 321.326C99.1448 323.381 96.37 323.287 93.6094 321.875C87.5186 318.624 81.9865 314.419 77.2218 309.419C22.7397 254.631 -31.5899 199.615 -82.5135 141.438C-92.3519 130.194 -102.822 119.495 -112.915 108.491C-118.637 102.227 -123.604 95.4408 -125.363 86.893C-126.328 82.129 -124.746 80.4287 -119.972 81.2504Z" fill="#161616"/>
<path d="M56.0279 353.538C52.5053 352.932 50.1342 350.41 47.709 348.119C28.0868 329.43 10.5647 308.747 -8.39034 289.392C-49.1166 247.7 -88.4764 204.655 -128.995 162.828C-134.841 156.785 -140.529 150.569 -146.132 144.269C-150.601 139.44 -153.621 133.446 -154.844 126.975C-155.646 122.58 -154.072 121.006 -149.796 122.338C-143.067 124.404 -137.608 128.494 -132.657 133.476C-99.4012 167.041 -66.0788 200.548 -33.2663 234.549C-11.0808 257.524 12.4526 279.171 33.821 302.943C43.1911 313.368 52.5241 323.844 60.4713 335.457C62.4082 337.982 63.8376 340.859 64.6803 343.93C66.0783 350.131 61.905 354.706 56.0279 353.538Z" fill="#161616"/>
<path d="M22.5616 378.247C18.1541 376.569 14.0851 374.11 10.55 370.986C-3.64946 358.821 -16.3851 345.149 -29.3633 331.733C-68.2272 291.568 -104.368 248.92 -142.607 208.167C-149.196 201.46 -154.156 193.323 -157.103 184.386C-157.729 182.348 -158.995 179.988 -156.939 178.085C-154.883 176.183 -153.054 177.902 -151.196 178.548C-144.857 180.821 -139.121 184.512 -134.422 189.34C-94.1818 229.656 -52.9861 269.03 -15.5708 312.096C-1.7228 328.032 13.4006 342.896 25.3089 360.47C27.5866 363.7 29.6295 367.06 30.0524 371.107C30.224 372.115 30.1453 373.15 29.8232 374.121C29.5011 375.092 28.9454 375.969 28.2053 376.674C27.4652 377.38 26.5634 377.892 25.5791 378.166C24.5949 378.441 23.5587 378.468 22.5616 378.247Z" fill="#161616"/>
<path d="M-32.1254 22.1069C-25.2476 24.8324 -18.9146 28.7724 -13.4281 33.7398C5.561 50.6737 22.6895 69.4444 40.026 87.9955C64.649 114.343 89.0807 140.87 113.321 167.577C124.128 179.76 134.116 192.648 143.22 206.156C145.206 208.877 146.601 211.983 147.318 215.277C148.308 220.386 145.269 223.311 140.242 222.063C136.168 221.035 132.911 218.474 129.67 215.986C116.799 205.895 106.475 193.276 95.532 181.289C56.8632 138.92 18.2738 96.4753 -20.2365 53.954C-27.1795 46.3023 -33.5119 38.2304 -37.2498 28.4198C-37.9692 26.5079 -38.7131 24.4925 -37.1141 22.6106C-35.8734 21.1638 -34.3384 21.7118 -32.1254 22.1069Z" fill="#161616"/>
<path d="M34.6994 28.9665C40.756 31.294 46.283 34.8174 50.9519 39.3273C65.2316 53.5775 79.0771 68.2922 93.3664 82.4873C115.454 104.552 137.176 126.923 157.037 151.06C162.844 157.923 168.004 165.31 172.451 173.126C174.547 176.921 176.101 180.978 172.218 184.439C168.034 188.09 164.017 185.582 160.714 182.714C150.504 173.673 140.858 164.014 131.83 153.789C106.096 125.42 78.5527 98.7552 53.3075 69.9311C44.0623 59.3572 34.8353 48.758 30.4168 34.9987C28.8632 29.9489 29.9218 28.2437 34.6994 28.9665Z" fill="#161616"/>
<path d="M181.451 119.515C180.586 125.695 173.899 128.078 168.514 123.802C161.331 118.124 155.072 111.356 148.862 104.711C139.442 94.7452 131.184 83.944 126.227 71.0142C125.575 69.2843 123.773 67.2428 125.872 65.4186C127.971 63.5945 129.96 65.1288 131.967 66.1412C145.963 73.1478 156.508 84.1582 166.337 95.9537C170.749 101.268 174.912 106.796 179.101 112.341C179.957 113.315 180.607 114.453 181.011 115.686C181.415 116.919 181.565 118.222 181.451 119.515Z" fill="#161616"/>
</g>
<defs>
<clipPath id="clip0_176_17248">
<rect width="361.928" height="334.333" fill="white" transform="translate(195.873 56.7041) rotate(99.7647)"/>
</clipPath>
</defs>
</svg>
