<svg width="395" height="555" viewBox="0 0 395 555" fill="none" xmlns="http://www.w3.org/2000/svg">
<path d="M453.933 382.245C461.73 402.243 467.428 421.792 461.816 442.673C456.173 463.746 442.169 479.068 426.324 492.951C399.465 516.353 368.06 529.512 332.807 533.739C319.652 535.324 306.496 535.776 293.382 533.193C292.464 532.928 291.503 532.851 290.555 532.967C289.607 533.083 288.693 533.39 287.868 533.869C242.687 559.866 196.458 560.448 149.489 538.92C124.957 527.717 103.734 511.954 87.1154 490.67C68.6708 467.042 57.6209 440.273 56.3789 409.997C56.2304 406.527 55.2673 404.125 52.5823 401.933C34.848 387.506 19.4176 370.964 9.92526 349.969C-5.26454 316.409 -2.66864 283.875 19.3135 254.159C33.2291 235.298 53.4686 225.094 75.6854 218.839C82.6353 216.905 89.7545 215.463 97.4078 213.712C94.9029 202.488 92.3531 191.257 91.2626 179.765C87.2187 136.862 95.8107 96.9491 121.293 61.9126C145.681 28.3876 179.424 8.95362 220.344 2.96155C271.704 -4.58796 319.307 7.42326 361.084 37.4869C395.752 62.4262 414.251 97.8449 415.979 141.086C416.322 150.565 414.832 160.019 411.589 168.928C411.017 170.266 410.797 171.729 410.951 173.177C411.105 174.626 411.627 176.011 412.468 177.2C415.149 181.321 417.973 185.342 420.381 189.611C422.696 193.691 424.55 197.999 426.821 202.637C440.079 199.963 453.675 199.377 467.119 200.901C508.17 205.582 546.063 237.935 553.186 275.654C558.046 301.404 550.634 324.281 534.318 344.366C515.173 367.935 489.173 378.044 459.899 381.503C457.944 381.76 456.048 381.986 453.933 382.245ZM280.456 295.061C295.133 325.323 292.888 337.574 270.141 353.283C308.059 358.013 328.574 382.243 339.355 416.24C350.467 451.281 338.318 481.303 316.906 509.932C319.784 510.392 322.629 509.988 325.501 509.811C369.056 507.09 405.368 489.278 433.863 456.46C444.514 444.206 448.85 429.553 443.279 413.042C440.394 404.472 437.467 396.017 433.193 388.02C430.699 383.331 427.847 380.544 422.051 380.306C416.994 380.104 412 378.496 407.064 377.185C404.096 376.263 400.896 376.454 398.061 377.721C390.816 380.994 382.663 381.676 374.969 379.652C353.329 374.041 342.255 358.572 338.397 337.831C331.262 299.204 345.967 266.99 369.805 237.98C378.725 227.275 389.609 218.374 401.872 211.754C399.93 207.091 398.028 202.931 395.053 198.99C391.808 202.091 388.775 204.889 385.855 207.779C371.573 221.981 354.625 231.948 335.036 236.006C323.865 238.324 317.28 242.654 313.239 253.827C307.14 270.819 294.973 283.906 280.456 295.061ZM173.148 220.796C171.631 202.11 173.769 184.46 180.555 167.53C181.624 164.873 181.24 162.722 180.279 160.243C175.212 147.591 172.712 134.061 172.925 120.44C173.63 90.2287 181.737 63.251 208.239 45.2496C233.84 27.8703 264.515 31.1773 287.833 52.2504C303.932 66.7814 313.831 85.0719 319.757 105.649C320.844 109.418 322.619 111.459 326.477 112.681C337.105 116.144 347.35 120.694 357.048 126.257C369.33 133.15 380.717 141.531 390.95 151.211C391.244 150.77 391.481 150.293 391.656 149.793C391.769 148.814 391.827 147.83 391.831 146.845C392.044 110.383 377.142 80.6501 348.131 59.6566C308.826 31.2198 264.504 20.3528 216.307 30.2657C184.457 36.7908 157.905 52.3599 140.209 80.2332C114.57 120.617 113.35 164.207 125.317 209.166C125.947 211.522 126.967 212.787 129.679 212.901C144.406 213.489 158.615 216.624 173.154 220.803L173.148 220.796ZM435.123 225.688C435.453 227.349 435.712 228.448 435.983 229.574C444.708 265.813 444.06 301.872 431.867 337.071C428.673 346.29 432.659 351.303 437.118 357.336C437.653 358.041 438.365 358.593 439.18 358.936C439.995 359.279 440.887 359.401 441.764 359.291C468.99 358.305 494.461 352.615 513.703 331.37C526.637 317.085 532.66 300.33 529.684 281.011C527.109 264.216 517.773 251.302 504.488 241.307C483.864 225.802 460.494 221.906 435.129 225.695L435.123 225.688ZM90.7341 424.323C101.535 499.657 193.865 548.29 259.038 520.076C222.554 495.551 198.748 463.984 201.314 417.37C184.39 427.099 166.156 430.931 147.138 432.153C128.011 433.332 108.838 430.67 90.7469 424.324L90.7341 424.323ZM149.562 308.313C132.576 290 118.911 268.868 109.181 245.867C107.836 242.71 105.505 243.441 103.267 243.742C89.2385 245.567 75.5959 249.626 62.8568 255.766C45.8555 264.072 33.9551 276.715 29.6343 295.317C21.8116 329.222 37.2527 354.89 59.8478 378.705C74.908 336.248 105.201 314.032 149.575 308.314L149.562 308.313ZM252.829 481.471C258.079 487.781 266.935 493.602 276.329 498.644C286.784 504.323 286.901 504.248 295.478 495.611C297.464 493.442 299.329 491.165 301.063 488.789C327.205 455.903 322.851 418.055 295.914 392.801C284.497 382.09 270.487 378.413 255.453 382.384C241.433 386.128 234.939 397.431 231.861 410.718C225.813 437.088 232.134 460.131 252.841 481.497L252.829 481.471ZM301.197 217.524C306.118 188.317 304.371 159.669 298.377 131.128C297.754 128.148 295.934 127.572 293.341 127.319C283.94 126.273 274.447 126.385 265.075 127.65C243.607 130.861 224.008 137.948 209.447 155.199C206.528 158.655 205.36 161.445 208.11 165.94C216.315 179.155 226.931 190.711 239.405 200.004C257.527 213.772 277.801 220.111 301.229 217.544L301.197 217.524ZM109.792 359.546C99.2966 369.135 93.877 381.286 90.6282 394.736C89.5666 399.123 90.6965 400.963 94.8367 402.494C123.248 413.1 151.533 411.945 179.511 401.355C188.959 397.823 197.054 391.409 202.65 383.018C210.496 371.393 210.866 359.889 202.855 352.467C196.744 346.579 189.138 342.478 180.864 340.609C153.922 334.842 130.451 342.006 109.824 359.566L109.792 359.546ZM290.416 105.435C285.58 92.5749 279.145 81.3691 269.435 71.9842C251.571 54.7108 230.424 57.9287 214.997 71.5769C203.616 81.647 198.863 95.3769 196.698 110.093C195.285 119.536 195.624 129.161 197.699 138.486C224.122 113.549 255.459 105.25 290.447 105.455L290.416 105.435ZM139.325 243.528C139.679 244.756 140.105 245.962 140.603 247.14C153.607 272.468 170.442 294.728 193.818 311.416C210.204 323.117 227.9 331.705 248.693 331.417C254.322 331.336 261.038 331.538 263.907 325.688C266.407 320.517 262.4 315.575 260.045 310.953C258.553 308.076 256.373 306.597 252.4 307.386C241.161 309.606 230.359 307.431 220.543 301.671C203.681 291.734 192.838 276.547 184.331 259.318C183.438 257.516 183.071 255.488 180.534 254.451C167.384 249.134 153.913 245.206 139.344 243.535L139.325 243.528ZM409.681 234.71C382.523 252.407 365.897 276.916 358.803 309.281C369.173 305.664 378.446 306.292 387.634 309.304C396.823 312.315 404.075 318.234 411.707 323.853C419.477 304.296 418.363 252.503 409.681 234.71ZM294.289 242.034C273.962 242.229 255.659 237.255 238.832 226.868C221.86 216.478 206.953 203.041 194.861 187.235C192.539 200.352 192.101 211.733 193.84 223.298C194.528 227.675 196.066 230.232 200.161 232.083C206.567 234.972 212.729 238.435 218.833 241.928C236.834 252.086 253.356 264.67 267.934 279.327C280.724 269.759 288.477 257.103 294.269 242.053L294.289 242.034ZM326.923 136.758C330.238 162.323 329.957 188.221 326.087 213.698C346.864 207.989 364.508 198.239 378.127 181.751C380.717 178.608 380.193 176.454 377.738 173.728C363.644 157.901 346.305 145.297 326.903 136.777L326.923 136.758ZM402.477 345.499C391.07 334.878 378.005 329.216 367.53 330.869C372.561 338.357 377.746 345.019 385.832 348.706C396.359 353.421 396.38 353.377 402.49 345.486L402.477 345.499ZM236.96 287.204C230.918 282.079 224.684 277.238 217.399 273.968C222.503 280.467 228.811 285.2 236.967 287.185L236.96 287.204Z" fill="#FFCC00"/>
</svg>
