<svg width="275" height="491" viewBox="0 0 275 491" fill="none" xmlns="http://www.w3.org/2000/svg">
<path d="M-126.728 252.577C-141.305 239.873 -154.019 226.649 -158.262 207.637C-162.562 188.46 -157.784 170.38 -150.936 152.68C-139.273 122.781 -119.703 99.1576 -93.3298 81.0572C-83.4915 74.2974 -73.1797 68.4409 -61.6331 65.0238C-60.7899 64.8524 -59.9902 64.5122 -59.2824 64.0237C-58.5745 63.5353 -57.973 62.9086 -57.5142 62.1815C-32.3109 22.5564 4.34533 2.78092 50.8285 0.343734C75.0903 -0.962124 98.615 2.75438 120.77 12.8005C145.363 23.9556 165.365 40.7059 179.004 64.3534C180.572 67.0612 182.344 68.5762 185.403 69.2038C205.585 73.3116 224.812 80.0691 241.159 92.8619C267.302 113.304 278.821 140.357 273.689 173.258C270.46 194.126 258.568 210.726 243.447 224.999C238.708 229.446 233.628 233.571 228.251 238.166C234.938 246.078 241.665 253.977 247.337 262.695C268.486 295.251 278.301 330.698 272.598 369.309C267.136 406.256 248.321 435.864 218.162 457.74C180.321 485.221 137.306 495.519 91.4017 488.974C53.3123 483.55 23.7505 463.007 4.30827 429.214C0.0744022 421.792 -2.68509 413.623 -3.81873 405.157C-3.92078 403.85 -4.3565 402.59 -5.08422 401.498C-5.81192 400.407 -6.80737 399.52 -7.9756 398.921C-11.8369 396.752 -15.7713 394.722 -19.4763 392.321C-23.0287 390.031 -26.3076 387.367 -30.0578 384.613C-39.523 392.286 -50.1312 398.434 -61.4986 402.833C-96.2204 416.245 -139.981 406.251 -161.424 379.119C-176.059 360.596 -179.7 339.239 -175.067 316.392C-169.631 289.582 -153.101 270.652 -131.179 255.662C-129.726 254.64 -128.308 253.668 -126.728 252.577ZM48.1609 249.699C23.8043 231.676 20.4782 220.96 32.0724 198.918C-0.169092 210.982 -26.6657 200.212 -49.4731 177.579C-72.9802 154.252 -75.8243 125.214 -70.6933 93.4177C-73.1821 94.2531 -75.2845 95.7634 -77.503 97.1049C-111.132 117.472 -132.675 146.857 -141.71 184.956C-145.092 199.186 -142.433 212.694 -131.088 223.545C-125.205 229.18 -119.338 234.706 -112.585 239.305C-108.635 242.005 -105.195 243.038 -100.469 240.807C-96.3486 238.855 -91.6907 238.053 -87.203 237.038C-84.4493 236.533 -81.9745 235.044 -80.2409 232.849C-75.8254 227.21 -69.6026 223.26 -62.6155 221.661C-42.9988 217.1 -27.6976 224.821 -15.9539 239.765C5.87722 267.616 7.59615 299.472 0.687327 332.585C-1.9609 344.856 -6.9297 356.508 -13.9523 366.914C-10.4541 369.825 -7.19805 372.351 -3.17762 374.255C-1.88268 370.423 -0.630458 366.923 0.492256 363.396C5.95947 346.094 15.3239 331.059 29.2647 319.637C37.2127 313.12 40.6601 306.914 39.218 296.307C36.9882 280.197 41.2331 264.667 48.1609 249.699ZM164.836 264.15C173.853 278.432 179.519 293.414 181.175 309.762C181.432 312.329 182.637 313.885 184.44 315.463C193.769 323.445 201.416 333.2 206.936 344.161C218.994 368.57 223.792 393.49 210.158 418.93C196.984 443.496 171.118 453.671 143.703 446.591C124.783 441.717 109.241 431.253 95.9148 417.304C93.4727 414.75 91.203 413.862 87.6135 414.498C77.6833 416.174 67.6059 416.822 57.541 416.433C44.858 416.062 32.2682 414.129 20.0568 410.677C20.0061 411.152 20.0156 411.631 20.0851 412.104C20.4039 412.932 20.7685 413.742 21.1773 414.53C36.2387 443.722 60.5533 461.23 92.4798 465.868C135.731 472.147 175.649 462.306 209.978 434.26C232.675 415.746 247.364 392.228 249.846 362.587C253.441 319.643 236.205 284.34 207.873 253.453C206.386 251.836 205.043 251.253 202.831 252.294C190.83 257.977 178.179 261.41 164.828 264.148L164.836 264.15ZM-46.3139 369.682C-47.2709 368.495 -47.9368 367.725 -48.6232 366.94C-70.7259 341.659 -85.272 312.606 -90.2437 279.418C-91.5454 270.725 -96.8213 268.389 -102.901 265.435C-103.622 265.097 -104.42 264.953 -105.214 265.02C-106.009 265.087 -106.771 265.361 -107.425 265.816C-128.745 277.977 -146.699 293.158 -153.183 318.154C-157.539 334.959 -155.347 350.849 -144.902 365.026C-135.831 377.356 -122.984 383.763 -108.205 386.192C-85.2658 389.952 -64.9853 383.3 -46.3217 369.68L-46.3139 369.682ZM145.597 67.2697C105.506 11.6513 11.4944 11.402 -28.7411 61.1473C10.625 65.4822 42.8144 80.7345 60.2386 119.013C69.6827 104.178 82.6357 93.5021 97.3057 84.5816C112.08 75.6514 128.496 69.7668 145.587 67.2748L145.597 67.2697ZM147.103 184.443C168.311 191.964 188.046 203.124 205.42 217.418C207.813 219.376 209.369 217.819 211.029 216.643C221.464 209.327 230.658 200.388 238.261 190.166C248.362 176.434 252.579 161.371 248.257 144.718C240.338 114.388 217.291 100.35 189.307 90.7797C195.022 130.96 180.123 161.347 147.093 184.448L147.103 184.443ZM-7.65787 89.3677C-14.4843 86.5247 -23.9848 85.5778 -33.5897 85.4771C-44.3062 85.3118 -44.3689 85.4203 -47.6071 95.8971C-48.2865 98.4582 -48.8233 101.055 -49.215 103.676C-56.3441 140.846 -37.0576 169.236 -5.0074 178.142C8.58007 181.922 21.2988 179.005 31.6399 169.554C41.2659 160.709 41.7278 148.974 38.6344 137.083C32.4468 113.509 17.7748 97.7561 -7.67855 89.352L-7.65787 89.3677ZM63.9953 320.253C72.2678 345.622 85.6299 367.758 102.337 388.036C104.079 390.154 105.772 389.854 107.948 388.973C115.889 385.88 123.419 381.825 130.371 376.9C146.166 365.37 158.848 351.526 163.265 331.673C164.151 327.695 163.918 324.981 159.845 322.541C147.776 315.42 134.474 310.632 120.635 308.425C100.419 305.005 81.5896 308.415 63.9616 320.251L63.9953 320.253ZM157.446 126.936C161.817 114.898 161.067 102.934 158.042 90.8418C157.056 86.8965 155.386 85.8998 151.442 86.4075C124.334 89.8106 102.239 102.548 84.3311 122.688C78.2649 129.454 74.4834 137.956 73.5214 146.991C72.1155 159.547 76.6261 168.884 86.1205 171.462C93.4575 173.609 101.242 173.705 108.627 171.741C132.541 165.089 148.283 149.566 157.412 126.933L157.446 126.936ZM119.425 405.218C128.656 413.463 138.474 419.719 150.144 423.154C171.619 429.479 187.154 418.077 193.767 400.738C198.644 387.946 196.703 375.001 192.283 362.351C189.466 354.223 185.175 346.682 179.624 340.106C168.949 371.048 147.404 390.763 119.391 405.215L119.425 405.218ZM182.337 231.877C181.542 231.045 180.697 230.26 179.809 229.528C158.848 214.744 136.112 204.009 110.482 200.453C92.5147 197.959 74.8027 198.497 58.3263 207.412C53.8669 209.828 48.4218 212.472 48.5757 218.34C48.7401 223.512 54.0032 225.783 57.8132 228.488C60.2069 230.161 62.5644 230.431 65.406 228.142C73.4497 221.675 82.98 218.898 93.221 219.395C110.832 220.284 125.83 227.876 139.818 238.074C141.284 239.14 142.424 240.605 144.882 240.373C157.599 239.123 169.992 236.632 182.319 231.88L182.337 231.877ZM-29.7751 351.853C-15.4906 326.383 -12.4583 299.875 -20.3159 271.078C-27.0821 278.297 -34.746 281.67 -43.3381 283.104C-51.9303 284.538 -60.1918 282.843 -68.631 281.546C-66.663 300.402 -44.1376 341.278 -29.7751 351.853ZM59.2704 297.804C75.414 289.157 92.1012 285.481 109.871 286.743C127.758 287.946 145.27 292.444 161.525 300.009C157.898 288.569 153.494 279.303 147.275 270.797C144.897 267.591 142.601 266.193 138.559 266.426C132.239 266.796 125.874 266.606 119.544 266.368C100.931 265.779 82.4869 262.637 64.7284 257.027C58.5157 270.007 57.6148 283.348 59.2782 297.781L59.2704 297.804ZM77.1994 395.466C63.8742 376.446 53.2802 355.657 45.7263 333.704C31.5271 346.941 21.5169 362.094 17.5341 380.944C16.7792 384.534 18.0979 386.034 21.1959 387.185C39.0574 393.931 58.1626 396.747 77.2073 395.443L77.1994 395.466ZM-70.3051 260.413C-56.7641 264.125 -43.9699 263.187 -36.2997 257.492C-43.4436 253.617 -50.3647 250.465 -58.3596 250.9C-68.7318 251.534 -68.7294 251.578 -70.3104 260.429L-70.3051 260.413ZM86.1608 237.801C93.1242 239.369 100.123 240.628 107.303 240.194C100.514 237.139 93.5025 235.996 86.1633 237.82L86.1608 237.801Z" fill="#FBB506"/>
</svg>
