<svg width="394" height="542" viewBox="0 0 394 542" fill="none" xmlns="http://www.w3.org/2000/svg">
<g clip-path="url(#clip0_176_17270)">
<path d="M358.887 490.665C351.03 488.96 343.932 484.764 338.646 478.7C311.652 449.279 285.965 418.694 259.617 388.716C217.964 341.338 176.949 293.437 138.724 243.216C125.408 225.71 113.045 207.508 101.238 188.962C98.9365 185.703 97.2304 182.06 96.1998 178.204C95.2528 173.794 95.8758 169.586 99.8017 166.907C101.468 165.789 103.427 165.189 105.432 165.184C107.437 165.178 109.398 165.767 111.069 166.875C120.93 172.689 129.712 180.167 137.029 188.977C165.01 221.375 190.424 255.788 217.437 288.877C261.981 343.542 306.643 398.147 351.422 452.692C358.381 461.215 365.243 469.839 366.445 481.441C367.31 490.197 365.022 492.248 358.887 490.665Z" fill="#FBB506"/>
<path d="M396.046 439.118C388.266 435.482 381.282 430.34 375.496 423.989C344.282 390.984 317.401 354.554 289.27 318.997C254.887 275.675 219.578 233.09 184.766 190.109C171.535 173.755 159.038 156.831 147.275 139.336C144.816 135.916 142.843 132.17 141.413 128.206C140.146 124.274 140.461 120.637 143.853 118.002C146.952 115.671 150.401 116.063 153.701 118.096C160.97 122.75 167.448 128.538 172.891 135.241C235.363 208.914 297.623 282.857 355.325 360.401C366.472 375.388 378.461 389.759 389.949 404.471C396.46 412.844 401.978 421.793 403.324 432.62C404.055 438.652 401.916 440.615 396.046 439.118Z" fill="#FBB506"/>
<path d="M203.672 82.3565C208.002 83.4608 210.707 86.8393 213.502 89.934C236.106 115.168 255.894 142.679 277.6 168.676C324.226 224.666 369.015 282.209 415.37 338.346C422.056 346.457 428.529 354.766 434.888 363.172C439.98 369.633 443.149 377.402 444.033 385.587C444.597 391.144 442.48 392.95 437.282 390.866C429.102 387.625 422.704 381.988 417.026 375.289C378.906 330.165 340.696 285.109 303.171 239.487C277.798 208.657 250.613 179.35 226.337 147.609C215.692 133.689 205.098 119.71 196.344 104.45C194.18 101.111 192.684 97.384 191.937 93.474C190.809 85.6079 196.463 80.3195 203.672 82.3565Z" fill="#FBB506"/>
<path d="M247.825 54.878C253.152 57.4046 257.979 60.873 262.075 65.1164C278.567 81.6822 293.084 99.982 307.93 117.987C352.386 171.89 393.204 228.618 436.822 283.191C444.37 292.203 449.746 302.835 452.533 314.263C453.112 316.865 454.455 319.932 451.705 322.1C448.954 324.267 446.845 321.943 444.593 320.954C436.919 317.494 430.135 312.327 424.758 305.845C378.601 251.616 331.161 198.468 288.797 141.093C273.117 119.862 255.741 99.8408 242.641 76.76C240.122 72.5089 237.909 68.1191 237.783 63.0346C237.669 61.7609 237.869 60.4786 238.367 59.3004C238.865 58.1223 239.644 57.0845 240.636 56.2786C241.628 55.4727 242.803 54.9234 244.057 54.6792C245.31 54.435 246.604 54.5032 247.825 54.878Z" fill="#FBB506"/>
<path d="M280.713 504.126C272.412 500.048 264.91 494.511 258.564 487.777C236.576 464.793 217.089 439.705 197.32 414.869C169.243 379.596 141.422 344.118 113.858 308.435C101.596 292.181 90.424 275.131 80.4164 257.395C78.2115 253.808 76.7798 249.798 76.2131 245.623C75.4841 239.158 79.5619 235.813 85.7034 237.867C90.6782 239.551 94.4835 243.065 98.2766 246.487C113.317 260.337 124.934 277.085 137.385 293.108C181.38 349.738 225.268 406.455 269.05 463.26C276.945 473.483 284.038 484.169 287.725 496.766C288.432 499.22 289.159 501.805 286.98 503.992C285.291 505.672 283.432 504.837 280.713 504.126Z" fill="#FBB506"/>
<path d="M198.113 488.96C190.796 485.46 184.257 480.522 178.885 474.439C162.5 455.266 146.702 435.557 130.3 416.452C104.959 386.767 80.1026 356.736 57.7417 324.689C51.1849 315.561 45.4857 305.845 40.7172 295.664C38.4815 290.727 36.9459 285.518 42.1273 281.588C47.7035 277.453 52.4611 280.976 56.2941 284.877C68.122 297.155 79.1866 310.148 89.4252 323.784C118.687 361.687 150.372 397.645 178.979 436.066C189.454 450.159 199.904 464.282 204.048 481.867C205.484 488.314 203.996 490.334 198.113 488.96Z" fill="#FBB506"/>
<path d="M437.532 224.82C429.856 222.009 422.934 217.459 417.306 211.524C381.421 173.953 348.444 134.021 320.13 90.3515C317.759 86.8654 315.953 83.0253 314.781 78.9733C314.264 77.5311 314.203 75.964 314.606 74.485C315.009 73.0059 315.857 71.6867 317.034 70.7063C319.373 68.5965 322.17 68.9309 324.96 69.859C327.764 71.015 330.346 72.6503 332.59 74.6919C350.548 88.5462 364.145 106.359 377.59 124.277C395.058 147.605 412.229 171.327 429.535 194.867C433.859 200.986 437.061 207.827 438.992 215.07C439.58 216.688 439.755 218.427 439.5 220.13C439.245 221.834 438.569 223.446 437.532 224.82Z" fill="#FBB506"/>
<path d="M24.1929 361.585C25.8832 353.968 34.4521 351.661 40.7393 357.523C49.1293 365.31 56.2595 374.364 63.3398 383.261C74.0936 396.613 83.3142 410.892 88.2126 427.496C88.8533 429.716 90.8969 432.439 88.1004 434.504C85.3038 436.57 82.9776 434.461 80.576 433C63.8272 422.883 51.7764 408.117 40.6958 392.444C35.7231 385.384 31.0819 378.083 26.4112 370.757C25.4401 369.459 24.743 367.977 24.3617 366.4C23.9804 364.823 23.9227 363.185 24.1929 361.585Z" fill="#FBB506"/>
<path d="M432.221 140.826C427.481 139.5 423.162 136.976 419.679 133.495C405.889 120.956 395.535 105.685 386.251 89.7484C384.656 87.1368 383.867 84.1109 383.984 81.0505C384.414 73.0767 390.733 69.3474 397.635 73.4353C407.403 79.2104 414.484 88.0352 422.144 96.1418C428.348 103.116 433.974 110.585 438.966 118.476C441.695 122.582 443.195 127.384 443.29 132.317C443.658 140.693 440.702 143.097 432.221 140.826Z" fill="#FBB506"/>
</g>
<defs>
<clipPath id="clip0_176_17270">
<rect width="452.468" height="417.969" fill="white" transform="translate(0 438.434) rotate(-75.6924)"/>
</clipPath>
</defs>
</svg>
