<svg width="363" height="613" viewBox="0 0 363 613" fill="none" xmlns="http://www.w3.org/2000/svg">
<g clip-path="url(#clip0_176_17227)">
<path d="M-208.793 387.285C-205.877 378.881 -200.327 371.641 -192.965 366.64C-157.065 340.893 -120.06 316.735 -83.635 291.772C-26.0658 252.306 31.9932 213.609 92.2304 178.285C113.227 165.982 134.861 154.817 156.8 144.309C160.685 142.213 164.912 140.822 169.285 140.202C174.255 139.746 178.794 140.989 181.217 145.657C182.223 147.636 182.622 149.867 182.362 152.07C182.102 154.273 181.196 156.349 179.756 158.037C172.061 168.098 162.682 176.753 152.033 183.62C112.733 210.057 71.5603 233.406 31.6297 258.688C-34.3278 300.363 -100.235 342.175 -166.091 384.125C-176.377 390.638 -186.761 397.03 -199.664 396.811C-209.397 396.6 -211.346 393.815 -208.793 387.285Z" fill="#161616"/>
<path d="M-157.103 434.943C-152.076 426.88 -145.501 419.89 -137.757 414.377C-97.3611 384.471 -53.7784 359.777 -10.9881 333.595C41.1616 301.577 92.6238 268.442 144.455 235.906C164.175 223.543 184.423 212.062 205.202 201.463C209.285 199.216 213.661 197.546 218.206 196.5C222.693 195.63 226.645 196.459 229.09 200.535C231.24 204.248 230.351 207.984 227.68 211.34C221.603 218.707 214.386 225.054 206.3 230.143C117.085 288.989 27.6016 347.566 -65.2331 400.658C-83.1742 410.915 -100.551 422.177 -118.236 432.843C-128.297 438.885 -138.86 443.758 -150.931 443.799C-157.654 443.802 -159.526 441.192 -157.103 434.943Z" fill="#161616"/>
<path d="M260.307 270.972C258.519 275.582 254.449 278.105 250.679 280.765C219.961 302.245 187.116 320.331 155.679 340.724C87.9901 384.51 18.8394 426.072 -48.9753 469.541C-58.7718 475.809 -68.7578 481.817 -78.8353 487.686C-86.6079 492.422 -95.5618 494.872 -104.67 494.757C-110.849 494.64 -112.551 492.074 -109.573 486.641C-104.928 478.086 -97.8862 471.806 -89.7747 466.458C-35.1503 430.573 19.412 394.58 74.5042 359.415C111.736 335.635 147.536 309.663 185.623 287.209C202.326 277.364 219.087 267.582 237.011 259.991C240.965 258.057 245.258 256.908 249.652 256.607C258.442 256.412 263.501 263.324 260.307 270.972Z" fill="#161616"/>
<path d="M284.631 323.118C281.149 328.634 276.699 333.476 271.494 337.413C251.109 353.329 229.081 366.848 207.335 380.765C142.226 422.445 74.4971 459.753 8.7631 500.424C-2.13746 507.519 -14.5289 512.013 -27.4526 513.558C-30.3873 513.849 -33.9348 514.917 -35.9506 511.608C-37.9665 508.299 -35.1336 506.291 -33.7481 503.949C-28.9297 495.979 -22.3532 489.213 -14.5194 484.166C51.1723 440.662 115.848 395.603 184.493 356.683C209.894 342.277 234.192 325.847 261.283 314.52C266.287 312.318 271.403 310.469 277.004 311.005C278.419 311.049 279.8 311.439 281.029 312.142C282.257 312.845 283.293 313.839 284.047 315.036C284.8 316.232 285.248 317.596 285.35 319.005C285.452 320.415 285.205 321.827 284.631 323.118Z" fill="#161616"/>
<path d="M-213.206 299.631C-207.625 291.053 -200.547 283.547 -192.309 277.47C-164.144 256.367 -134 238.291 -104.096 219.872C-61.6255 193.712 -18.963 167.86 23.8907 142.317C43.3711 131.005 63.5826 120.996 84.3923 112.357C88.6253 110.411 93.2197 109.37 97.8809 109.302C105.079 109.359 108.212 114.282 105.141 120.755C102.632 125.996 98.2661 129.71 94.0047 133.422C76.7954 148.105 56.8568 158.644 37.6049 170.194C-30.4382 211.005 -98.5628 251.688 -166.769 292.242C-179.047 299.558 -191.726 305.93 -206.052 308.309C-208.841 308.76 -211.777 309.216 -213.89 306.532C-215.512 304.453 -214.348 302.523 -213.206 299.631Z" fill="#161616"/>
<path d="M-185.586 210.911C-180.77 203.338 -174.478 196.81 -167.084 191.717C-143.849 176.263 -120.104 161.526 -96.9413 146.044C-60.9713 122.148 -24.6859 98.8292 13.4826 78.5196C24.3794 72.5285 35.8089 67.5577 47.6249 63.6707C53.3442 61.87 59.2701 60.8745 62.8986 67.0874C66.7011 73.7613 62.1998 78.5197 57.4066 82.2124C42.3502 93.5754 26.6093 104.005 10.2726 113.442C-35.2441 140.555 -78.9467 170.588 -124.946 196.913C-141.817 206.549 -158.716 216.153 -178.582 218.371C-185.854 219.093 -187.876 217.19 -185.586 210.911Z" fill="#161616"/>
<path d="M72.7856 508.949C76.8923 500.891 82.8093 493.891 90.0744 488.497C136.106 454.064 184.346 423.14 236.071 397.834C240.215 395.692 244.673 394.218 249.279 393.468C250.932 393.091 252.661 393.232 254.233 393.871C255.804 394.51 257.14 395.616 258.061 397.04C260.068 399.889 259.329 402.917 257.94 405.859C256.298 408.785 254.159 411.404 251.619 413.599C234.018 431.485 212.647 444.058 191.181 456.448C163.238 472.54 134.902 488.253 106.748 504.14C99.4536 508.077 91.5146 510.687 83.3019 511.847C81.4471 512.279 79.5131 512.24 77.6762 511.733C75.8393 511.227 74.158 510.27 72.7856 508.949Z" fill="#161616"/>
<path d="M165.754 514.261C167.839 509.231 171.185 504.821 175.47 501.458C191.073 487.974 209.222 478.627 227.959 470.544C231.039 469.138 234.468 468.674 237.814 469.208C246.516 470.739 249.773 478.175 244.367 485.214C236.728 495.177 226.094 501.784 216.173 509.122C207.689 515.011 198.738 520.2 189.409 524.636C184.536 527.089 179.062 528.1 173.631 527.549C164.381 526.842 162.133 523.277 165.754 514.261Z" fill="#161616"/>
</g>
<defs>
<clipPath id="clip0_176_17227">
<rect width="500.624" height="462.453" fill="white" transform="translate(-103.797) rotate(21.1959)"/>
</clipPath>
</defs>
</svg>
