<svg width="578" height="671" viewBox="0 0 578 671" fill="none" xmlns="http://www.w3.org/2000/svg">
<path d="M461.151 97.608C447.269 76.2483 428.919 58.1601 407.261 44.4867C393.111 35.5439 377.375 37.25 361.644 38.9885C354.944 39.7312 348.613 40.3608 342.924 36.3129C334.465 30.2766 333.997 19.2592 342.068 12.1003C344.922 9.3696 348.356 7.31099 352.095 6.09004C381.529 -2.69834 409.184 -1.90749 434.137 16.1387C469.396 41.6314 496.174 73.937 513.448 113.818C515.048 117.793 517.791 121.181 521.352 123.58C557.509 148.295 583.446 181.988 606.298 218.451C623.364 245.709 637 274.564 645.735 305.735C655.836 341.787 651.332 375.246 623.113 404.359C608.195 419.736 590.851 428.252 569.21 426.307C555.399 424.883 541.733 422.59 528.293 419.441C532.058 433.864 535.914 447.315 539.036 460.951C544.394 484.395 547.032 508.075 540.777 532.378C531.291 569.189 504.455 588.167 466.933 584.38C465.216 584.212 463.476 584.062 461.264 583.865C459.698 596.725 459.428 609.343 455.827 621.711C446.2 654.7 424.889 670.318 390.289 670.145C354.861 669.954 325.091 655.862 297.006 637.654C271.377 621.346 247.402 602.711 225.376 581.977C223.489 580.454 221.486 579.074 219.381 577.849C207.376 592.231 193.868 604.113 176.647 611.017C134.714 627.985 95.392 622.192 65.2034 593.009C14.932 544.411 -8.93742 483.746 3.09367 411.154C5.76383 394.973 12.2796 379.834 24.0862 367.193C27.1805 363.851 31.3351 361.658 35.8018 361.01C42.2229 359.969 45.6775 363.891 43.1394 369.657C26.9139 406.624 32.14 442.565 44.3566 477.746C53.6184 504.964 67.5003 530.261 85.4273 552.589C106.323 578.403 143.283 587.278 174.89 573.25C184.06 569.068 191.997 562.523 197.831 554.333C182.119 537.269 167.897 518.909 155.306 499.435C130.153 461.103 110.003 420.363 103.995 373.62C101.849 358.831 102.644 343.646 106.337 328.905C113.421 301.903 135.456 288.984 161.799 296.6C185.769 303.524 203.262 319.186 216.113 339.215C244.177 382.924 256.575 431.581 253.606 484.474C252.832 499.815 249.822 515.062 244.67 529.744C243.37 533.41 242.918 536.335 246.066 539.237C277.024 567.774 308.562 595.643 345.059 617.462C362.117 627.638 380.069 635.991 401.041 636.227C415.448 636.344 422.655 631.278 427.055 617.771C431.28 604.793 431.844 591.63 431.399 578.332C431.307 575.541 430.891 573.281 428.093 571.892C394.407 554.656 368.308 528.849 343.805 500.966C311.776 464.539 286.948 423.901 270.976 377.892C266.311 364.447 262.97 350.594 263.66 335.998C264.185 325.145 267.057 314.949 275.305 306.808C287.622 294.674 301.344 296.007 315.15 301.822C336.296 310.851 352.791 325.937 367.095 343.037C412.026 396.793 437.976 460.069 454.237 527.981C455.525 533.392 457.526 536.914 462.754 538.591C463.554 538.937 464.325 539.342 465.06 539.803C492.744 553.333 507.977 546.228 513.083 511.036C515.794 492.345 511.301 474.355 506.587 456.603C502.563 441.503 497.462 426.737 492.279 412.013C491.73 410.249 490.779 408.648 489.497 407.329C488.215 406.01 486.635 405.006 484.875 404.393C439.638 385.942 402.791 355.805 367.153 324.115C342.707 302.379 318.873 279.915 300.443 252.733C285.266 230.348 272.574 206.544 273.13 178.002C273.718 151.23 292.066 138.218 317.442 146.772C344.676 155.914 367.568 172.238 389.291 190.068C420.386 215.589 443.253 247.679 463.271 282.147C478.932 309.095 494.062 336.294 506.647 364.883C508.084 368.155 510.664 369.634 513.597 370.977C530.052 378.617 547.003 384.891 564.049 391.114C592.039 401.321 606.353 391.788 620.393 361.771C628.799 343.883 622.501 325.683 616.234 308.871C599.67 264.353 573.45 225.786 542.209 190.491C539.53 187.457 537.101 184.2 534.321 181.259C531.756 178.556 528.889 176.133 526.15 173.578C524.277 173.961 523.954 175.433 523.726 176.906C518.082 212.137 486.905 230.044 452.288 224.363C416.812 218.544 382.635 186.832 376.456 153.575C370.646 122.287 389.066 98.6514 421.483 95.3125C434.416 94.013 446.868 96.2582 461.151 97.608ZM221.027 510.305C232.516 451.439 223.033 398.943 191.693 351.578C183.776 339.343 172.077 330.02 158.228 324.91C144.696 319.995 139.436 323.483 138.457 337.842C137.478 352.201 140.673 365.656 144.56 379.048C152.777 407.672 166.332 433.801 181.879 458.716C192.884 476.447 204.229 494.305 221.027 510.305ZM298.137 323.178C292.356 350.022 368.134 464.96 416.441 504.217C415.975 501.941 415.792 500.249 415.282 498.675C404.062 463.727 389.481 430.046 371.732 398.077C358.626 374.582 343.594 352.288 322.619 334.751C315.82 328.961 308.4 324.014 298.161 323.16L298.137 323.178ZM455.714 335.566C423.914 270.896 385.233 212.389 316.013 181.231C348.588 245.214 400.558 291.822 455.738 335.548L455.714 335.566ZM485.935 189.193C498.765 179.626 496.986 149.604 483.692 143.155C465.98 134.642 447.123 129.317 426.896 128.888C411.486 128.541 406.749 134.661 411.277 149.167C418.549 172.433 444.878 192.223 469.816 193.103C475.848 193.293 481.774 193.037 485.959 189.175L485.935 189.193Z" fill="#161616"/>
</svg>
