<svg width="423" height="473" viewBox="0 0 423 473" fill="none" xmlns="http://www.w3.org/2000/svg">
<path d="M348.295 91.4476C344.251 73.1165 336.278 55.8848 324.879 40.8418C317.434 31.0072 306.137 28.1078 294.834 25.2322C290.02 24.0088 285.49 22.8033 282.614 18.5372C278.342 12.1817 280.873 4.46002 288.296 1.61237C290.971 0.467758 293.874 -0.0627789 296.769 0.0635096C319.351 1.62543 338.224 9.33498 350.763 28.248C368.483 54.9679 378.587 84.1905 380.173 116.177C380.246 119.334 381.261 122.382 383.097 124.959C401.637 151.375 410.802 181.337 417.12 212.411C421.833 235.635 423.765 259.073 421.716 282.839C419.345 310.327 407.57 332.241 380.562 345.015C366.288 351.759 352.117 353.141 337.692 346.193C328.533 341.633 319.699 336.511 311.244 330.857C310.105 341.782 309.28 352.06 307.902 362.276C305.525 379.836 301.21 396.856 290.6 412C274.52 434.937 251.092 441.078 226.188 428.746C225.047 428.185 223.885 427.631 222.411 426.922C217.999 435.388 214.544 444.022 208.856 451.621C193.669 471.885 174.922 477.139 151.098 468.056C126.708 458.748 109.821 441.314 95.1634 421.478C81.7075 403.589 69.9959 384.523 60.1722 364.514C59.2652 362.974 58.2404 361.504 57.106 360.114C45.099 366.925 32.7019 371.623 19.0338 371.924C-14.2896 372.767 -39.9149 358.585 -53.1808 330.632C-75.2716 284.085 -76.0231 236.052 -48.9191 189.091C-42.8854 178.62 -34.4688 169.864 -23.0495 164.202C-20.049 162.698 -16.615 162.262 -13.3657 162.972C-8.66643 163.917 -7.2992 167.517 -10.5438 170.837C-31.3131 192.136 -37.0181 218.284 -37.7039 245.718C-38.3654 266.894 -35.342 287.941 -28.7589 307.988C-21.0309 331.208 2.16711 346.905 27.6047 345.415C35.0143 344.906 42.1847 342.447 48.3314 338.309C41.9126 322.467 36.8577 306.117 33.2163 289.421C25.7938 256.462 22.4468 223.138 30.411 189.336C32.7614 178.577 37.2436 168.308 43.6099 159.096C55.4912 142.303 74.0388 139.099 90.2384 151.177C104.981 162.163 112.991 177.499 116.668 194.645C124.706 232.067 120.654 268.845 104.904 304.564C100.396 314.947 94.3702 324.685 87.0129 333.479C85.1661 335.671 84.0967 337.572 85.517 340.389C99.4804 368.095 114.018 395.49 133.543 419.996C142.675 431.436 152.895 441.848 167.302 447.443C177.21 451.256 183.495 449.628 190.028 441.45C196.305 433.591 200.104 424.657 203.242 415.369C203.901 413.419 204.199 411.752 202.629 410.069C183.856 389.453 172.536 364.889 162.856 339.306C150.197 305.881 143.596 271.415 144.496 235.538C144.761 225.055 146.045 214.633 150.301 204.742C153.475 197.391 158.098 191.102 165.897 187.622C177.537 182.442 186.658 186.917 194.675 194.504C206.924 206.211 214.395 220.891 219.833 236.392C236.904 285.115 238.414 335.489 232.039 386.55C231.526 390.616 231.994 393.564 235.166 396.075C235.629 396.521 236.056 397 236.443 397.509C252.036 414.014 264.385 413.059 277.024 390.104C283.736 377.912 285.296 364.338 286.643 350.87C287.779 339.412 288.085 327.903 288.324 316.404C288.402 315.045 288.161 313.694 287.618 312.452C287.075 311.209 286.245 310.108 285.189 309.229C258.762 284.782 241.15 254.447 224.775 223.354C213.541 202.027 202.918 180.356 197.245 156.831C192.575 137.456 189.985 117.748 197.763 98.2022C205.103 79.885 221.131 75.6619 236.421 88.1365C252.84 101.498 264.404 118.689 274.771 136.617C289.61 162.277 297.072 190.338 301.954 219.301C305.777 241.948 309.168 264.63 310.444 287.613C310.587 290.243 311.984 291.931 313.66 293.617C323.032 303.15 333.101 311.87 343.248 320.578C359.913 334.87 372.257 332.002 389.718 314.931C400.151 304.769 400.52 290.582 400.553 277.361C400.657 242.359 392.56 208.961 380.151 176.521C379.089 173.734 378.257 170.858 377.102 168.109C376.032 165.58 374.682 163.165 373.455 160.693C372.063 160.472 371.459 161.404 370.92 162.361C357.9 185.203 331.754 189.48 309.346 176.594C286.379 163.389 271.018 132.66 275.37 108.117C279.467 85.0273 298.296 73.4941 321.524 79.5882C330.783 82.042 338.791 86.8164 348.295 91.4476ZM75.7384 313.944C98.9126 276.312 105.97 237.641 96.6195 196.847C94.3271 186.356 88.6719 176.895 80.4419 169.782C72.3797 162.886 67.8478 163.929 63.4526 173.581C59.0573 183.234 57.7761 193.343 56.9883 203.588C55.2424 225.463 57.8242 247 62.0954 268.215C65.0941 283.297 68.295 298.555 75.7384 313.944ZM177.406 204.829C166.465 221.851 188.967 320.77 212.122 360.366C212.39 358.674 212.702 357.46 212.758 356.242C214.071 329.227 212.737 302.214 208.774 275.563C205.819 255.96 201.224 236.687 191.298 219.155C188.108 213.399 184.27 208.065 177.428 204.823L177.406 204.829ZM282.902 254.195C277.718 201.344 266.189 150.963 226.509 111.538C232.407 164.115 256.184 209.73 282.924 254.188L282.902 254.195ZM341.667 161.048C352.996 157.772 359.546 136.6 352.046 128.707C342.032 118.246 330.403 109.688 316.561 104.152C306.02 99.9213 301.167 102.916 300.533 114.096C299.523 132.03 312.559 152.502 329.534 159.57C333.646 161.263 337.801 162.622 341.689 161.041L341.667 161.048Z" fill="#161616"/>
</svg>
