<svg width="311" height="393" viewBox="0 0 311 393" fill="none" xmlns="http://www.w3.org/2000/svg">
<g clip-path="url(#clip0_176_17238)">
<path d="M37.0577 310.371C37.4575 303.502 40.0636 296.944 44.4899 291.671C65.7864 264.946 88.2409 239.171 110.094 212.919C144.63 171.418 179.692 130.387 217.086 91.4071C230.122 77.8275 243.873 64.9606 257.989 52.5184C260.439 50.14 263.292 48.2146 266.416 46.8317C270.019 45.4463 273.66 45.4151 276.446 48.3793C277.612 49.6399 278.379 51.2166 278.649 52.911C278.92 54.6054 278.682 56.3418 277.967 57.9014C274.358 67.0102 269.201 75.4275 262.721 82.7818C239.039 110.737 213.312 136.788 188.917 164.016C148.603 208.927 108.356 253.93 68.1748 299.024C61.891 306.039 55.5086 312.984 45.8583 315.539C38.5702 317.432 36.5329 315.769 37.0577 310.371Z" fill="#FFCC00"/>
<path d="M85.5686 334.955C87.6117 327.895 91.0329 321.308 95.6355 315.573C119.403 284.805 146.64 257.246 172.974 228.746C205.045 193.93 236.369 158.428 268.094 123.294C280.167 109.939 292.82 97.1285 306.052 84.8629C308.618 82.3303 311.524 80.1654 314.686 78.4304C317.842 76.8377 320.959 76.6221 323.637 79.1408C326.019 81.4516 326.145 84.4195 324.864 87.4798C321.892 94.2427 317.857 100.487 312.911 105.978C258.904 168.569 204.639 231.016 146.725 290.086C135.532 301.499 124.971 313.541 114.055 325.205C107.839 331.821 101.004 337.673 92.0279 340.247C87.0242 341.665 85.0812 340.116 85.5686 334.955Z" fill="#FFCC00"/>
<path d="M361.708 124.992C361.348 128.8 358.85 131.535 356.604 134.309C338.266 156.766 317.629 177.146 298.526 198.946C257.368 245.794 214.654 291.294 173.335 337.931C167.364 344.66 161.197 351.235 154.933 357.727C150.145 362.888 143.997 366.598 137.193 368.431C132.569 369.645 130.762 368.094 131.834 363.423C133.49 356.077 137.408 349.919 142.319 344.231C175.417 306.016 208.447 267.734 242.045 229.956C264.747 204.415 285.922 177.543 309.541 152.808C319.899 141.962 330.314 131.151 342.056 121.726C344.592 119.454 347.545 117.694 350.752 116.545C357.253 114.548 362.474 118.627 361.708 124.992Z" fill="#FFCC00"/>
<path d="M390.796 158.681C389.366 163.519 387.074 168.061 384.029 172.087C372.209 188.227 358.662 202.929 345.407 217.868C305.726 262.605 263.174 304.639 222.815 348.756C216.196 356.333 207.92 362.288 198.626 366.159C196.503 366.994 194.088 368.537 191.89 366.499C189.693 364.46 191.378 362.369 191.916 360.334C193.824 353.386 197.293 346.965 202.061 341.559C241.792 295.342 280.439 248.183 323.333 204.755C339.205 188.682 353.829 171.336 371.607 157.199C374.868 154.506 378.286 152.052 382.568 151.271C383.63 151.006 384.741 151.005 385.803 151.27C386.865 151.534 387.846 152.056 388.659 152.788C389.472 153.52 390.092 154.44 390.465 155.468C390.838 156.495 390.951 157.599 390.796 158.681Z" fill="#FFCC00"/>
<path d="M15.3099 246.059C17.6568 238.499 21.3439 231.422 26.1959 225.164C42.7135 203.525 61.3424 183.721 79.7201 163.713C105.821 135.296 132.129 107.069 158.645 79.031C170.761 66.5079 183.697 54.8011 197.365 43.9877C200.106 41.6477 203.307 39.9054 206.761 38.8727C212.131 37.399 215.5 40.4034 214.578 45.8684C213.814 50.298 211.347 53.9814 208.957 57.6422C199.241 72.1956 186.62 84.2389 174.724 96.8908C132.676 141.599 90.5401 186.228 48.3164 230.779C40.7193 238.81 32.6242 246.224 22.4625 251.011C20.4815 251.935 18.392 252.893 16.254 251.34C14.6093 250.135 15.0688 248.452 15.3099 246.059Z" fill="#FFCC00"/>
<path d="M17.18 174.208C19.1692 167.557 22.4775 161.373 26.9082 156.025C40.9467 139.629 55.5162 123.658 69.4951 107.256C91.2341 81.8938 113.33 56.895 137.46 33.7391C144.309 26.9848 151.769 20.8775 159.745 15.4957C163.622 12.9507 167.823 10.9616 171.833 14.8215C176.069 18.9879 173.721 23.4778 170.931 27.2358C162.118 38.8647 152.599 49.943 142.427 60.408C114.26 90.1755 88.0581 121.734 59.3656 151.017C48.8386 161.742 38.2833 172.45 23.9645 178.285C18.7038 180.355 16.7983 179.364 17.18 174.208Z" fill="#FFCC00"/>
<path d="M272.262 341.616C273.621 334.753 276.551 328.297 280.822 322.752C307.831 287.428 337.222 254.25 370.391 224.519C373.024 222.052 376.031 220.017 379.302 218.488C380.453 217.859 381.77 217.6 383.074 217.744C384.377 217.889 385.605 218.431 386.59 219.297C388.685 220.995 388.773 223.404 388.358 225.886C387.752 228.41 386.712 230.81 385.283 232.978C375.95 249.999 362.693 263.858 349.326 277.601C331.917 295.464 314.136 313.128 296.528 330.882C291.927 335.35 286.568 338.964 280.7 341.557C279.41 342.269 277.963 342.648 276.489 342.658C275.015 342.668 273.562 342.31 272.262 341.616Z" fill="#FFCC00"/>
<path d="M101.816 10.2656C108.48 10.6848 111.567 17.624 107.445 23.7171C101.973 31.8437 95.263 39.073 88.6793 46.2392C78.8157 57.1023 67.9656 66.7919 54.5758 73.1353C52.7834 73.9714 50.7524 76.0604 48.6352 73.9698C46.5179 71.8791 47.9926 69.6326 48.9091 67.4083C55.2429 51.9053 66.1296 39.7581 77.9122 28.311C83.2223 23.1703 88.7796 18.278 94.3546 13.3574C95.3234 12.3642 96.4844 11.5782 97.7671 11.0467C99.0497 10.5152 100.427 10.2493 101.816 10.2656Z" fill="#FFCC00"/>
</g>
<defs>
<clipPath id="clip0_176_17238">
<rect width="387.246" height="357.72" fill="white" transform="translate(33.6309) rotate(5.39459)"/>
</clipPath>
</defs>
</svg>
