<svg width="46" height="46" viewBox="0 0 46 46" fill="none" xmlns="http://www.w3.org/2000/svg">
<ellipse cx="23" cy="23" rx="23" ry="23" fill="black"/>
<path d="M25.5675 11.3764C24.7962 11.1331 23.9699 11 23.1161 11C20.6234 11 18.3924 12.1247 16.9005 13.8967L20.7336 17.1192L25.5675 11.3764Z" fill="white"/>
<path d="M16.9005 13.8965C15.6716 15.3561 14.9984 17.2033 15 19.1114C15 20.6354 15.303 21.8749 15.8034 22.9812L20.7336 17.1191L16.9005 13.8965Z" fill="white"/>
<path d="M23.1162 16.003C23.7079 16.0035 24.2872 16.1732 24.7858 16.4919C25.2844 16.8106 25.6815 17.2652 25.9304 17.802C26.1793 18.3389 26.2696 18.9357 26.1907 19.5222C26.1118 20.1086 25.8669 20.6603 25.4849 21.1123L30.3142 15.3695C29.323 13.4597 27.614 12.0215 25.563 11.3711L20.7383 17.1139C21.029 16.7658 21.3927 16.4858 21.8036 16.2938C22.2145 16.1018 22.6626 16.0025 23.1162 16.003Z" fill="white"/>
<path d="M23.1162 22.2098C21.4039 22.2098 20.013 20.8189 20.013 19.1066C20.011 18.3775 20.268 17.6714 20.7383 17.1143L15.8034 22.9764C16.6481 24.8448 18.0482 26.3459 19.4896 28.2372L25.4849 21.1126C25.1937 21.4568 24.8308 21.7333 24.4217 21.9228C24.0126 22.1122 23.5671 22.2102 23.1162 22.2098Z" fill="white"/>
<path d="M25.3594 30.1797C28.0679 25.9472 31.2216 24.0237 31.2216 19.1026C31.2216 17.753 30.8911 16.4814 30.3081 15.3613L19.4881 28.2379C19.9472 28.8393 20.4108 29.4773 20.8607 30.1843C22.5041 32.7275 22.0496 34.2515 23.1101 34.2515C24.1705 34.2515 23.716 32.7229 25.3594 30.1797Z" fill="white"/>
</svg>
