<svg width="46" height="46" viewBox="0 0 46 46" fill="none" xmlns="http://www.w3.org/2000/svg">
<ellipse cx="23" cy="23" rx="23" ry="23" fill="black"/>
<path fill-rule="evenodd" clip-rule="evenodd" d="M22.5228 28.4497L27.2771 31.9586C28.1494 32.4348 28.7844 32.1968 29.0058 31.1493L32.1302 16.4207C32.4475 15.1352 31.6386 14.5638 30.798 14.9446L12.464 22.0245C11.211 22.5323 11.227 23.2308 12.2419 23.5329L16.9442 25.0063L18.5554 30.3245C18.6054 30.4568 18.6386 30.5713 18.6669 30.6694C18.7643 31.0065 18.8056 31.1495 19.283 31.1499V31.1499C19.7322 31.1499 19.9412 30.9519 20.1899 30.7161L20.2346 30.6738C20.4047 30.5104 21.4054 29.5372 22.5228 28.4497Z" fill="white"/>
<path fill-rule="evenodd" clip-rule="evenodd" d="M27.3743 20.7229L18.8133 25.7344C18.4852 25.9269 18.3308 26.3035 18.4366 26.6561L19.3622 29.7474C19.4281 29.9665 19.7624 29.9441 19.7944 29.7178L20.035 28.0226C20.0804 27.7034 20.2406 27.4092 20.489 27.1896L27.5541 20.9473C27.6864 20.8308 27.5281 20.6331 27.3743 20.7229Z" fill="black"/>
</svg>
