<svg width="46" height="46" viewBox="0 0 46 46" fill="none" xmlns="http://www.w3.org/2000/svg">
<ellipse cx="23" cy="23" rx="23" ry="23" fill="black"/>
<path d="M27.799 24.4922C27.76 24.4735 26.3019 23.7555 26.0429 23.6623C25.9371 23.6243 25.8238 23.5872 25.7032 23.5872C25.5064 23.5872 25.341 23.6853 25.2121 23.878C25.0665 24.0945 24.6256 24.6099 24.4893 24.7639C24.4716 24.7842 24.4473 24.8085 24.4327 24.8085C24.4197 24.8085 24.194 24.7156 24.1257 24.6859C22.5616 24.0065 21.3744 22.3727 21.2116 22.0971C21.1884 22.0575 21.1874 22.0395 21.1872 22.0395C21.1929 22.0186 21.2455 21.9658 21.2727 21.9386C21.3521 21.8601 21.4381 21.7565 21.5214 21.6563C21.5608 21.6088 21.6003 21.5613 21.639 21.5165C21.7598 21.376 21.8136 21.2669 21.8759 21.1405L21.9086 21.0749C22.0608 20.7725 21.9308 20.5173 21.8888 20.4349C21.8543 20.3659 21.2386 18.8801 21.1732 18.724C21.0158 18.3473 20.8078 18.1719 20.5188 18.1719C20.4919 18.1719 20.5188 18.1719 20.4063 18.1766C20.2693 18.1824 19.5236 18.2806 19.1938 18.4884C18.8442 18.7089 18.2526 19.4116 18.2526 20.6475C18.2526 21.7597 18.9584 22.8099 19.2615 23.2093C19.269 23.2194 19.2829 23.2399 19.3029 23.2692C20.4635 24.9641 21.9103 26.2203 23.377 26.8062C24.789 27.3702 25.4577 27.4354 25.8378 27.4354H25.8379C25.9976 27.4354 26.1255 27.4228 26.2382 27.4117L26.3098 27.4049C26.7976 27.3617 27.8695 26.8062 28.1134 26.1286C28.3055 25.5949 28.3561 25.0118 28.2283 24.8002C28.1408 24.6563 27.9899 24.5839 27.799 24.4922Z" fill="white"/>
<path d="M23.1775 13C17.7609 13 13.3541 17.3736 13.3541 22.7495C13.3541 24.4883 13.8195 26.1903 14.701 27.6799L13.0138 32.6569C12.9823 32.7497 13.0057 32.8523 13.0743 32.9221C13.1239 32.9727 13.1911 33 13.2597 33C13.286 33 13.3125 32.996 13.3384 32.9878L18.528 31.3387C19.9481 32.0975 21.5532 32.498 23.1776 32.498C28.5937 32.4981 33 28.1249 33 22.7495C33 17.3736 28.5937 13 23.1775 13ZM23.1775 30.4671C21.649 30.4671 20.1686 30.0258 18.896 29.1907C18.8532 29.1626 18.8035 29.1482 18.7535 29.1482C18.7271 29.1482 18.7006 29.1522 18.6748 29.1604L16.0751 29.9868L16.9143 27.5108C16.9415 27.4307 16.9279 27.3423 16.8779 27.274C15.9088 25.9499 15.3965 24.3854 15.3965 22.7495C15.3965 18.4935 18.8871 15.0309 23.1775 15.0309C27.4673 15.0309 30.9575 18.4935 30.9575 22.7495C30.9575 27.0051 27.4675 30.4671 23.1775 30.4671Z" fill="white"/>
</svg>
