<svg width="46" height="46" viewBox="0 0 46 46" fill="none" xmlns="http://www.w3.org/2000/svg">
<ellipse cx="23" cy="23" rx="23" ry="23" fill="black"/>
<path fill-rule="evenodd" clip-rule="evenodd" d="M30.6376 18.6376C30.6376 18.7358 30.6354 18.834 30.6322 18.9343C30.6278 19.0456 30.6213 19.1547 30.6125 19.2639C30.3616 22.4236 28.2733 25.6685 26.4086 28.7672L23.0001 34V26.2751C18.7819 26.2751 15.3625 22.8557 15.3625 18.6376C15.3625 14.4194 18.7819 11 23.0001 11C27.2182 11 30.6376 14.4194 30.6376 18.6376Z" fill="white"/>
<path d="M23.0001 21.9107C24.8078 21.9107 26.2733 20.4453 26.2733 18.6375C26.2733 16.8297 24.8078 15.3643 23.0001 15.3643C21.1923 15.3643 19.7268 16.8297 19.7268 18.6375C19.7268 20.4453 21.1923 21.9107 23.0001 21.9107Z" fill="black"/>
</svg>
