<svg width="40" height="40" viewBox="0 0 46 46" fill="none" xmlns="http://www.w3.org/2000/svg">
<ellipse cx="23" cy="23" rx="23" ry="23" fill="#FFCC00"/>
<mask id="mask0_33_2" style="mask-type:alpha" maskUnits="userSpaceOnUse" x="0" y="0" width="46" height="46">
<circle cx="23" cy="23" r="23" fill="black"/>
</mask>
<g mask="url(#mask0_33_2)">
<path fill-rule="evenodd" clip-rule="evenodd" d="M0 8.05L16.0567 10.5589C18.0555 9.29329 20.4333 8.59917 22.9993 8.59917C26.5535 8.59917 29.7481 9.93026 32.073 12.2663C32.3657 12.5618 32.6417 12.8698 32.9023 13.1904L46 15.2365V17.0554L34.232 15.2156C35.1128 16.8993 35.5742 18.7708 35.5771 20.671C35.5771 23.1352 35.0265 25.5925 33.8864 28.0596L33.8529 28.1348L33.3679 29.1718H32.2249C29.861 29.1718 28.2944 29.8785 27.2686 31.1315C26.4643 32.1142 25.9988 33.4411 25.8427 34.8879L25.8371 34.9325L25.8148 35.1638L25.805 35.2642L25.7855 35.4607C25.7256 36.1075 25.6866 36.6552 25.6657 37.1012L46 33.9234V35.7423L0 42.9302V41.1112L20.3566 37.9306L20.3483 37.5222L20.3455 37.4079L20.3427 37.3479L20.3399 37.2573C20.3218 36.7625 20.2758 36.1284 20.2033 35.359L20.1894 35.2126L20.1643 34.9603C20.0193 33.5052 19.5608 32.163 18.7565 31.165C17.7432 29.9036 16.1919 29.1858 13.8461 29.1718H12.6307L12.1471 28.1348C10.9846 25.6427 10.4215 23.1603 10.4215 20.671C10.4215 17.5405 11.6913 14.5131 13.927 12.2663L14.1221 12.0753L0 9.86754V8.05Z" fill="black"/>
<path fill-rule="evenodd" clip-rule="evenodd" d="M22.9993 10.3962C29.422 10.3962 33.7805 15.3387 33.7805 20.6714C33.7805 22.8123 33.3136 25.0396 32.2236 27.3757C25.9054 27.3757 24.3458 31.9 24.0503 34.7489L24.0308 34.9371C23.9318 35.9546 23.8733 36.77 23.8579 37.3832L22.1463 37.6509V37.5951C22.1225 36.6893 22.0611 35.7849 21.9623 34.8841L21.9582 34.834C21.685 31.992 20.1588 27.3757 13.7765 27.3757C12.6851 25.0396 12.2182 22.8123 12.2182 20.6714C12.2182 15.3387 16.578 10.3962 22.9993 10.3962Z" fill="#FFCC00"/>
</g>
</svg>
