<svg width="40" height="40" viewBox="0 0 40 40" fill="none" xmlns="http://www.w3.org/2000/svg">
    <path d="M20 40C31.0457 40 40 31.0457 40 20C40 8.9543 31.0457 0 20 0C8.9543 0 0 8.9543 0 20C0 31.0457 8.9543 40 20 40Z" fill="#FFCC00"/>
    <mask id="mask0_4_21" style="mask-type:luminance" maskUnits="userSpaceOnUse" x="8" y="13" width="24" height="15">
        <path d="M8 13H32V28H8V13Z" fill="white"/>
    </mask>
    <g mask="url(#mask0_4_21)">
        <path fill-rule="evenodd" clip-rule="evenodd" d="M8.00999 15.9886L9.776 17.7406C8.684 18.8274 8.005 20.3317 8 21.99C8 25.3067 10.689 27.9956 14.006 27.9956C15.542 27.9956 16.939 27.4194 18.002 26.4732L17.979 26.5293L19.988 27.991L22.022 26.4962C23.117 27.4672 24.53 28.0022 25.994 27.9999C29.311 27.9999 32 25.311 32 21.9943C32 20.3313 31.325 18.8275 30.234 17.7406L32 15.9887H28.412C26.407 14.3585 23.104 13 20.012 13C16.924 13 13.594 14.3585 11.589 15.9886H8.00999ZM20.002 21.6336C19.834 18.7339 17.604 16.3915 14.76 16.0356C16.194 15.0053 18.021 14.4991 20.012 14.4991C22.003 14.4991 23.83 15.0053 25.263 16.0356C22.41 16.3822 20.176 18.7292 20.002 21.6336ZM30.501 21.9943C30.501 24.4819 28.486 26.5008 25.994 26.5008C23.507 26.5008 21.492 24.4819 21.487 21.9943C21.487 19.5066 23.507 17.4878 25.994 17.4878C28.482 17.4878 30.501 19.5068 30.501 21.9943ZM18.508 21.9943C18.508 24.4819 16.489 26.5008 14.001 26.5008C11.514 26.5008 9.499 24.4819 9.494 21.9943C9.494 19.5066 11.514 17.4878 14.001 17.4878C16.489 17.4878 18.508 19.5068 18.508 21.9943ZM25.994 18.9912C27.657 18.9912 29.002 20.3358 29.002 21.9941C29.002 23.6523 27.657 24.9969 25.999 24.9969C24.34 24.9969 22.996 23.6525 22.996 21.9941C22.991 20.3358 24.336 18.9912 25.994 18.9912ZM25.994 24.1442C27.179 24.1442 28.144 23.1845 28.144 21.9943C28.144 21.7119 28.089 21.4322 27.981 21.1712C27.873 20.9102 27.715 20.6731 27.515 20.4733C27.315 20.2736 27.078 20.1153 26.817 20.0074C26.556 19.8995 26.277 19.8441 25.994 19.8444C24.804 19.8444 23.848 20.8094 23.848 21.9943C23.848 23.1793 24.809 24.1442 25.994 24.1442ZM25.985 23.4838C25.159 23.4838 24.49 22.8148 24.49 21.9895C24.49 21.1642 25.159 20.4951 25.985 20.4951C26.81 20.4951 27.479 21.1642 27.479 21.9895C27.479 22.8148 26.81 23.4838 25.985 23.4838ZM17.004 21.9941C17.004 20.3358 15.66 18.9912 14.001 18.9912C12.343 18.9912 10.998 20.3356 10.998 21.9941C10.998 23.6525 12.343 24.9969 14.001 24.9969C15.66 24.9969 17.004 23.6523 17.004 21.9941ZM16.151 21.9943C16.151 23.1845 15.186 24.1442 14.001 24.1442C12.816 24.1442 11.856 23.1793 11.856 21.9943C11.856 20.8094 12.811 19.8444 14.001 19.8444C14.284 19.8441 14.563 19.8995 14.824 20.0074C15.085 20.1153 15.323 20.2736 15.522 20.4733C15.722 20.6731 15.88 20.9102 15.988 21.1712C16.096 21.4322 16.152 21.7119 16.151 21.9943ZM13.992 23.4838C13.167 23.4838 12.497 22.8148 12.497 21.9895C12.497 21.1642 13.167 20.4951 13.992 20.4951C14.817 20.4951 15.486 21.1642 15.486 21.9895C15.486 22.8148 14.817 23.4838 13.992 23.4838Z" fill="black"/>
    </g>
</svg>
