<svg width="40" height="40" viewBox="0 0 40 40" fill="none" xmlns="http://www.w3.org/2000/svg">
<circle cx="20" cy="20" r="20" fill="#FFCC00"/>
<path d="M24.799 21.4922C24.7601 21.4735 23.302 20.7555 23.0429 20.6623C22.9372 20.6243 22.8239 20.5872 22.7033 20.5872C22.5065 20.5872 22.3411 20.6853 22.2122 20.878C22.0666 21.0945 21.6257 21.6099 21.4894 21.7639C21.4716 21.7842 21.4474 21.8085 21.4328 21.8085C21.4198 21.8085 21.1941 21.7156 21.1258 21.6859C19.5617 21.0065 18.3745 19.3727 18.2117 19.0971C18.1885 19.0575 18.1875 19.0395 18.1873 19.0395C18.193 19.0186 18.2456 18.9658 18.2728 18.9386C18.3522 18.8601 18.4382 18.7565 18.5215 18.6563C18.5609 18.6088 18.6003 18.5613 18.6391 18.5165C18.7599 18.376 18.8137 18.2669 18.876 18.1405L18.9087 18.0749C19.0609 17.7725 18.9309 17.5173 18.8889 17.4349C18.8544 17.3659 18.2387 15.8801 18.1733 15.724C18.0159 15.3473 17.8079 15.1719 17.5189 15.1719C17.492 15.1719 17.5189 15.1719 17.4064 15.1766C17.2694 15.1824 16.5237 15.2806 16.1939 15.4884C15.8442 15.7089 15.2527 16.4116 15.2527 17.6475C15.2527 18.7597 15.9585 19.8099 16.2616 20.2093C16.2691 20.2194 16.2829 20.2399 16.303 20.2692C17.4636 21.9641 18.9104 23.2203 20.3771 23.8062C21.7891 24.3702 22.4577 24.4354 22.8379 24.4354H22.8379C22.9977 24.4354 23.1255 24.4228 23.2383 24.4117L23.3099 24.4049C23.7977 24.3617 24.8696 23.8062 25.1135 23.1286C25.3055 22.5949 25.3562 22.0118 25.2284 21.8002C25.1409 21.6563 24.99 21.5839 24.799 21.4922Z" fill="black"/>
<path d="M20.1775 10C14.7609 10 10.3541 14.3736 10.3541 19.7495C10.3541 21.4883 10.8195 23.1903 11.701 24.6799L10.0138 29.6569C9.98232 29.7497 10.0057 29.8523 10.0743 29.9221C10.1239 29.9727 10.1911 30 10.2597 30C10.286 30 10.3125 29.996 10.3384 29.9878L15.528 28.3387C16.9481 29.0975 18.5532 29.498 20.1776 29.498C25.5937 29.4981 30 25.1249 30 19.7495C30 14.3736 25.5937 10 20.1775 10ZM20.1775 27.4671C18.649 27.4671 17.1686 27.0258 15.896 26.1907C15.8532 26.1626 15.8035 26.1482 15.7535 26.1482C15.7271 26.1482 15.7006 26.1522 15.6748 26.1604L13.0751 26.9868L13.9143 24.5108C13.9415 24.4307 13.9279 24.3423 13.8779 24.274C12.9088 22.9499 12.3965 21.3854 12.3965 19.7495C12.3965 15.4935 15.8871 12.0309 20.1775 12.0309C24.4673 12.0309 27.9575 15.4935 27.9575 19.7495C27.9575 24.0051 24.4675 27.4671 20.1775 27.4671Z" fill="black"/>
</svg>
