<svg width="360" height="428" viewBox="0 0 360 428" fill="none" xmlns="http://www.w3.org/2000/svg">
<g clip-path="url(#clip0_730_11201)">
<path fill-rule="evenodd" clip-rule="evenodd" d="M360 47.2741C353.12 45.3157 342.624 42.1392 329.811 37.4748C324.455 35.5258 324.975 35.6926 321.494 34.3677C307.627 29.096 293.774 23.8225 279.914 25.4885C272.352 26.3956 264.792 29.3678 257.238 32.34C248.166 35.9006 239.094 39.4725 230.021 39.4725C220.949 39.4725 211.877 35.9119 202.805 32.34C195.243 29.3678 187.684 26.3956 180.129 25.4885C170.888 24.3772 161.648 26.3506 152.409 28.3239C145.016 29.9037 137.625 31.4817 130.232 31.4817C119.143 31.4817 108.054 27.9304 96.9657 24.3772C91.4224 22.6025 85.8772 20.8166 80.3338 19.4935C72.0169 17.4958 63.7018 16.4951 55.3849 15.4981C47.068 14.5011 38.7417 13.5004 30.4248 11.5027C20.9628 9.22951 11.3622 6.85887 0.0262363 0.730812L0 0.71582V78.218C37.0701 47.9899 63.3608 47.1279 77.772 49.4892C84.5485 50.6005 100.052 54.5378 127.621 69.4475C144.253 78.4428 160.885 87.4382 177.47 89.4059C196.877 91.6959 216.221 84.5334 235.576 77.369C269.174 64.9293 269.423 66.8052 277.356 65.4184C295.854 62.1894 323.052 63.5781 360 85.283V47.2741Z" fill="#FFCC00"/>
<path fill-rule="evenodd" clip-rule="evenodd" d="M360 85.2885C323.052 63.5779 295.854 62.1893 277.356 65.4238C269.423 66.8106 269.174 64.9347 235.576 77.3745C216.221 84.5389 196.877 91.7014 177.47 89.4113C160.885 87.4436 144.253 78.4483 127.621 69.453C100.073 54.5582 84.5916 50.6303 77.772 49.4946C63.3251 47.0903 37.0532 47.8455 0 77.4738V136.804L11.6339 138.198C26.9747 140.036 57.6581 143.713 88.3415 132.681C99.4994 128.668 110.657 122.713 121.815 116.751C141.341 106.33 160.866 95.9067 180.392 95.9067C198.29 95.9067 216.186 104.666 234.088 113.425C246.873 119.682 259.657 125.94 272.442 129.004C303.125 136.358 333.809 125.325 349.151 119.81L360 115.908V85.2885Z" fill="#FBB506"/>
<path fill-rule="evenodd" clip-rule="evenodd" d="M360 155.355V115.909L349.151 119.81C333.809 125.326 303.125 136.358 272.442 129.004C259.657 125.94 246.873 119.683 234.088 113.426C216.189 104.666 198.294 95.9072 180.392 95.9072C160.866 95.9072 141.341 106.331 121.812 116.756C110.654 122.713 99.4957 128.669 88.3377 132.685C57.6581 143.714 26.9747 140.037 11.6339 138.198L0 136.804V161.873L14.9922 167.221C29.9844 172.572 59.9688 183.27 89.9532 197.536C93.4801 199.222 97.0088 200.941 100.536 202.668C126.993 215.625 153.449 228.588 179.906 220.717C194.898 216.259 209.891 205.114 224.883 193.971C239.875 182.828 254.867 171.682 269.859 167.223C299.844 158.308 329.828 176.14 344.82 185.055L360 194.078V155.355Z" fill="#FFCC00"/>
<path fill-rule="evenodd" clip-rule="evenodd" d="M89.9532 230.519C119.938 230.519 149.922 238.606 179.906 249.389C183.654 250.738 187.402 252.127 191.15 253.512C217.387 263.242 243.623 272.974 269.859 268.255C299.844 262.863 329.828 238.6 344.82 226.464L360 214.189V194.075L344.82 185.052C329.828 176.137 299.844 158.306 269.859 167.221C254.867 171.679 239.875 182.824 224.883 193.968C209.891 205.113 194.898 216.256 179.906 220.716C153.449 228.587 126.993 215.627 100.536 202.67C97.0088 200.942 93.4801 199.214 89.9532 197.537C59.9688 183.27 29.9844 172.571 14.9922 167.221L0 161.872V246.694L14.9922 242.643C29.9844 238.606 59.9688 230.519 89.9532 230.519Z" fill="#FBB506"/>
<path fill-rule="evenodd" clip-rule="evenodd" d="M344.82 226.475C329.828 238.606 299.844 262.869 269.859 268.266C243.623 272.985 217.387 263.253 191.15 253.523C187.402 252.132 183.654 250.744 179.906 249.4C149.922 238.617 119.938 230.531 89.9532 230.531C59.9688 230.531 29.9844 238.606 14.9922 242.642L0 246.694V291.198L14.9922 293.009C29.9844 294.819 59.9688 298.443 89.9532 294.819C103.279 293.209 116.606 290.171 129.932 287.135C146.59 283.335 163.248 279.536 179.906 278.532C209.891 276.721 239.875 283.966 269.859 293.012C299.844 302.058 329.828 312.918 344.82 318.353L360 323.836C359.939 311.603 359.876 299.368 359.813 287.134C359.874 262.824 359.936 238.513 360 214.202L344.82 226.475Z" fill="#FFCC00"/>
<path fill-rule="evenodd" clip-rule="evenodd" d="M344.82 318.353L360 323.837V404.007L344.82 407.911C329.828 411.775 299.844 419.506 269.859 417.573C239.875 415.641 209.891 404.045 179.906 392.45C149.922 380.856 119.938 369.259 89.9532 375.056C59.9688 380.852 29.9844 404.043 14.9922 415.639L0 427.234V291.199L14.9922 293.009C29.9844 294.819 59.9688 298.444 89.9532 294.819C103.279 293.209 116.606 290.172 129.932 287.136C146.59 283.335 163.248 279.537 179.906 278.532C209.891 276.722 239.875 283.967 269.859 293.013C299.844 302.059 329.828 312.919 344.82 318.353Z" fill="#FBB506"/>
</g>
<defs>
<clipPath id="clip0_730_11201">
<rect width="360" height="426.518" fill="white" transform="translate(0 0.71582)"/>
</clipPath>
</defs>
</svg>
