<svg xmlns="http://www.w3.org/2000/svg" viewBox="0 0 1921 1724.21"><defs><style>.cls-1{fill:#fc0;}.cls-1,.cls-2{fill-rule:evenodd;}.cls-2{fill:#fbb506;}</style></defs><g id="Слой_2" data-name="Слой 2"><g id="Слой_1-2" data-name="Слой 1"><path class="cls-1" d="M1759.91,196.15c-28.58-10.4-25.81-9.51-44.38-16.58-74-28.13-147.92-56.27-221.88-47.38-40.35,4.84-80.69,20.7-121,36.56-48.41,19-96.82,38.06-145.23,38.06s-96.82-19-145.23-38.06c-40.35-15.86-80.69-31.72-121-36.56-49.31-5.93-98.62,4.6-147.92,15.13-39.45,8.43-78.89,16.85-118.34,16.85-59.17,0-118.34-18.95-177.51-37.91-29.58-9.47-59.17-19-88.75-26.06-44.38-10.66-88.75-16-133.13-21.32S206.73,68.22,162.35,57.56C111.86,45.43,60.63,32.78.14.08L0,0V409.56c196.14-156.83,335.64-162,413.12-149.6l1.88.3c36.16,5.93,118.89,26.94,266,106.5,88.75,48,177.5,96,266,106.5,103.56,12.22,206.78-26,310.06-64.23,179.28-66.38,180.61-56.37,222.94-63.77,98.71-17.23,243.84-9.82,441,106V248.44C1884.29,238,1828.28,221,1759.91,196.15Z"/><path class="cls-2" d="M1921,451.29c-197.16-115.85-342.29-123.26-441-106-42.33,7.4-43.66-2.61-222.94,63.77-103.28,38.23-206.5,76.45-310.06,64.23-88.5-10.5-177.25-58.5-266-106.5-147-79.48-229.61-100.44-266-106.5-77.09-12.83-217.28-8.8-415,149.3V726.18l62.08,7.44c81.86,9.81,245.59,29.43,409.32-29.44,59.54-21.41,119.08-53.19,178.62-85C754.21,563.57,858.4,508,962.59,508c95.51,0,191,46.74,286.53,93.48,68.22,33.39,136.44,66.78,204.66,83.13,163.73,39.24,327.46-19.63,409.33-49.06L1921,614.68Z"/><path class="cls-1" d="M1921,825.17V614.68l-57.89,20.82c-81.87,29.43-245.6,88.3-409.33,49.06-68.22-16.35-136.44-49.74-204.66-83.13-95.51-46.74-191-93.48-286.53-93.48C858.4,508,754.21,563.57,650,619.2c-59.54,31.79-119.08,63.57-178.62,85-163.71,58.85-327.44,39.23-409.3,29.42L0,726.18V860l80,28.54c80,28.55,240,85.64,400,161.76q28.23,13.5,56.47,27.39C677.65,1146.78,818.82,1216,960,1174c80-23.79,160-83.26,240-142.72s160-118.94,240-142.73c160-47.57,320,47.58,400,95.15l81,48.15Z"/><path class="cls-2" d="M480,1226.26c160,0,320,43.15,480,100.69,20,7.2,40,14.61,60,22,140,51.92,280,103.85,420,78.67,160-28.77,320-158.24,400-223l81-65.5V1031.79l-81-48.15c-80-47.57-240-142.72-400-95.15-80,23.79-160,83.26-240,142.73S1040,1150.15,960,1174c-141.18,42-282.35-27.16-423.53-96.3-18.82-9.22-37.65-18.44-56.47-27.39C320,974.13,160,917,80,888.49L0,860v452.62L80,1291C160,1269.41,320,1226.26,480,1226.26Z"/><path class="cls-1" d="M1840,1204.68c-80,64.73-240,194.2-400,223-140,25.18-280-26.75-420-78.67-20-7.42-40-14.83-60-22-160-57.54-320-100.69-480-100.69S160,1269.41,80,1291L0,1312.57v237.48l80,9.66c80,9.66,240,29,400,9.66,71.11-8.59,142.22-24.8,213.33-41,88.89-20.28,177.78-40.55,266.67-45.91,160-9.66,320,29,480,77.27S1760,1666,1840,1695l81,29.26v-585Z"/></g></g></svg>