<svg width="312" height="301" viewBox="0 0 312 301" fill="none" xmlns="http://www.w3.org/2000/svg">
<path d="M105.24 20.9663C110.201 9.00046 115.895 -1.89554 127.106 -8.66028C138.411 -15.4963 150.973 -16.3412 163.739 -15.7926C185.324 -14.8051 204.611 -7.45877 221.841 5.3849C228.274 10.1745 234.232 15.4579 238.901 22.0471C239.192 22.5451 239.581 22.9792 240.045 23.3233C240.51 23.6675 241.039 23.9146 241.602 24.0497C272.309 31.5386 292.825 50.5435 304.4 79.4953C310.463 94.5994 313.164 110.312 311.533 126.514C309.719 144.498 303.347 160.771 291.204 174.487C289.815 176.061 289.231 177.51 289.49 179.584C291.221 193.261 291.055 206.901 286.42 220.008C279.017 240.966 264.245 254.067 242.153 257.864C228.147 260.289 214.995 256.306 202.632 249.777C198.773 247.725 195.047 245.388 190.957 242.963C187.353 248.899 183.764 254.857 179.426 260.322C163.221 280.709 142.727 294.529 116.871 299.187C92.1272 303.642 69.1862 298.057 48.7312 283.622C23.0452 265.517 7.20374 240.45 1.48228 209.94C-3.26906 184.626 3.46107 161.479 20.8239 141.909C24.6456 137.633 29.261 134.133 34.4165 131.6C35.2283 131.255 35.9377 130.709 36.4771 130.013C37.0166 129.318 37.3679 128.497 37.4977 127.628C38.0489 124.714 38.4954 121.785 39.2285 118.921C39.923 116.177 40.9152 113.527 41.8632 110.559C34.9288 106.202 28.7209 100.793 23.4642 94.528C7.42423 75.3859 4.36506 45.496 17.0482 26.0851C25.7075 12.8354 38.545 5.95005 54.1164 3.9914C72.3887 1.6926 88.0263 8.11718 102.313 18.8047C103.278 19.507 104.204 20.1982 105.24 20.9663ZM144.778 131.243C151.023 111.936 157.141 107.531 173.699 110.159C159.054 92.3005 160.211 73.1914 169.731 53.8792C179.542 33.9746 197.451 25.9479 218.837 22.3873C217.768 20.9882 216.351 19.9788 215.017 18.8595C194.777 1.90107 171.39 -5.46169 145.142 -3.02573C135.336 -2.12047 127.294 2.46066 122.818 11.9796C120.492 16.9173 118.232 21.8222 116.755 27.0892C115.884 30.1725 115.967 32.5755 118.408 35.0938C120.542 37.2884 122.057 40.07 123.672 42.6979C124.588 44.3358 126.071 45.586 127.845 46.2148C132.394 47.806 136.255 50.9053 138.781 54.993C145.919 66.4541 144.293 77.811 137.293 88.4601C124.235 108.271 104.287 116.188 81.6764 118.904C73.2787 119.855 64.7759 119.201 56.6244 116.978C55.522 119.82 54.6125 122.426 54.2652 125.384C56.9882 125.384 59.4906 125.427 61.982 125.384C74.1966 125.142 85.8049 127.858 96.0958 134.25C101.966 137.893 106.668 138.748 113.122 135.561C122.917 130.694 133.737 130.058 144.778 131.243ZM160.713 208.322C153.547 217.1 145.213 223.903 135.143 228.457C133.561 229.17 132.828 230.267 132.21 231.748C129.131 239.375 124.557 246.314 118.756 252.163C105.786 265.04 90.9256 273.423 71.7603 270.23C53.251 267.141 41.1852 252.921 39.7907 234.02C38.8206 220.979 42.1443 208.881 48.169 197.442C49.2714 195.346 49.3485 193.717 48.169 191.577C44.9594 185.64 42.3734 179.389 40.4522 172.923C37.9546 164.802 36.4735 156.404 36.0426 147.922C35.7287 147.991 35.425 148.1 35.1386 148.245C34.6791 148.625 34.2411 149.03 33.8267 149.458C18.4537 165.264 12.5283 184.434 16.4529 205.672C21.772 234.442 36.6544 257.644 61.9435 273.401C78.6448 283.825 96.8124 288.099 116.253 283.321C144.42 276.397 163.221 257.902 176.814 233.318C177.525 232.028 177.607 231.052 176.466 229.872C170.254 223.48 165.338 216.195 160.713 208.316V208.322ZM47.8823 97.0518C48.4335 96.1904 48.7808 95.6033 49.1336 94.9998C60.4938 75.567 75.8888 60.1173 95.9856 49.8522C101.25 47.1639 101.602 43.318 102.176 38.8301C102.236 38.3 102.155 37.7633 101.942 37.274C101.728 36.7848 101.388 36.3602 100.957 36.0429C88.605 25.1305 75.051 16.9997 57.7102 18.2451C46.0524 19.0845 36.3898 23.8796 29.599 33.5412C23.6902 41.9354 22.3728 51.4542 24.0098 61.3462C26.5564 76.6972 35.1716 88.1309 47.8823 97.0463V97.0518ZM282.142 153.929C308.975 116.589 288.867 56.9242 248.464 42.0725C254.186 67.9628 251.397 91.6422 230.738 110.894C242.236 113.703 251.837 119.628 260.69 127.019C269.571 134.473 276.863 143.621 282.137 153.924L282.142 153.929ZM207.73 179.995C207.505 195.055 204.641 209.96 199.27 224.04C198.536 225.977 199.865 226.63 200.973 227.431C207.889 232.479 215.572 236.393 223.732 239.023C234.668 242.485 245.184 241.931 254.875 235.622C272.513 224.1 276.498 206.478 276.57 186.683C252.174 198.918 229.58 195.983 207.725 179.99L207.73 179.995ZM235.009 61.4889C235.351 56.5511 233.907 50.3241 231.901 44.2122C229.696 37.3816 229.613 37.3652 222.233 37.5572C220.452 37.6752 218.68 37.8914 216.924 38.2046C191.679 41.6501 177.729 59.9637 178.958 82.1946C179.476 91.6202 184.078 99.0598 192.335 103.592C200.052 107.8 207.637 105.578 214.554 101.068C228.257 92.0921 235.142 79.413 235.015 61.4724L235.009 61.4889ZM103.19 156.404C88.7924 167.086 77.5535 180.303 68.2216 195.242C67.246 196.8 67.8027 197.81 68.8335 199C72.5183 203.373 76.7278 207.279 81.3678 210.631C92.1272 218.175 103.691 223.25 117.306 221.796C120.034 221.505 121.716 220.776 122.394 217.67C124.334 208.491 124.521 199.031 122.945 189.783C120.768 176.232 114.533 165.023 103.184 156.382L103.19 156.404ZM246.64 174.229C255.26 174.421 262.729 171.382 269.79 166.872C272.094 165.401 272.37 164.129 271.196 161.736C263.181 145.277 250.294 133.997 233.587 126.958C227.964 124.562 221.726 123.986 215.756 125.312C207.444 127.112 202.461 131.973 202.863 138.545C203.076 143.658 204.692 148.614 207.538 152.876C216.935 166.614 230.23 173.269 246.634 174.207L246.64 174.229ZM60.9458 209.759C57.6772 217.38 55.8031 224.945 56.1283 233.082C56.7236 248.054 67.3452 255.461 79.8299 255.938C89.0405 256.289 96.8785 252.284 103.995 246.77C108.572 243.242 112.456 238.905 115.454 233.976C93.417 233.839 76.1975 224.402 60.9403 209.737L60.9458 209.759ZM185.071 212.502C185.43 211.819 185.749 211.116 186.024 210.395C190.935 193.936 192.881 177.219 189.624 160.206C187.342 148.278 183.18 137.163 173.942 128.626C171.439 126.316 168.579 123.43 164.869 124.786C161.606 125.998 161.292 129.822 160.388 132.818C159.837 134.694 160.173 136.247 162.245 137.558C168.105 141.272 171.93 146.72 173.821 153.32C177.051 164.677 175.441 175.815 171.952 186.87C171.588 188.027 170.899 189.064 171.577 190.573C175.116 198.369 179.377 205.694 185.065 212.491L185.071 212.502ZM62.8198 103.718C82.1449 107.317 99.7062 103.559 116.38 92.4048C110.317 89.6616 106.514 85.5249 103.746 80.3841C100.979 75.2433 100.279 69.6417 99.2873 64.0126C87.6845 69.3015 66.4688 92.3444 62.8198 103.718ZM116.49 148.597C125.486 156.98 131.428 166.773 134.454 178.311C137.542 189.911 138.448 201.979 137.127 213.907C143.642 209.156 148.603 204.377 152.688 198.611C154.22 196.416 154.617 194.66 153.597 192.148C151.999 188.219 150.747 184.143 149.535 180.078C145.898 168.15 143.926 155.781 143.675 143.319C134.057 142.161 125.354 144.449 116.507 148.597H116.49ZM58.063 180.895C67.3222 168.369 78.2985 157.197 90.672 147.702C79.1685 141.536 67.3452 138.436 54.4637 139.95C52.0108 140.241 51.3384 141.398 51.2722 143.609C50.8201 156.381 53.142 169.099 58.0795 180.895H58.063ZM112.406 58.422C112.957 67.8038 116.314 75.7152 121.6 79.3581C122.531 73.9979 123.05 68.9339 121.049 63.9578C118.408 57.5167 118.381 57.5277 112.395 58.422H112.406ZM160.559 152.788C161.06 157.539 161.766 162.247 163.59 166.707C164.075 161.747 163.293 157.057 160.548 152.794L160.559 152.788Z" fill="#FBB506"/>
</svg>
