<svg width="151" height="184" viewBox="0 0 151 184" fill="none" xmlns="http://www.w3.org/2000/svg">
<path d="M-48.4702 -87.2238C-43.6843 -98.8263 -38.1911 -109.392 -27.375 -115.951C-16.4684 -122.579 -4.34946 -123.399 7.96626 -122.867C28.7903 -121.909 47.3968 -114.786 64.0198 -102.332C70.2256 -97.6879 75.9739 -92.5649 80.478 -86.1758C80.7589 -85.693 81.1345 -85.272 81.5823 -84.9383C82.0301 -84.6046 82.5408 -84.3651 83.0837 -84.2341C112.708 -76.9725 132.501 -58.5446 143.668 -30.4719C149.517 -15.8265 152.123 -0.59053 150.549 15.1189C148.799 32.5573 142.652 48.3358 130.937 61.6354C129.597 63.1622 129.034 64.5666 129.284 66.5775C130.953 79.8398 130.794 93.0649 126.322 105.774C119.18 126.096 104.929 138.799 83.6154 142.481C70.1033 144.832 57.4153 140.97 45.4877 134.639C41.7654 132.65 38.1706 130.383 34.2249 128.032C30.7472 133.788 27.2854 139.565 23.1004 144.864C7.4664 164.632 -12.3047 178.033 -37.2499 182.55C-61.1209 186.869 -83.2531 181.454 -102.987 167.457C-127.767 149.902 -143.05 125.596 -148.57 96.012C-153.154 71.4664 -146.661 49.0221 -129.91 30.0463C-126.223 25.9007 -121.771 22.5066 -116.797 20.0504C-116.014 19.716 -115.329 19.1864 -114.809 18.5121C-114.289 17.8378 -113.95 17.0414 -113.824 16.1988C-113.293 13.374 -112.862 10.5332 -112.155 7.75627C-111.485 5.09636 -110.527 2.5269 -109.613 -0.351128C-116.303 -4.57616 -122.292 -9.82096 -127.363 -15.8957C-142.838 -34.4565 -145.789 -63.4389 -133.553 -82.2604C-125.199 -95.1078 -112.814 -101.784 -97.7915 -103.683C-80.1635 -105.912 -65.0772 -99.6828 -51.2938 -89.3198C-50.3633 -88.6389 -49.4699 -87.9686 -48.4702 -87.2238ZM-10.3265 19.7046C-4.30159 0.984131 1.60103 -3.28772 17.5753 -0.739525C3.44626 -18.0555 4.56296 -36.5844 13.7466 -55.3102C23.212 -74.6105 40.4891 -82.3934 61.1217 -85.846C60.0901 -87.2026 58.7234 -88.1814 57.4366 -89.2666C37.9101 -105.71 15.3472 -112.849 -9.97554 -110.487C-19.4357 -109.61 -27.1942 -105.168 -31.5121 -95.9377C-33.7562 -91.1498 -35.9364 -86.3939 -37.3615 -81.2869C-38.2017 -78.2971 -38.122 -75.9671 -35.7662 -73.5253C-33.7083 -71.3973 -32.2459 -68.7002 -30.6879 -66.152C-29.8047 -64.5638 -28.3738 -63.3517 -26.6624 -62.742C-22.274 -61.199 -18.5492 -58.1939 -16.1121 -54.2303C-9.22575 -43.1172 -10.7945 -32.1051 -17.5479 -21.7794C-30.1455 -2.5695 -49.3901 5.10699 -71.2032 7.7403C-79.3048 8.66203 -87.5079 8.02827 -95.372 5.87303C-96.4356 8.62871 -97.3129 11.1556 -97.648 14.023C-95.021 14.023 -92.6068 14.0655 -90.2032 14.023C-78.4193 13.7889 -67.2203 16.4222 -57.2922 22.6198C-51.6289 26.1522 -47.0929 26.9821 -40.8659 23.8913C-31.4164 19.1726 -20.9778 18.5555 -10.3265 19.7046ZM5.04688 94.4427C-1.8661 102.954 -9.90642 109.551 -19.6218 113.966C-21.148 114.658 -21.8552 115.722 -22.4508 117.158C-25.4221 124.553 -29.8346 131.282 -35.4312 136.953C-47.9437 149.439 -62.2801 157.568 -80.7697 154.472C-98.6264 151.476 -110.267 137.688 -111.612 119.361C-112.548 106.716 -109.342 94.9854 -103.529 83.8935C-102.466 81.8614 -102.391 80.2814 -103.529 78.2066C-106.626 72.4495 -109.121 66.3883 -110.974 60.1192C-113.384 52.2443 -114.812 44.102 -115.228 35.8768C-115.531 35.9443 -115.824 36.0498 -116.1 36.1907C-116.544 36.5588 -116.966 36.9513 -117.366 37.3663C-132.197 52.6927 -137.913 71.2803 -134.127 91.8733C-128.996 119.77 -114.638 142.268 -90.2405 157.546C-74.1279 167.654 -56.6009 171.798 -37.8455 167.165C-10.6722 160.451 7.46642 142.518 20.5798 118.68C21.2658 117.43 21.3455 116.483 20.2448 115.339C14.2518 109.141 9.50839 102.077 5.04688 94.4374V94.4427ZM-103.806 -13.4485C-103.274 -14.2837 -102.939 -14.853 -102.599 -15.4382C-91.639 -34.281 -76.7867 -49.2616 -57.3985 -59.2149C-52.3201 -61.8217 -51.9798 -65.5508 -51.4268 -69.9024C-51.3683 -70.4165 -51.4462 -70.9369 -51.6525 -71.4112C-51.8588 -71.8856 -52.1863 -72.2973 -52.602 -72.605C-64.5189 -83.1861 -77.595 -91.07 -94.3244 -89.8624C-105.571 -89.0485 -114.893 -84.399 -121.445 -75.0308C-127.145 -66.8914 -128.416 -57.6616 -126.837 -48.0699C-124.38 -33.1851 -116.068 -22.0985 -103.806 -13.4538V-13.4485ZM122.195 41.702C148.082 5.49533 128.683 -52.3577 89.7042 -66.7585C95.2239 -41.6543 92.5332 -18.6939 72.6025 -0.0266266C83.6952 2.69712 92.9586 8.44255 101.499 15.6083C110.067 22.8363 117.102 31.7066 122.19 41.6967L122.195 41.702ZM50.4066 66.9765C50.1888 81.5789 47.4265 96.0313 42.244 109.684C41.5367 111.562 42.8183 112.195 43.8871 112.972C50.5594 117.867 57.9721 121.662 65.8438 124.212C76.394 127.569 86.5402 127.032 95.8886 120.914C112.905 109.743 116.75 92.6553 116.819 73.4614C93.283 85.3246 71.4858 82.4784 50.4013 66.9712L50.4066 66.9765ZM76.7237 -47.9316C77.0534 -52.7195 75.6602 -58.7575 73.7246 -64.6837C71.5975 -71.3069 71.5177 -71.3229 64.3974 -71.1367C62.6801 -71.0223 60.9705 -70.8127 59.2765 -70.5089C34.9215 -67.1681 21.4625 -49.4105 22.6483 -27.8546C23.1482 -18.7152 27.5885 -11.5015 35.5543 -7.10734C42.9991 -3.02703 50.3162 -5.18155 56.9899 -9.55444C70.2096 -18.2577 76.8514 -30.5518 76.7291 -47.9476L76.7237 -47.9316ZM-50.4483 44.1013C-64.3381 54.459 -75.1808 67.2744 -84.1836 81.7603C-85.1248 83.2711 -84.5878 84.25 -83.5934 85.4044C-80.0385 89.644 -75.9774 93.4315 -71.501 96.6823C-61.1209 103.997 -49.9644 108.918 -36.8298 107.508C-34.1975 107.226 -32.5756 106.519 -31.9216 103.508C-30.05 94.6074 -29.8696 85.4341 -31.3898 76.467C-33.4903 63.3271 -39.5046 52.4587 -50.4536 44.08L-50.4483 44.1013ZM87.944 61.3854C96.2609 61.5715 103.466 58.6243 110.278 54.2515C112.501 52.8257 112.767 51.5916 111.634 49.2721C103.902 33.3127 91.4697 22.3751 75.3518 15.5498C69.9268 13.2261 63.9087 12.6678 58.1491 13.9538C50.1301 15.6987 45.3229 20.4121 45.7111 26.7853C45.916 31.7424 47.4756 36.5485 50.2205 40.6807C59.2871 54.0015 72.1133 60.4544 87.9387 61.3641L87.944 61.3854ZM-91.2029 95.8365C-94.3563 103.226 -96.1643 110.562 -95.8506 118.451C-95.2763 132.969 -85.0291 140.151 -72.9846 140.613C-64.0988 140.954 -56.5371 137.07 -49.672 131.724C-45.2562 128.303 -41.5085 124.098 -38.6165 119.318C-59.8765 119.185 -76.489 110.035 -91.2083 95.8152L-91.2029 95.8365ZM28.5457 98.4964C28.8926 97.8344 29.1998 97.1523 29.4656 96.4536C34.2036 80.4942 36.0808 64.2847 32.938 47.7879C30.7365 36.2226 26.7217 25.4447 17.8093 17.167C15.3951 14.9274 12.6352 12.1292 9.05638 13.4431C5.90833 14.6188 5.60521 18.3267 4.73312 21.2314C4.20135 23.0507 4.52574 24.5563 6.52519 25.8277C12.1779 29.4292 15.8683 34.7118 17.6923 41.1115C20.8084 52.1236 19.2557 62.9228 15.8896 73.6422C15.5386 74.7647 14.8739 75.7702 15.528 77.2331C18.9419 84.7926 23.0525 91.8945 28.5403 98.4858L28.5457 98.4964ZM-89.395 -6.98499C-70.7512 -3.49519 -53.8091 -7.13926 -37.7231 -17.9545C-43.5726 -20.6144 -47.2418 -24.6255 -49.9113 -29.6101C-52.5807 -34.5948 -53.2561 -40.0264 -54.2132 -45.4845C-65.4069 -40.3562 -85.8747 -18.013 -89.395 -6.98499ZM-37.6168 36.5312C-28.9384 44.6599 -23.2059 54.1557 -20.2865 65.3433C-17.3073 76.5909 -16.4329 88.2926 -17.7074 99.8583C-11.422 95.2514 -6.63605 90.6178 -2.69565 85.0267C-1.21735 82.8987 -0.834473 81.1964 -1.81824 78.7599C-3.36037 74.9509 -4.56747 70.9983 -5.73737 67.0563C-9.24625 55.4908 -11.1483 43.4975 -11.39 31.4135C-20.6694 30.291 -29.066 32.5094 -37.6008 36.5312H-37.6168ZM-93.9841 67.849C-85.0513 55.7037 -74.462 44.8701 -62.5248 35.664C-73.6227 29.6846 -85.0291 26.6789 -97.4565 28.1471C-99.8229 28.4291 -100.472 29.5516 -100.535 31.6955C-100.972 44.0789 -98.7316 56.4108 -93.9681 67.849H-93.9841ZM-41.5572 -50.9054C-41.0254 -41.8085 -37.787 -34.1373 -32.6873 -30.6049C-31.7886 -35.8024 -31.2888 -40.7126 -33.2191 -45.5377C-35.7663 -51.7832 -35.7928 -51.7725 -41.5678 -50.9054H-41.5572ZM4.89798 40.5955C5.38188 45.2025 6.06255 49.7669 7.82269 54.0919C8.29065 49.2828 7.53554 44.7343 4.88733 40.6008L4.89798 40.5955Z" fill="#FBB506"/>
</svg>
