<svg width="336" height="284" viewBox="0 0 336 284" fill="none" xmlns="http://www.w3.org/2000/svg">
<g clip-path="url(#clip0_391_4079)">
<path d="M268.19 378.56C262.339 376.983 257.154 373.56 253.401 368.798C234.181 345.644 215.988 321.662 197.275 298.114C167.692 260.896 138.608 223.308 111.71 184.079C102.341 170.404 93.7146 156.242 85.52 141.841C83.9091 139.302 82.7609 136.496 82.1291 133.555C81.581 130.2 82.2071 127.056 85.2623 125.186C86.5582 124.407 88.0551 124.028 89.5644 124.099C91.0737 124.17 92.5281 124.686 93.7442 125.583C100.95 130.327 107.281 136.284 112.459 143.189C132.312 168.62 150.156 195.473 169.254 221.388C200.742 264.199 232.32 306.969 263.989 349.698C268.909 356.373 273.752 363.121 274.224 371.899C274.548 378.522 272.749 379.98 268.19 378.56Z" fill="#FBB506"/>
<path d="M298.086 341.146C292.365 338.118 287.3 333.987 283.182 328.991C260.919 302.982 242.046 274.557 222.199 246.742C197.936 212.848 172.948 179.475 148.35 145.823C139.001 133.019 130.227 119.813 122.026 106.205C120.303 103.538 118.958 100.645 118.029 97.6079C117.222 94.601 117.595 91.8755 120.247 90.0185C122.666 88.3794 125.248 88.8034 127.656 90.4567C132.954 94.2315 137.614 98.8303 141.46 104.079C185.733 161.867 229.836 219.85 270.373 280.374C278.205 292.071 286.692 303.336 294.79 314.839C299.378 321.385 303.197 328.327 303.806 336.527C304.131 341.095 302.448 342.492 298.086 341.146Z" fill="#FBB506"/>
<path d="M166.605 65.4221C169.823 66.4151 171.733 69.0592 173.721 71.493C189.793 91.3311 203.661 112.778 219.028 133.157C252.034 177.043 283.599 222.029 316.394 266.016C321.124 272.371 325.686 278.867 330.159 285.432C333.75 290.485 335.846 296.451 336.205 302.645C336.423 306.849 334.761 308.129 330.927 306.367C324.89 303.622 320.285 299.14 316.262 293.885C289.253 258.496 262.174 223.155 235.632 187.413C217.684 163.259 198.316 140.184 181.228 115.385C173.736 104.51 166.283 93.5919 160.264 81.7784C158.76 79.1848 157.773 76.3233 157.357 73.3523C156.801 67.3892 161.255 63.6197 166.605 65.4221Z" fill="#FBB506"/>
<path d="M200.866 46.3869C204.781 48.4877 208.285 51.2787 211.21 54.6257C223.005 67.7109 233.249 82.0277 243.751 96.1344C275.201 138.368 303.807 182.593 334.602 225.3C339.946 232.366 343.596 240.569 345.267 249.276C345.606 251.256 346.502 253.615 344.351 255.143C342.199 256.672 340.699 254.844 339.041 254.015C333.394 251.124 328.48 246.981 324.675 241.901C291.957 199.359 258.232 157.582 228.486 112.812C217.477 96.246 205.146 80.5269 196.147 62.6643C194.41 59.3704 192.907 55.9834 193.002 52.1515C192.964 51.1886 193.163 50.2309 193.581 49.3626C194 48.4943 194.625 47.7423 195.402 47.1727C196.179 46.6032 197.084 46.2336 198.037 46.0966C198.99 45.9595 199.961 46.0592 200.866 46.3869Z" fill="#FBB506"/>
<path d="M208.845 385.772C202.748 382.393 197.308 377.945 192.783 372.639C177.091 354.518 163.359 334.905 149.406 315.473C129.589 287.874 109.973 260.13 90.5574 232.241C81.9345 219.549 74.162 206.298 67.2914 192.574C65.7657 189.791 64.8378 186.72 64.5671 183.556C64.2598 178.662 67.4542 176.297 72.0003 178.072C75.6821 179.525 78.4151 182.313 81.1424 185.03C91.9463 196.017 100.065 209.057 108.839 221.583C139.84 265.852 170.757 310.183 201.592 354.576C207.153 362.566 212.092 370.875 214.397 380.494C214.838 382.368 215.289 384.341 213.567 385.906C212.233 387.107 210.865 386.409 208.845 385.772Z" fill="#FBB506"/>
<path d="M147.237 371.272C141.86 368.364 137.122 364.403 133.305 359.624C121.688 344.58 110.533 329.155 98.9004 314.161C80.9343 290.87 63.3458 267.338 47.7111 242.38C43.1165 235.265 39.1895 227.738 35.9803 219.896C34.4818 216.097 33.5205 212.119 37.5674 209.354C41.9191 206.45 45.3687 209.279 48.1082 212.359C56.5527 222.042 64.3961 232.236 71.5937 242.882C92.2042 272.505 114.711 300.755 134.81 330.743C142.168 341.743 149.506 352.763 151.969 366.154C152.809 371.061 151.613 372.526 147.237 371.272Z" fill="#FBB506"/>
<path d="M337.316 181.39C331.643 178.987 326.602 175.303 322.588 170.626C296.979 141.006 273.648 109.716 253.966 75.7884C252.312 73.0758 251.096 70.1179 250.365 67.024C250.03 65.9192 250.042 64.7373 250.401 63.6391C250.759 62.5408 251.447 61.5795 252.37 60.8855C254.209 59.3847 256.302 59.741 258.367 60.5437C260.435 61.5185 262.317 62.8458 263.93 64.4664C276.93 75.5654 286.5 89.481 295.95 103.47C308.228 121.683 320.267 140.18 332.415 158.545C335.441 163.312 337.595 168.581 338.778 174.105C339.161 175.345 339.228 176.661 338.972 177.933C338.717 179.206 338.147 180.394 337.316 181.39Z" fill="#FBB506"/>
<path d="M21.0805 268.9C22.6372 263.23 29.1734 261.813 33.6869 266.46C39.7115 272.635 44.7404 279.717 49.7376 286.678C57.3336 297.13 63.7409 308.222 66.8079 320.903C67.2073 322.599 68.6439 324.724 66.4617 326.175C64.2796 327.625 62.6074 325.95 60.8541 324.761C48.6249 316.52 40.1054 304.956 32.3501 292.745C28.8707 287.244 25.6499 281.576 22.4077 275.887C21.7252 274.874 21.2559 273.732 21.0277 272.531C20.7996 271.33 20.8174 270.094 21.0805 268.9Z" fill="#FBB506"/>
<path d="M336.454 117.968C332.936 116.793 329.779 114.732 327.288 111.982C317.376 102.029 310.153 90.1469 303.76 77.8044C302.656 75.779 302.176 73.4719 302.378 71.1727C303 65.1867 307.896 62.6156 312.938 65.9503C320.075 70.6621 325.075 77.5692 330.538 83.9572C334.947 89.4386 338.903 95.271 342.366 101.396C344.267 104.589 345.217 108.26 345.104 111.977C345.068 118.295 342.754 119.994 336.454 117.968Z" fill="#FBB506"/>
</g>
<defs>
<clipPath id="clip0_391_4079">
<rect width="341" height="315" fill="white" transform="translate(0 325.842) rotate(-72.8522)"/>
</clipPath>
</defs>
</svg>
