<svg width="47" height="46" viewBox="0 0 47 46" fill="none" xmlns="http://www.w3.org/2000/svg">
<ellipse cx="23.3734" cy="23" rx="23.1156" ry="23" fill="black"/>
<path fill-rule="evenodd" clip-rule="evenodd" d="M35.4749 17.1815C35.6618 16.5459 35.4749 16.1011 34.602 16.1011H31.6935C30.9454 16.1011 30.613 16.5037 30.426 16.9485C30.426 16.9485 28.9509 20.6344 26.8524 23.0078C26.1668 23.7069 25.8759 23.9186 25.502 23.9186C25.315 23.9186 25.0449 23.7069 25.0449 23.0713V17.1815C25.0449 16.4189 24.8371 16.1011 24.2138 16.1011H19.643C19.1859 16.1011 18.8949 16.4605 18.8949 16.7791C18.8949 17.4992 19.9337 17.6691 20.0585 19.66V24.0247C20.0585 24.9781 19.8923 25.1476 19.5182 25.1476C18.5417 25.1459 16.1317 21.4607 14.7182 17.2231C14.4272 16.4391 14.1571 16.1002 13.4087 16.1002H10.5011C9.6701 16.1002 9.50391 16.5028 9.50391 16.9477C9.50391 17.7314 10.4803 21.6293 14.0955 26.7769C16.5057 30.2936 19.8923 32.2002 22.9673 32.2002C24.8163 32.2002 25.0449 31.7764 25.0449 31.0561V28.3869C25.0449 27.5397 25.2111 27.3702 25.8136 27.3702C26.2501 27.3702 26.9772 27.5819 28.7011 29.2767C30.6748 31.2892 31.0074 32.2002 32.109 32.2002H35.0178C35.8488 32.2002 36.2644 31.7764 36.015 30.9507C35.7449 30.1244 34.81 28.9169 33.564 27.476C32.8784 26.6498 31.8604 25.7814 31.5694 25.3364C31.133 24.7644 31.2579 24.5102 31.5694 24.0229C31.5694 24.0018 35.1224 18.9176 35.4756 17.1805L35.4749 17.1815Z" fill="#FFCC00"/>
</svg>
