<svg width="221" height="95" viewBox="0 0 221 95" fill="none" xmlns="http://www.w3.org/2000/svg">
<path fill-rule="evenodd" clip-rule="evenodd" d="M203.21 43.8554C202.321 43.5244 201.56 42.9171 201.04 42.1223C200.52 41.3276 200.268 40.3872 200.321 39.4388C200.137 31.8956 206.785 35.073 203.21 43.8554ZM19.5854 32.0863C19.5854 31.0123 20.1632 23.9839 20.6077 23.2721C21.0522 22.5604 22.5697 22.3062 25.6874 21.2068C25.4271 22.141 20.6712 31.133 19.5981 32.0863H19.5854ZM20.6268 11.3505C18.8806 7.77911 17.4519 4.81141 12.004 6.26667C4.30821 8.32562 -0.942915 19.6118 2.70812 23.8695C5.5337 27.1931 9.83874 25.3184 13.9342 25.0833C15.9661 44.7832 8.07354 55.5355 10.2007 59.7043C11.515 62.2843 16.2138 63.9556 19.2616 63.9048C21.0395 63.1422 24.7667 48.6977 26.5827 44.0778C28.0241 40.3984 36.2405 17.6608 39.3264 16.1166C44.9204 13.3841 57.8355 14.2483 64.2804 15.4303C82.3324 18.7412 77.6718 9.39324 68.7251 3.85185C64.1788 1.04302 57.9689 -0.247007 51.4605 0.0389596C42.7171 0.420248 26.9573 10.2067 20.6522 11.306L20.6268 11.3505ZM8.05451 61.0197C9.54032 64.5276 7.94021 66.4213 10.861 70.285C17.2107 78.667 30.3544 75.6866 36.7357 68.5819C43.1171 61.4773 47.4539 46.9375 40.5074 41.485C38.4311 39.8582 35.6246 41.2817 32.8307 40.4365C29.4908 39.4324 29.9607 36.6681 32.6402 35.4988C38.0565 33.1412 52.0193 38.4474 57.2196 47.0836C60.3309 52.2437 59.5182 59.5136 57.3974 65.1059C55.3782 70.4248 51.4415 74.2886 47.6 77.18C36.1706 85.867 10.3531 89.2986 1.80646 72.1533C-3.74311 61.0261 4.98129 59.8822 8.05451 60.9943V61.0197ZM88.3963 45.7682C81.3355 65.735 66.852 64.9406 71.4936 51.4875C77.5765 33.8275 88.536 36.649 83.6658 44.0397C82.98 45.0818 81.7101 46.6261 84.0722 47.1408C85.8183 47.5221 87.2152 46.2829 88.3963 45.7745V45.7682ZM94.0665 89.3494C92.6442 86.3309 92.6378 81.6093 93.5268 76.1314C84.8087 74.8605 84.6373 69.1412 83.6087 65.3283C80.4338 68.6137 73.3667 76.8623 64.9408 72.0262C54.883 66.2561 66.9536 43.3661 76.1605 35.1683C82.0593 29.9002 92.3648 29.7286 91.025 41.466C94.7141 40.7352 97.0064 42.2285 98.435 44.7959C99.978 47.5729 98.543 49.7844 97.4826 52.4661C96.3816 55.1147 95.5498 57.8675 94.9999 60.6829C94.5872 62.8817 94.0347 66.5738 95.1523 68.6582C99.5526 51.9069 109.166 32.4358 112.195 31.1648C117.033 30.6882 120.373 33.5924 120.881 38.3458C124.564 34.1516 137.352 29.449 139.581 38.9431C143.295 54.8301 127.688 79.1563 115.058 70.5583C108.074 65.8176 113.122 54.7729 118.906 54.5378C121.846 54.4171 122.976 56.1138 121.446 58.7066C121.04 59.3992 120.506 60.0347 120.036 60.7401C109.49 76.4428 138.254 46.3465 130.869 38.6381C126.85 35.1366 116.9 48.4245 115.357 50.7122C109.058 59.8631 106.385 73.1828 106.245 85.0981C106.188 89.8515 108.29 94.751 102.804 94.9925C98.5874 95.1768 95.2539 91.9168 94.0601 89.3876L94.0665 89.3494ZM169.17 20.6476C167.494 26.1954 162.255 33.9927 159.595 40.0933C158.547 32.601 157.277 26.9643 156.909 24.3334L169.17 20.6476ZM147.657 16.7013C146.26 17.9214 139.352 21.353 140.87 16.4534C141.555 14.2547 146.191 11.5666 147.657 16.7013ZM154.166 14.6169C149.13 5.87267 140.45 8.43366 135.796 15.7353C133.11 19.9295 134.298 24.5558 137.415 26.8435C141.524 29.8621 145.606 27.9683 149.6 26.7164C151.67 32.6195 153.136 38.7174 153.975 44.9166C155.175 54.2328 152.978 56.5078 151.689 64.8008C149.918 76.195 153.118 86.7821 163.455 91.491C170.656 94.7574 167.9 87.8942 167.398 85.4412C159.887 64.1081 173.411 38.5999 182.529 16.9936C197.603 13.9433 203.699 12.9837 207.198 15.5002C209.242 16.9682 209.147 18.6458 210.163 21.0416C216.125 21.8232 218.976 14.1975 218.043 9.53304C214.043 -10.4401 164.338 10.8358 154.166 14.6169ZM200.397 50.7567C198.734 49.6637 194.429 46.3909 194.816 37.2718C191.374 40.4492 186.847 50.0958 186.219 56.4951C185.285 65.9638 195.152 59.1641 200.397 50.7758V50.7567ZM195.705 34.3803C188.72 26.9134 172.935 55.4847 177.596 67.3872C181.209 76.6208 196.568 74.7525 206.029 57.4229C206.956 55.7134 207.229 54.3789 208.182 52.4598C213.192 52.5678 222.748 50.7567 220.722 45.3233C218.183 45.819 215.154 47.0773 210.093 46.5371C210.341 40.7733 211.782 34.7044 207.75 31.0123C202.963 26.6211 198.486 29.8112 195.718 34.3803H195.705Z" fill="black"/>
</svg>
