<svg width="46" height="46" viewBox="0 0 46 46" fill="none" xmlns="http://www.w3.org/2000/svg">
<ellipse cx="23" cy="23" rx="23" ry="23" fill="black"/>
<path d="M30.1139 19.224L30.1139 19.2243C29.9957 20.7132 29.4414 22.2486 28.6672 23.8171C28.0016 25.1655 27.1895 26.5084 26.3786 27.8492C26.247 28.0668 26.1155 28.2843 25.9846 28.5017L23.4999 32.3163V26.2751V25.7751H22.9999C19.0579 25.7751 15.8623 22.5796 15.8623 18.6376C15.8623 14.6956 19.0579 11.5 22.9999 11.5C26.9419 11.5 30.1374 14.6956 30.1374 18.6376C30.1374 18.728 30.1354 18.8199 30.1323 18.9165C30.1282 19.0203 30.1221 19.1221 30.1139 19.224Z" fill="#FFCC00" stroke="#FFCC00"/>
<path d="M22.9998 21.911C24.8076 21.911 26.2731 20.4455 26.2731 18.6377C26.2731 16.83 24.8076 15.3645 22.9998 15.3645C21.192 15.3645 19.7266 16.83 19.7266 18.6377C19.7266 20.4455 21.192 21.911 22.9998 21.911Z" fill="black"/>
</svg>
