<svg width="47" height="46" viewBox="0 0 47 46" fill="none" xmlns="http://www.w3.org/2000/svg">
<ellipse cx="23.1156" cy="23" rx="23.1156" ry="23" fill="black"/>
<path fill-rule="evenodd" clip-rule="evenodd" d="M22.6363 28.4492L27.4143 31.958C28.291 32.4342 28.9292 32.1962 29.1517 31.1487L32.2918 16.42C32.6107 15.1345 31.7977 14.5632 30.9529 14.9439L12.5268 22.0239C11.2674 22.5317 11.2835 23.2301 12.3035 23.5323L17.0293 25.0056L18.6488 30.3241C18.6991 30.4564 18.7323 30.571 18.7608 30.6691L18.7608 30.6691C18.8587 31.0061 18.9003 31.1491 19.3801 31.1495V31.1496C19.8315 31.1496 20.0415 30.9515 20.2915 30.7158L20.3364 30.6734C20.5074 30.5101 21.5132 29.5367 22.6363 28.4492Z" fill="#FFCC00"/>
<path fill-rule="evenodd" clip-rule="evenodd" d="M27.5119 20.7228L18.9079 25.7343C18.5781 25.9268 18.4229 26.3034 18.5293 26.656L19.4596 29.7473C19.5257 29.9663 19.8618 29.944 19.894 29.7177L20.1357 28.0224C20.1814 27.7033 20.3423 27.4091 20.592 27.1894L27.6927 20.9472C27.8256 20.8307 27.6665 20.633 27.5119 20.7228Z" fill="black"/>
</svg>
