<svg width="115" height="44" viewBox="0 0 115 44" fill="none" xmlns="http://www.w3.org/2000/svg">
<g clip-path="url(#clip0_289_10019)">
<path fill-rule="evenodd" clip-rule="evenodd" d="M21.6134 0.147736C27.2738 0.133082 32.7167 2.33556 36.7848 6.28688C36.9531 5.98796 37.1365 5.69783 37.3343 5.41762C39.4323 2.42954 43.4453 0.820576 46.7235 2.92268C48.9131 1.93014 53.1342 -0.399729 57.8403 0.0578863C60.4108 0.306545 63.3352 0.991921 65.6685 4.08866C67.1151 6.00688 67.5189 7.64092 67.0651 10.4953C69.5129 10.9027 70.0061 11.4523 71.5818 13.1971C74.0649 9.18302 75.9715 9.95198 79.2455 11.166C78.413 6.26599 84.1223 1.7964 88.9782 3.31761C91.0596 3.97791 89.228 4.51284 93.4782 2.96656C98.5631 1.11521 108.206 -2.15288 112.486 2.50895C113.668 3.79403 115.01 5.73942 114.359 8.38272C113.751 10.8568 112.161 11.7657 110.821 13.1156C111.029 13.9974 111.143 14.5553 111.301 15.0422C113.252 15.3681 115.991 16.5467 114.644 20.5858C114.07 22.3076 112.469 23.3273 110.972 23.9186C110.219 24.2154 109.68 24.09 109.268 24.7127C108.185 26.3425 108.727 25.7303 107.328 27.4688C106.606 28.3181 105.765 29.0572 104.83 29.6629C101.97 31.533 100.043 31.2948 97.3018 30.7975C97.2726 32.1975 98.5506 34.5274 96.3214 36.5522C93.3096 39.2999 88.7576 36.4247 86.7011 33.5474C85.1671 31.4014 84.907 28.3234 84.8279 27.5231C81.9139 30.7912 79.4162 31.0273 77.2869 30.9793C77.3348 33.1294 77.8218 35.1187 76.4086 36.6984C73.8193 39.5967 69.6294 38.8549 67.2878 35.9859C65.6227 33.936 65.9536 32.0157 65.8496 31.1611C65.7622 31.0608 65.4333 30.7202 65.3042 30.6032C64.455 30.8727 62.0406 32.5193 58.1338 30.5614C56.4478 32.7366 52.539 34.2829 49.6 34.7698C45.5641 35.4384 42.2401 34.5984 39.8028 33.0312C37.8189 36.0504 35.1171 38.5257 31.9413 40.2338C28.7656 41.9419 25.2161 42.8289 21.6134 42.8146C9.67648 42.8146 0 33.2632 0 21.4801C0 9.69705 9.67648 0.147736 21.6134 0.147736Z" fill="#FFCC00"/>
<path fill-rule="evenodd" clip-rule="evenodd" d="M102.57 1.42701C105.996 0.879544 109.347 1.06969 111.464 3.09866C112.713 4.29181 114.101 6.21212 113.115 8.74049C112.59 10.0799 110.617 12.0838 108.885 12.531L108.769 13.1411C109.215 13.4494 109.588 13.853 109.862 14.3229C110.135 14.7929 110.301 15.3176 110.348 15.8596C113.088 16.3674 115.209 17.9826 113.262 20.9373C111.993 22.8618 109.291 23.1439 108.852 23.4051C108.265 23.9567 106.244 28.1191 102.57 29.5087V12.3074C103.109 11.3838 103.998 11.0871 105.13 10.8154C104.964 10.1886 104.046 10.2826 102.57 10.5375V1.42701ZM21.6138 1.15537C24.5474 1.14743 27.4493 1.7649 30.1275 2.96695C32.8056 4.169 35.1991 5.92822 37.1494 8.12825C38.1527 5.25928 40.9917 2.64732 44.2512 3.11329C45.3356 3.26792 45.858 3.74016 46.5949 4.19987C49.6733 2.58254 52.5727 1.20134 56.2588 1.12402C61.1564 1.12402 66.1351 3.72553 66.2496 8.69661C66.2808 10.128 65.6356 11.0327 64.8405 11.5886C62.0722 13.5172 52.0128 9.06228 51.763 13.1474C54.9996 13.674 56.6502 14.5098 59.2811 16.7226C61.8454 13.8975 65.1319 9.91065 69.174 12.3492C71.0473 13.4817 71.2554 15.0489 71.6384 15.2955C72.471 14.4596 73.5533 9.70588 77.9367 11.7808C79.2876 12.4202 78.9088 12.8131 80.526 12.2217C80.3449 11.1769 80.2429 10.2178 80.4677 9.05811C81.0193 6.22048 84.6056 3.9136 87.4571 4.12255C89.1077 4.27509 89.8008 5.08584 90.1817 5.21957C90.9372 5.30943 96.8609 2.34642 102.576 1.43328V10.5438C102.092 10.6274 101.536 10.7319 100.943 10.8321C100.601 11.482 100.414 11.8519 100.018 12.7316C100.915 12.8026 101.742 12.7462 102.329 12.8569C102.394 12.6683 102.477 12.4864 102.576 12.3137V29.517C100.761 30.2045 98.5427 30.215 95.8931 28.7794C95.9888 31.1448 97.2418 33.9177 95.7848 35.5831C92.95 38.8198 87.6007 34.4505 86.5142 30.8063C85.3674 27.7744 85.8065 25.4633 86.1417 23.5451C83.7938 28.1421 81.0984 30.6642 76.2362 29.9496C76.1863 31.3057 76.4194 34.4422 76.0281 35.2843C74.7792 37.9296 70.7621 38.3935 68.1375 35.2968C66.8116 33.7338 66.9406 32.6995 66.9094 30.3299C66.3828 29.9935 65.8104 29.6445 65.5898 29.0511C62.7071 31.5732 58.8398 29.9015 58.0114 29.1388C54.9267 33.4642 45.0047 36.0449 39.5389 31.5586C37.7096 34.6908 35.0939 37.2864 31.9529 39.0864C28.8118 40.8864 25.2554 41.8276 21.6388 41.8162V39.1792C24.9438 39.1942 28.1894 38.2969 31.021 36.5856C33.8526 34.8742 36.1612 32.4146 37.6947 29.4753C37.4699 29.1275 37.2669 28.766 37.087 28.3929C35.936 26.0108 35.8111 23.169 38.3525 21.7063C39.1351 21.257 39.414 21.3636 39.6263 21.0961C39.4182 11.5029 31.4443 3.78822 21.6388 3.78822V1.15537H21.6138ZM21.6138 41.81C10.2305 41.81 1.00781 32.7078 1.00781 21.4827C1.00781 10.2575 10.2347 1.15746 21.6138 1.15537V3.78613C11.6792 3.78613 3.62415 11.7098 3.62415 21.4827C3.62415 31.2556 11.6792 39.1771 21.6138 39.1792V41.81Z" fill="#1A1A18"/>
<path fill-rule="evenodd" clip-rule="evenodd" d="M6.08575 33.8178L6.22728 33.7049L5.74439 33.0989L6.16068 32.7604L6.56655 33.2682L6.70809 33.1554L6.29181 32.6476L6.64773 32.3592L7.11813 32.9464L7.25966 32.8336L6.65397 32.0771L5.45508 33.0446L6.0795 33.8178H6.08575ZM7.95901 36.2458L8.30037 35.8781L8.17548 35.7631L9.10171 34.7664L8.4315 34.1396C8.20244 34.3609 7.96206 34.5702 7.71133 34.7664C7.5804 34.8652 7.41908 34.9148 7.2555 34.9064L7.18681 34.8416L6.84754 35.2094L6.93496 35.293L7.21803 35.1196L8.02146 35.8739L7.86952 36.1685L7.95901 36.2521V36.2458ZM8.01729 35.619L7.44491 35.084C7.58336 35.0708 7.71567 35.0203 7.82788 34.9378C8.00064 34.8207 8.24417 34.5805 8.43982 34.4112L8.81031 34.7602L8.01313 35.6169L8.01729 35.619ZM10.49 37.8214L10.8522 36.1894L10.6586 36.0536L9.25782 36.9563L9.4389 37.0838L9.83228 36.8246L10.4151 37.2426L10.3089 37.7023L10.49 37.8297V37.8214ZM10.4567 37.0566L9.98215 36.7243L10.5899 36.3231L10.6503 36.2709L10.6232 36.3482L10.4546 37.0566H10.4567ZM13.7245 39.4178L13.6413 39.2088C13.7653 39.1155 13.8652 38.9937 13.9327 38.8536L13.7245 38.7638C13.6781 38.8508 13.62 38.9309 13.5518 39.002L13.3603 38.5109C13.4488 38.5021 13.5337 38.4706 13.6066 38.4194C13.6795 38.3681 13.738 38.2989 13.7766 38.2184C13.8681 38.0094 13.7766 37.8611 13.5684 37.7712C13.3603 37.6814 13.1376 37.7002 13.0439 37.9091C13.0249 37.9511 13.0151 37.9967 13.0151 38.0429C13.0151 38.089 13.0249 38.1346 13.0439 38.1766L13.098 38.327C12.8899 38.327 12.6359 38.3647 12.534 38.5945C12.4091 38.8745 12.6568 39.1253 12.9398 39.2506C13.0995 39.3316 13.2834 39.3502 13.456 39.3029L13.5185 39.4721L13.7266 39.422L13.7245 39.4178ZM13.0127 39.0772C12.8378 38.9999 12.6609 38.8473 12.7296 38.6885C12.765 38.6133 12.8587 38.5256 13.1729 38.5214L13.3811 39.1085C13.2577 39.148 13.1237 39.1368 13.0085 39.0772H13.0127ZM13.2396 38.0136C13.2488 37.9894 13.2633 37.9676 13.2819 37.9497C13.3006 37.9319 13.323 37.9183 13.3474 37.9101C13.3719 37.902 13.3979 37.8993 13.4235 37.9024C13.4491 37.9055 13.4737 37.9142 13.4956 37.9279C13.5809 37.9655 13.6246 38.0241 13.5809 38.1244C13.5526 38.1775 13.5111 38.2223 13.4604 38.2545C13.4097 38.2868 13.3515 38.3053 13.2916 38.3082C13.2291 38.1578 13.2 38.0993 13.2396 38.0136ZM16.2097 40.4333C16.3786 40.5026 16.5647 40.518 16.7426 40.4772C16.8055 40.4543 16.862 40.4165 16.9073 40.3671C16.9526 40.3176 16.9853 40.2579 17.0027 40.193C17.0277 40.0999 17.0175 40.0008 16.9741 39.9148C16.9307 39.8288 16.8571 39.7619 16.7675 39.7271C16.8456 39.729 16.9221 39.705 16.9853 39.659C17.0485 39.6129 17.0949 39.5472 17.1172 39.4721C17.1776 39.2632 17.0132 39.0542 16.7446 38.9832L16.2243 38.839L15.808 40.3268L16.2035 40.4375L16.2097 40.4333ZM16.2638 39.5097L16.3866 39.0688L16.5948 39.1273C16.8196 39.1879 16.9486 39.2778 16.9049 39.4387C16.8612 39.5996 16.6968 39.6288 16.4574 39.5641L16.2638 39.5097ZM16.0703 40.2056L16.216 39.6832L16.5094 39.7647C16.7009 39.819 16.8404 39.9485 16.7904 40.1241C16.7405 40.2996 16.5656 40.333 16.3742 40.2912L16.064 40.2056H16.0703ZM19.4859 41.0602L19.5088 40.8805L18.7428 40.7823L18.8094 40.2453L19.4546 40.3268L19.4775 40.1471L18.8323 40.0656L18.8906 39.61L19.6336 39.7041L19.6565 39.5244L18.6991 39.4032L18.5055 40.9369L19.4859 41.0602ZM22.2729 40.8889C22.1491 40.9698 22.0044 41.0127 21.8566 41.0121C21.7092 40.9893 21.5748 40.9143 21.4777 40.8007C21.3806 40.6871 21.3273 40.5423 21.3273 40.3926C21.3273 40.2429 21.3806 40.0981 21.4777 39.9845C21.5748 39.8708 21.7092 39.7958 21.8566 39.773H22.1355L22.1959 39.982H22.3166V39.633C22.1979 39.6205 21.9627 39.6079 21.8712 39.61C21.7667 39.6111 21.6636 39.6329 21.5675 39.674C21.4715 39.7151 21.3844 39.7748 21.3114 39.8497C21.2383 39.9246 21.1807 40.0132 21.1417 40.1105C21.1028 40.2078 21.0833 40.3118 21.0844 40.4166C21.0855 40.5214 21.1071 40.625 21.1481 40.7214C21.1891 40.8179 21.2485 40.9052 21.3232 40.9786C21.3978 41.0519 21.486 41.1098 21.5829 41.1489C21.6798 41.188 21.7834 41.2076 21.8878 41.2065C22.051 41.2084 22.2113 41.1635 22.3499 41.0769L22.2916 40.9056L22.2729 40.8889ZM24.9537 40.9077L24.9308 40.728L24.1628 40.8241L24.0962 40.2871L24.7393 40.2056L24.7185 40.0259L24.0733 40.1074L24.015 39.6518L24.7602 39.5578L24.7373 39.3781L23.7798 39.4993L23.9734 41.033L24.9537 40.9077ZM27.7428 40.2306L27.3265 38.7429L26.444 38.9915C26.5123 39.3027 26.5644 39.6173 26.6001 39.9339C26.6102 40.1418 26.5426 40.3459 26.4107 40.5065L26.5543 40.6151C26.7271 40.4266 26.819 40.1774 26.8103 39.9214C26.7999 39.7124 26.7229 39.376 26.6792 39.1148L27.1683 38.9769L27.5347 40.2891L27.7428 40.2306ZM29.7805 39.4471C30.126 39.2924 30.253 39.0459 30.1198 38.747C29.9866 38.4482 29.7035 38.3876 29.3705 38.5381L29.1623 38.63L28.9417 38.1327L28.744 38.2205L29.3684 39.633L29.7743 39.4512L29.7805 39.4471ZM29.4974 39.3739L29.2393 38.7909L29.4475 38.699C29.6744 38.5987 29.8513 38.6572 29.9262 38.8285C30.0178 39.0375 29.9262 39.1838 29.7181 39.2778L29.5099 39.3739H29.4974ZM32.5946 37.9112L32.4988 37.7587L31.8453 38.1766L31.556 37.7169L32.1055 37.37L32.0097 37.2175L31.4602 37.5664L31.2125 37.1736L31.837 36.7703L31.7412 36.6178L30.9232 37.1339L31.7454 38.442L32.5946 37.9112Z" fill="white" stroke="white" stroke-width="0.22" stroke-miterlimit="22.93"/>
<path fill-rule="evenodd" clip-rule="evenodd" d="M7.43955 9.8004L6.9192 9.3386L7.33548 8.86427L7.20019 8.74308L6.78391 9.2195L6.41342 8.89143L6.90047 8.3377L6.76309 8.21859L6.13867 8.93323L7.29386 9.95502L7.43747 9.79204L7.43955 9.8004ZM9.57924 7.71083C9.73043 7.57083 9.82204 7.37769 9.835 7.17161C9.84797 6.96553 9.7813 6.76236 9.64886 6.60437C9.51642 6.44638 9.32841 6.34573 9.12393 6.32336C8.91946 6.30099 8.71426 6.35862 8.55103 6.48426C8.47047 6.55148 8.40451 6.63457 8.35721 6.7284C8.30992 6.82223 8.28229 6.9248 8.27605 7.02977C8.26981 7.13475 8.28508 7.23989 8.32092 7.3387C8.35676 7.43751 8.41241 7.5279 8.48442 7.60426C8.54731 7.6863 8.6263 7.7545 8.7165 7.80465C8.8067 7.8548 8.90619 7.88583 9.00882 7.89582C9.11145 7.90581 9.21503 7.89454 9.31314 7.86272C9.41126 7.8309 9.50183 7.77921 9.57924 7.71083ZM9.47101 7.57083C9.3867 7.66546 9.27576 7.73216 9.15287 7.7621C9.02997 7.79204 8.90092 7.78382 8.78278 7.73852C8.66465 7.69322 8.563 7.61298 8.49128 7.50841C8.41957 7.40384 8.38117 7.27987 8.38117 7.15292C8.38117 7.02596 8.41957 6.90199 8.49128 6.79743C8.563 6.69286 8.66465 6.61261 8.78278 6.56731C8.90092 6.52201 9.02997 6.51379 9.15287 6.54373C9.27576 6.57368 9.3867 6.64037 9.47101 6.735C9.52909 6.78789 9.57551 6.85239 9.60728 6.92437C9.63905 6.99634 9.65546 7.07419 9.65546 7.15292C9.65546 7.23164 9.63905 7.30949 9.60728 7.38147C9.57551 7.45344 9.52909 7.51794 9.47101 7.57083ZM12.0894 5.91589C12.2322 5.84344 12.3499 5.72968 12.4276 5.5893C12.5052 5.44892 12.5391 5.28838 12.5249 5.12846C12.5107 4.96853 12.449 4.81657 12.3478 4.69222C12.2466 4.56787 12.1106 4.47685 11.9573 4.43093C11.8041 4.38502 11.6406 4.38632 11.4881 4.43467C11.3356 4.48302 11.201 4.57619 11.1018 4.70213C11.0026 4.82808 10.9434 4.98101 10.9317 5.14114C10.92 5.30127 10.9564 5.46124 11.0362 5.60037C11.083 5.69223 11.1478 5.77362 11.2267 5.83962C11.3057 5.90561 11.3971 5.95485 11.4956 5.98435C11.594 6.01384 11.6974 6.02298 11.7995 6.01121C11.9016 5.99945 12.0002 5.96702 12.0894 5.91589ZM12.0103 5.755C11.909 5.83149 11.7868 5.87519 11.6601 5.88029C11.5334 5.88539 11.4082 5.85164 11.3011 5.78353C11.1939 5.71543 11.11 5.6162 11.0604 5.49904C11.0108 5.38187 10.998 5.25233 11.0235 5.12764C11.049 5.00296 11.1118 4.88903 11.2034 4.80102C11.295 4.713 11.4111 4.65508 11.5363 4.63494C11.6616 4.61481 11.7899 4.63341 11.9043 4.68829C12.0187 4.74317 12.1138 4.83172 12.1768 4.94215C12.2225 5.00535 12.2546 5.0774 12.2709 5.15372C12.2873 5.23004 12.2877 5.30895 12.272 5.38542C12.2564 5.46189 12.225 5.53425 12.18 5.59788C12.1349 5.66151 12.0771 5.71502 12.0103 5.755ZM14.3769 4.53678L13.9606 3.43349L14.2811 3.3102C14.3545 3.27621 14.4341 3.25775 14.5149 3.25597C14.5957 3.25419 14.6761 3.26912 14.7509 3.29984C14.8257 3.33056 14.8934 3.37641 14.9498 3.43454C15.0062 3.49266 15.0501 3.56182 15.0787 3.6377C15.1074 3.71359 15.1201 3.79458 15.1162 3.87563C15.1123 3.95668 15.0919 4.03607 15.0561 4.10884C15.0203 4.18161 14.97 4.24621 14.9083 4.29862C14.8466 4.35103 14.7748 4.39014 14.6974 4.41349L14.3769 4.53678ZM14.7536 4.58902C15.2115 4.41349 15.4363 3.99767 15.2698 3.55677C15.2311 3.45891 15.1729 3.37001 15.0988 3.29546C15.0248 3.22092 14.9363 3.16231 14.839 3.1232C14.7416 3.0841 14.6373 3.06532 14.5324 3.06801C14.4276 3.0707 14.3244 3.09481 14.2291 3.13886L13.7025 3.34781L14.2478 4.78962L14.762 4.59738L14.7536 4.58902ZM19.0746 3.31647L18.8894 3.18483C18.942 3.03843 18.9584 2.88139 18.9373 2.72721L18.7291 2.76274C18.7391 2.86112 18.7342 2.96046 18.7146 3.05736L18.2983 2.75438C18.3661 2.69777 18.4184 2.62463 18.4501 2.54196C18.4818 2.45928 18.4919 2.36983 18.4794 2.28214C18.4398 2.05646 18.2712 1.98751 18.0631 2.02512C17.8549 2.06273 17.6634 2.20273 17.7009 2.43049C17.7075 2.47593 17.7237 2.51942 17.7484 2.558C17.7732 2.59658 17.806 2.62935 17.8445 2.65408L17.9715 2.74811C17.7967 2.87139 17.6072 3.03438 17.6468 3.28095C17.6988 3.58394 18.0423 3.65707 18.3461 3.60483C18.5241 3.58411 18.6881 3.49772 18.8061 3.36244L18.9518 3.46901L19.0955 3.31438L19.0746 3.31647ZM18.2941 3.42722C18.1068 3.45856 17.8778 3.42722 17.8445 3.25796C17.832 3.17647 17.8633 3.04901 18.1214 2.87348L18.623 3.24543C18.5415 3.34717 18.4233 3.4125 18.2941 3.42722ZM17.8986 2.41169C17.8938 2.38653 17.8945 2.36061 17.9006 2.33574C17.9068 2.31087 17.9183 2.28767 17.9344 2.26775C17.9505 2.24784 17.9707 2.2317 17.9936 2.22046C18.0166 2.20923 18.0417 2.20318 18.0672 2.20273C18.1567 2.18811 18.2275 2.21318 18.2442 2.32184C18.2496 2.3817 18.2396 2.44195 18.2152 2.49684C18.1908 2.55172 18.1527 2.59939 18.1047 2.63527C17.9715 2.54333 17.9153 2.51199 17.8966 2.42632L17.8986 2.41169ZM22.2696 3.30602L22.2821 2.62065H22.9065V2.43885L22.2821 2.42632V1.93318L23.0168 1.94572V1.76392L22.0656 1.74512L22.0365 3.2914H22.2446L22.2696 3.30602ZM25.7705 3.08662C25.7143 3.39378 25.5457 3.54005 25.2814 3.49199C25.0171 3.44393 24.9109 3.24751 24.965 2.94244L25.1232 2.04602L24.9151 2.0084L24.759 2.8902C24.682 3.32692 24.8568 3.59647 25.2481 3.66752C25.6394 3.73856 25.9121 3.54215 25.987 3.1117L26.1452 2.22781L25.937 2.1902L25.7789 3.08662H25.7705ZM28.7053 4.6726L29.2569 3.2308L29.0696 3.15767L28.8822 3.64244L28.6574 4.24424L28.6241 4.35081V4.25051C28.5305 3.79289 28.416 3.3102 28.3182 2.86512L28.0934 2.77945L27.5252 4.20036L27.7146 4.27349L27.8998 3.78871C27.9789 3.57976 28.0518 3.38334 28.1246 3.18692L28.1579 3.08035L28.1683 3.18065L28.4722 4.56603L28.7053 4.6726Z" fill="white" stroke="white" stroke-width="0.22" stroke-miterlimit="22.93"/>
<path fill-rule="evenodd" clip-rule="evenodd" d="M2.49433 18.2501C2.30786 18.2554 2.12708 18.3158 1.9746 18.4237C1.82212 18.5316 1.70469 18.6822 1.63698 18.8567C1.56928 19.0312 1.5543 19.2219 1.59392 19.4049C1.63354 19.5879 1.726 19.7551 1.85976 19.8857C1.99351 20.0163 2.16261 20.1043 2.34595 20.139C2.52929 20.1736 2.71872 20.1532 2.89058 20.0803C3.06244 20.0075 3.2091 19.8854 3.31225 19.7294C3.41539 19.5733 3.47044 19.3902 3.47051 19.2029C3.46667 18.9467 3.36173 18.7025 3.17872 18.5238C2.9957 18.3452 2.74957 18.2467 2.49433 18.2501Z" fill="white"/>
<path fill-rule="evenodd" clip-rule="evenodd" d="M40.9492 10.525C41.5466 10.362 42.0045 10.1531 42.3542 9.74977C42.2043 9.22738 42.3125 9.34439 41.915 9.02051C41.2323 9.13752 40.9742 9.69544 40.9492 10.525Z" fill="#000003"/>
<path fill-rule="evenodd" clip-rule="evenodd" d="M105.419 18.0581C105.127 17.9492 104.878 17.7495 104.708 17.4882C104.537 17.2269 104.455 16.9177 104.472 16.6058C104.412 14.1255 106.591 15.1703 105.419 18.0581ZM45.2267 14.1882C45.2267 13.8351 45.4162 11.524 45.5619 11.29C45.7076 11.0559 46.205 10.9723 47.227 10.6109C47.1417 10.918 45.5827 13.8748 45.2309 14.1882H45.2267ZM45.5681 7.36993C44.9957 6.1956 44.5274 5.21977 42.7415 5.69828C40.2189 6.3753 38.4976 10.0864 39.6944 11.4864C40.6206 12.5792 42.0318 11.9628 43.3743 11.8855C44.0403 18.3631 41.4532 21.8987 42.1504 23.2694C42.5813 24.1178 44.1215 24.6674 45.1206 24.6507C45.7034 24.3999 46.9252 19.6503 47.5205 18.1312C47.9929 16.9213 50.6863 9.44487 51.6979 8.93711C53.5316 8.03859 57.7652 8.32277 59.8778 8.71143C65.7952 9.8001 64.2675 6.72635 61.3348 4.90425C59.8445 3.98066 57.8089 3.55648 55.6754 3.65051C52.8093 3.77588 47.6433 6.99381 45.5764 7.35531L45.5681 7.36993ZM41.4469 23.702C41.934 24.8554 41.4094 25.4781 42.3669 26.7486C44.4483 29.5047 48.7568 28.5247 50.8486 26.1886C52.9405 23.8524 54.3621 19.0715 52.085 17.2787C51.4044 16.7437 50.4844 17.2118 49.5686 16.9339C48.4738 16.6037 48.6278 15.6948 49.5061 15.3103C51.2816 14.5351 55.8586 16.2798 57.5633 19.1196C58.5832 20.8163 58.3167 23.2068 57.6216 25.0456C56.9597 26.7945 55.6692 28.065 54.4099 29.0158C50.6634 31.8722 42.2004 33.0006 39.3988 27.3629C37.5796 23.7041 40.4395 23.3279 41.4469 23.6936V23.702ZM67.783 18.687C65.4685 25.2524 60.7208 24.9912 62.2423 20.5676C64.2363 14.7607 67.8288 15.6885 66.2323 18.1187C66.0076 18.4614 65.5913 18.9691 66.3656 19.1384C66.9379 19.2637 67.3959 18.8563 67.783 18.6891V18.687ZM69.6417 33.0173C69.1755 32.0247 69.1734 30.4722 69.4648 28.671C66.607 28.2531 66.5508 26.3724 66.2136 25.1187C65.1729 26.199 62.8563 28.9113 60.0943 27.3211C56.7973 25.4238 60.7541 17.8972 63.7721 15.2016C65.7057 13.4694 69.0839 13.413 68.6447 17.2724C69.854 17.0321 70.6054 17.5231 71.0737 18.3673C71.5795 19.2805 71.1091 20.0076 70.7615 20.8894C70.4006 21.7603 70.1279 22.6655 69.9477 23.5912C69.8124 24.3142 69.6313 25.5283 69.9976 26.2136C71.44 20.7055 74.5913 14.3031 75.5841 13.8852C77.1702 13.7285 78.265 14.6834 78.4315 16.2464C79.6387 14.8673 83.8307 13.321 84.5612 16.4428C85.7789 21.6667 80.6628 29.6656 76.5228 26.8384C74.2333 25.2796 75.888 21.6479 77.7842 21.5706C78.7479 21.5309 79.1184 22.0888 78.6167 22.9414C78.4835 23.1691 78.3087 23.3781 78.1547 23.61C74.6974 28.7734 84.1262 18.8772 81.7055 16.3425C80.388 15.1912 77.1264 19.5605 76.6207 20.3127C74.5559 23.3217 73.6796 27.7014 73.6338 31.6194C73.6151 33.1824 74.3041 34.7934 72.5057 34.8728C71.1237 34.9334 70.0309 33.8615 69.6396 33.0298L69.6417 33.0173ZM94.2606 10.427C93.7111 12.2512 91.994 14.8151 91.1218 16.821C90.7784 14.3574 90.3621 12.504 90.2414 11.6389L94.2606 10.427ZM87.2088 9.12935C86.7509 9.53054 84.4863 10.6589 84.9838 9.04785C85.2086 8.32486 86.728 7.44098 87.2088 9.12935ZM89.3422 8.44397C87.6917 5.56873 84.8464 6.41082 83.3207 8.81173C82.4403 10.1908 82.8295 11.7121 83.8515 12.4643C85.1982 13.4568 86.5365 12.8341 87.8457 12.4225C88.5241 14.3635 89.0046 16.3686 89.2798 18.407C89.6732 21.4703 88.953 22.2184 88.5305 24.9453C87.9498 28.6919 88.9988 32.1731 92.3873 33.7215C94.7477 34.7955 93.8443 32.5388 93.6799 31.7322C91.2176 24.7175 95.651 16.33 98.6399 9.22547C103.581 8.22248 105.579 7.90695 106.726 8.73442C107.396 9.21711 107.365 9.76875 107.698 10.5565C109.653 10.8135 110.587 8.30606 110.281 6.77232C108.97 0.204808 92.6767 7.20068 89.3422 8.44397ZM104.497 20.3273C103.952 19.9679 102.54 18.8918 102.667 15.8933C101.539 16.9381 100.055 20.11 99.8492 22.2142C99.5432 25.3277 102.778 23.0918 104.497 20.3336V20.3273ZM102.959 14.9425C100.669 12.4873 95.4949 21.882 97.0227 25.7957C98.207 28.8319 103.242 28.2175 106.343 22.5193C106.647 21.9572 106.737 21.5184 107.049 20.8873C108.691 20.9229 111.824 20.3273 111.16 18.5408C110.327 18.7037 109.334 19.1175 107.675 18.9399C107.756 17.0446 108.229 15.0491 106.907 13.8351C105.338 12.3912 103.87 13.4401 102.963 14.9425H102.959Z" fill="white"/>
<path fill-rule="evenodd" clip-rule="evenodd" d="M87.2081 9.12979C86.7273 7.44142 85.2079 8.3253 84.9831 9.04829C84.4856 10.6593 86.7502 9.53098 87.2081 9.12979Z" fill="#000003"/>
<path fill-rule="evenodd" clip-rule="evenodd" d="M109.958 42.8253V42.282C110.001 42.2842 110.043 42.2842 110.085 42.282C110.207 42.2843 110.327 42.2605 110.438 42.2122C110.549 42.1639 110.649 42.0922 110.731 42.002L110.816 41.8892L111.161 42.2632L111.114 42.3405C110.905 42.6665 110.441 42.8211 110.073 42.8211L109.958 42.8253ZM109.958 41.5925V41.0826H110.56C110.56 40.7023 110.402 40.5017 110.01 40.5017H109.958V39.9731H110.006C110.768 39.9731 111.155 40.4119 111.155 41.1662C111.155 41.2893 111.132 41.4113 111.086 41.5256L111.053 41.5925H109.958ZM109.958 39.9731V40.5038C109.804 40.5057 109.656 40.5666 109.545 40.6741C109.433 40.7817 109.367 40.9277 109.359 41.0826H109.958V41.5925H109.349C109.394 41.9728 109.577 42.2361 109.958 42.282V42.8253C109.153 42.7772 108.71 42.2235 108.71 41.396C108.71 40.5686 109.142 39.9939 109.958 39.9731ZM104.476 42.7626V42.1713C104.724 42.0167 104.834 41.7262 104.834 41.3501C104.834 40.974 104.719 40.7232 104.476 40.602V40.0274C105.084 40.1737 105.46 40.6125 105.46 41.3501C105.46 42.0877 105.094 42.5913 104.476 42.7626ZM104.476 40.0274V40.602C104.364 40.5515 104.243 40.5224 104.12 40.5163V42.2987C104.246 42.2873 104.368 42.2465 104.476 42.1796V42.771C104.359 42.798 104.24 42.8127 104.12 42.8149V43.4668L104.418 43.4814L104.391 43.9892H103.235L103.2 43.4626L103.504 43.4459V42.819C103.384 42.8121 103.264 42.7925 103.148 42.7605V42.1671C103.256 42.2335 103.378 42.2742 103.504 42.2862V40.5163C103.381 40.5239 103.26 40.5551 103.148 40.6083V40.0357C103.265 40.0078 103.384 39.991 103.504 39.9856V39.3587L103.204 39.342L103.24 38.8154H104.12V39.9898C104.24 39.9909 104.359 40.0035 104.476 40.0274ZM103.148 40.0274V40.5999C102.904 40.719 102.792 40.9572 102.792 41.3459C102.792 41.7346 102.9 42.0146 103.148 42.1713V42.7647C102.524 42.5934 102.166 42.0814 102.166 41.3459C102.166 40.6104 102.54 40.1716 103.148 40.0274ZM97.5615 42.8149V42.3134C97.6614 42.313 97.7597 42.2878 97.8476 42.24C97.9355 42.1923 98.0102 42.1234 98.0652 42.0396V41.5611C97.8963 41.5663 97.728 41.583 97.5615 41.6113V41.1202C97.7405 41.0931 97.9132 41.0784 98.0652 41.0638V40.999C98.0652 40.6543 97.984 40.5017 97.6239 40.5017H97.5615V39.9814C97.6167 39.9748 97.6723 39.9713 97.728 39.971C98.3878 39.971 98.6958 40.3429 98.6958 40.9907V42.2319L98.9997 42.2486L98.9643 42.7564H98.1547L98.1235 42.5892C97.9625 42.7187 97.7669 42.7972 97.5615 42.8149ZM97.5615 39.9793V40.4996C97.4281 40.5113 97.3009 40.5613 97.1951 40.6438L97.1723 41.0283H96.6394L96.6582 40.0128H97.1244L97.1452 40.1214C97.274 40.0485 97.4151 40.0003 97.5615 39.9793ZM97.5615 41.116V41.6071C97.2992 41.6552 97.0599 41.7513 97.0599 41.9561C97.0599 42.2465 97.268 42.3092 97.5261 42.3092H97.5615V42.8149C97.5102 42.818 97.4587 42.818 97.4075 42.8149C96.8725 42.8149 96.4188 42.5746 96.4188 41.979C96.4188 41.3835 97.0078 41.1829 97.5615 41.0993V41.116ZM90.8822 42.2152V40.5853L90.543 40.5707L90.5783 40.042H91.5129V41.0868L91.6794 41.0095L92.0437 40.5435H91.9958L92.0249 40.0462H93.178V40.5707L92.6889 40.6145L92.1665 41.2414L92.8637 42.2005H93.3778L93.3425 42.7543H92.5723L92.3413 42.5035L91.6315 41.5737L91.4962 41.6343V42.2611L91.7585 42.2778L91.7314 42.7647H90.595L90.5596 42.2361L90.8822 42.2152Z" fill="#1A1A18"/>
<path fill-rule="evenodd" clip-rule="evenodd" d="M38.5983 27.3361C38.3371 28.0678 38.0277 28.7812 37.672 29.4716C37.7053 29.0454 37.722 28.6149 37.722 28.1803C37.728 25.4957 37.0708 22.8515 35.8092 20.4844C35.7538 20.3796 35.742 20.2571 35.7763 20.1435C35.8107 20.03 35.8883 19.9347 35.9923 19.8784C36.3703 19.678 36.6868 19.3783 36.9082 19.0113C37.1781 18.5617 37.2899 18.0342 37.2258 17.5133C37.1616 16.9924 36.9252 16.5081 36.5543 16.1381C36.3302 15.9136 36.0634 15.7367 35.7698 15.6178C35.4762 15.499 35.1617 15.4407 34.8452 15.4463C34.5286 15.452 34.2165 15.5215 33.9272 15.6507C33.638 15.78 33.3776 15.9664 33.1616 16.1987C33.0811 16.2836 32.9707 16.3334 32.8541 16.3377C32.7374 16.342 32.6237 16.3004 32.5372 16.2217C31.9511 15.6752 31.3249 15.1737 30.6639 14.7214C30.6261 14.7078 30.5899 14.6903 30.5557 14.6692C27.8856 12.8566 24.7362 11.888 21.513 11.888C18.2898 11.888 15.1404 12.8566 12.4703 14.6692C12.4362 14.6903 12.3999 14.7078 12.3621 14.7214C11.7011 15.1737 11.0749 15.6752 10.4888 16.2217C10.4026 16.3009 10.2887 16.3429 10.1719 16.3386C10.0551 16.3343 9.94466 16.284 9.86441 16.1987C9.64339 15.9616 9.37634 15.7724 9.07972 15.6429C8.62359 15.44 8.11493 15.3882 7.62752 15.4951C7.14011 15.602 6.6993 15.862 6.369 16.2374C6.0387 16.6127 5.83609 17.084 5.79056 17.5828C5.74503 18.0815 5.85895 18.5819 6.11579 19.0113C6.33772 19.3778 6.65413 19.6774 7.03161 19.8784C7.13565 19.9347 7.21331 20.03 7.24762 20.1435C7.28194 20.2571 7.27013 20.3796 7.21477 20.4844C6.58772 21.661 6.10812 22.911 5.78693 24.2059C5.4642 25.5044 5.30132 26.8378 5.30196 28.1761C5.30196 28.4519 5.30196 28.7257 5.32277 28.9973C4.98603 28.2949 4.69743 27.5702 4.45898 26.8283C4.63008 24.5999 5.23319 22.4264 6.23443 20.4301C5.87703 20.1725 5.57538 19.8448 5.34775 19.4668C5.05343 18.9726 4.89502 18.4089 4.88869 17.8331C4.88237 17.2574 5.02835 16.6902 5.31174 16.1897C5.59513 15.6891 6.00577 15.273 6.50174 14.9838C6.9977 14.6946 7.56122 14.5428 8.13476 14.5438C8.88443 14.5423 9.61133 14.8023 10.1912 15.2793C13.3058 12.5067 17.3264 10.9794 21.4891 10.9873H21.5515C25.7112 10.9831 29.7277 12.5118 32.839 15.2835C33.4621 14.7716 34.252 14.5096 35.0562 14.5482C35.8603 14.5868 36.6217 14.9232 37.1933 15.4924C37.7062 16.0034 38.0333 16.6726 38.122 17.3926C38.2107 18.1126 38.0559 18.8416 37.6825 19.4626C37.4548 19.8406 37.1532 20.1683 36.7958 20.4259C37.8742 22.5715 38.4905 24.921 38.6045 27.3215L38.5983 27.3361Z" fill="#1A1A18"/>
<path fill-rule="evenodd" clip-rule="evenodd" d="M25.8425 17.3856C25.7287 17.3714 25.6249 17.3134 25.553 17.2237C25.481 17.134 25.4467 17.0198 25.4573 16.9052C25.4678 16.7905 25.5224 16.6845 25.6095 16.6096C25.6966 16.5347 25.8093 16.4967 25.9237 16.5038C25.9237 16.5038 27.439 16.6354 27.2392 18.1106C27.1164 19.0133 26.4212 19.1387 25.7676 19.2557C25.5053 19.3038 25.2556 19.3477 25.2202 19.4145C25.1916 19.471 25.1659 19.5289 25.1432 19.588C25.0675 19.7811 25.0418 19.9902 25.0682 20.196C25.0726 20.2546 25.0905 20.3113 25.1205 20.3617C25.1505 20.4121 25.1917 20.4549 25.241 20.4865L25.2826 20.5053C25.5857 20.5575 25.8941 20.5708 26.2005 20.545C27.0851 20.522 28.0967 20.499 28.5026 21.1886C28.6146 21.371 28.6936 21.5719 28.7357 21.782C28.7848 22.0151 28.7571 22.2578 28.6566 22.4737C28.5543 22.6809 28.3917 22.8522 28.1904 22.9647C27.9819 23.083 27.7543 23.1637 27.5181 23.2029C27.1018 23.2823 26.1381 23.2781 25.2015 23.274C24.2648 23.2698 23.3282 23.274 23.2241 23.3137C23.2241 23.3137 23.2241 23.3387 23.2012 23.3847C23.1607 23.4872 23.1396 23.5963 23.1388 23.7065C23.1345 23.8145 23.1559 23.9219 23.2012 24.0199C23.2377 24.0968 23.3016 24.1572 23.3802 24.1892C23.8631 24.3981 25.4616 24.3668 27.0685 24.3396C27.6492 24.3396 28.2278 24.3208 28.6233 24.3208C29.177 24.3208 29.6245 24.2958 30.0033 24.2728C31.2833 24.1976 31.9202 24.162 32.2179 25.1086C32.3458 25.6108 32.4157 26.1262 32.426 26.6444H33.4792C33.5222 26.6444 33.565 26.6507 33.6062 26.6632C33.8143 26.7155 34.9279 27.0268 35.0986 27.9483C35.1786 28.3311 35.1527 28.7285 35.0236 29.0976C34.9034 29.4125 34.7239 29.7013 34.495 29.948C34.1773 30.3002 33.7333 30.5114 33.2607 30.5352C33.1486 30.5275 33.0437 30.4773 32.967 30.3949C32.8903 30.3125 32.8477 30.2039 32.8477 30.0912C32.8477 29.9784 32.8903 29.8698 32.967 29.7874C33.0437 29.705 33.1486 29.6549 33.2607 29.6471C33.3704 29.6402 33.4776 29.6115 33.5762 29.5627C33.6748 29.5139 33.7628 29.446 33.8352 29.363C33.9887 29.1987 34.1108 29.0075 34.1952 28.7988C34.2695 28.5758 34.2825 28.3369 34.2327 28.1071C34.164 27.7435 33.5958 27.5743 33.4314 27.5325H32.4385C32.4385 27.8919 32.4156 28.268 32.3802 28.6483C32.2845 29.7182 32.0597 30.8277 31.633 31.6824C31.0355 32.8141 30.0902 33.722 28.9376 34.2713C27.7435 34.8656 26.4069 35.1104 25.0807 34.9776C23.6695 34.8355 22.5643 34.3988 21.7151 33.7239C20.855 33.0124 20.2212 32.0637 19.8918 30.9949C19.4405 29.7021 19.3449 28.3111 19.615 26.9683C19.6386 26.8749 19.6921 26.7918 19.7673 26.7317C19.8425 26.6717 19.9352 26.6381 20.0312 26.6361H31.5414C31.5358 26.2091 31.4814 25.7842 31.3791 25.3698C31.2896 25.0856 30.8775 25.1086 30.0511 25.1608C29.6474 25.1838 29.1665 25.2131 28.6233 25.2131C28.0363 25.2131 27.5597 25.2131 27.0831 25.2298C25.3909 25.257 23.6924 25.2862 23.0389 25.0083C22.7658 24.8953 22.5436 24.6856 22.4145 24.419C22.3084 24.1946 22.2557 23.9486 22.2604 23.7002C22.2625 23.4752 22.307 23.2525 22.3916 23.0441C22.4737 22.8254 22.6299 22.6426 22.8328 22.528C23.1201 22.3838 24.1503 22.3901 25.2077 22.3943C25.9249 22.4187 26.6429 22.3999 27.3578 22.3378C27.4932 22.3156 27.624 22.2711 27.7449 22.2062C27.7941 22.1812 27.8352 22.1428 27.8636 22.0954C27.8791 22.0487 27.8791 21.9981 27.8636 21.9513C27.838 21.8433 27.7951 21.7403 27.7366 21.6462C27.593 21.4017 26.8583 21.4184 26.2151 21.4372C25.7281 21.4477 25.2806 21.4581 24.9663 21.3453C24.9152 21.3256 24.8652 21.3033 24.8164 21.2784C24.6461 21.184 24.5007 21.0502 24.3921 20.8881C24.2835 20.7261 24.2149 20.5404 24.192 20.3465C24.1436 19.9903 24.1843 19.6276 24.3106 19.2912C24.3466 19.1955 24.3883 19.102 24.4355 19.0112C24.6707 18.5641 25.1286 18.4805 25.6073 18.3844C25.9549 18.3217 26.3254 18.2548 26.3608 17.9915C26.4357 17.4336 25.8384 17.3835 25.8384 17.3835L25.8425 17.3856ZM31.4956 28.5585C31.5289 28.2032 31.5456 27.8543 31.5518 27.5137H20.3996C20.2581 28.5851 20.3679 29.6748 20.7202 30.6961C20.9954 31.6039 21.5294 32.411 22.2563 33.0176C22.9764 33.5943 23.9214 33.9642 25.1578 34.0896C26.3208 34.2041 27.4924 33.9868 28.538 33.4627C29.5188 32.9994 30.3252 32.2316 30.8379 31.2728C31.2084 30.5331 31.4082 29.5322 31.4956 28.5585Z" fill="#1A1A18"/>
<path fill-rule="evenodd" clip-rule="evenodd" d="M19.6158 21.8301C19.4286 21.8347 19.2469 21.8945 19.0935 22.0023C18.9401 22.11 18.8217 22.2608 18.7533 22.4358C18.6849 22.6107 18.6694 22.8021 18.7088 22.9858C18.7482 23.1696 18.8408 23.3376 18.9749 23.4687C19.109 23.5999 19.2787 23.6884 19.4627 23.7232C19.6467 23.758 19.8368 23.7375 20.0092 23.6643C20.1817 23.5911 20.3288 23.4684 20.4321 23.3116C20.5354 23.1548 20.5903 22.9709 20.5899 22.783C20.5861 22.5271 20.4814 22.2832 20.2988 22.1046C20.1163 21.926 19.8707 21.8273 19.6158 21.8301Z" fill="#1A1A18"/>
<path fill-rule="evenodd" clip-rule="evenodd" d="M10.9146 21.8301C10.7275 21.8347 10.5458 21.8945 10.3923 22.0023C10.2389 22.11 10.1206 22.2608 10.0521 22.4358C9.98371 22.6107 9.96823 22.8021 10.0076 22.9858C10.0471 23.1696 10.1396 23.3376 10.2737 23.4687C10.4078 23.5999 10.5775 23.6884 10.7615 23.7232C10.9455 23.758 11.1356 23.7375 11.3081 23.6643C11.4805 23.5911 11.6276 23.4684 11.7309 23.3116C11.8342 23.1548 11.8891 22.9709 11.8887 22.783C11.8849 22.5271 11.7802 22.2832 11.5977 22.1046C11.4151 21.926 11.1695 21.8273 10.9146 21.8301Z" fill="#1A1A18"/>
<path fill-rule="evenodd" clip-rule="evenodd" d="M17.0403 25.7686H13.1273C12.9087 26.9659 12.6964 27.5907 12.7651 28.0253C12.8608 28.6522 13.5123 28.9823 14.9339 29.9874V32.8961C14.5176 33.314 13.8724 33.5229 13.0773 33.5814C14.4011 34.2814 15.7956 34.2898 17.263 33.5814C16.5345 33.5564 15.8456 33.4435 15.3336 32.9295V30.0041H15.3898C16.0954 29.2895 17.6044 28.6772 17.5107 27.8623L17.0403 25.7686Z" fill="#1A1A18"/>
<path fill-rule="evenodd" clip-rule="evenodd" d="M25.9662 4.30491C27.239 4.61368 28.4744 5.06143 29.6503 5.64014C30.1487 6.22722 30.4231 6.97297 30.4245 7.74434C30.4218 8.22153 30.3166 8.69253 30.1162 9.12524C29.9158 9.55795 29.6248 9.9422 29.2631 10.2518C28.5176 10.887 27.5715 11.2357 26.5937 11.2357C25.6159 11.2357 24.6698 10.887 23.9243 10.2518C23.5612 9.94466 23.2694 9.56157 23.0692 9.12935C22.869 8.69714 22.7652 8.22623 22.7652 7.74956C22.7652 7.2729 22.869 6.80199 23.0692 6.36977C23.2694 5.93756 23.5612 5.55447 23.9243 5.24731C24.5013 4.74494 25.2101 4.41995 25.9662 4.31118V4.30491ZM33.5029 8.19359C33.3808 9.78529 32.6668 11.2726 31.5027 12.3602C30.1662 13.599 28.4138 14.287 26.5947 14.287C24.7757 14.287 23.0233 13.599 21.6868 12.3602C20.5158 11.2804 19.7991 9.79282 19.6831 8.20083C19.5671 6.60884 20.0604 5.03237 21.0624 3.79297C20.6794 3.80551 20.3006 3.82849 19.9238 3.86401C19.1771 5.01914 18.7808 6.36726 18.7832 7.74434C18.786 8.73224 18.9907 9.70906 19.3845 10.6144C19.7783 11.5198 20.3529 12.3344 21.0728 13.008C22.5734 14.4031 24.5432 15.1782 26.5885 15.1782C28.6338 15.1782 30.6037 14.4031 32.1042 13.008C33.259 11.9257 34.0312 10.4954 34.3043 8.9333C34.0448 8.67838 33.777 8.43181 33.5009 8.19359H33.5029ZM28.7553 5.97656C28.1483 5.47015 27.384 5.19292 26.5947 5.19292C25.8055 5.19292 25.0412 5.47015 24.4342 5.97656C24.1718 6.18948 23.96 6.45864 23.8146 6.76434C23.6692 7.07003 23.5937 7.40452 23.5937 7.74329C23.5937 8.08207 23.6692 8.41656 23.8146 8.72225C23.96 9.02795 24.1718 9.29711 24.4342 9.51002C25.0412 10.0164 25.8055 10.2937 26.5947 10.2937C27.384 10.2937 28.1483 10.0164 28.7553 9.51002C29.0174 9.29689 29.2288 9.02765 29.374 8.72199C29.5192 8.41632 29.5946 8.08195 29.5946 7.74329C29.5946 7.40464 29.5192 7.07027 29.374 6.7646C29.2288 6.45893 29.0174 6.1897 28.7553 5.97656Z" fill="#1A1A18"/>
<path fill-rule="evenodd" clip-rule="evenodd" d="M82.3338 42.8051V42.2618C82.3754 42.264 82.4171 42.264 82.4587 42.2618C82.5803 42.2641 82.7009 42.2403 82.8125 42.192C82.9242 42.1437 83.0242 42.072 83.106 41.9818L83.1914 41.8689L83.5369 42.243L83.4869 42.3203C83.2788 42.6463 82.8167 42.8009 82.4462 42.8009L82.3338 42.8051ZM82.3338 41.5722V41.0624H82.9333C82.9333 40.6821 82.7772 40.4815 82.3838 40.4815H82.3338V39.957H82.3796C83.1414 39.957 83.5307 40.3958 83.5307 41.1501C83.5301 41.2734 83.5061 41.3954 83.4599 41.5095L83.4287 41.5764L82.3338 41.5722ZM82.3234 39.957V40.4877C82.1688 40.4892 82.0206 40.5499 81.9091 40.6575C81.7977 40.7651 81.7314 40.9115 81.724 41.0666H82.3234V41.5764H81.7115C81.7594 41.9567 81.9425 42.22 82.3234 42.266V42.8092C81.5159 42.7612 81.0746 42.2075 81.0746 41.38C81.0746 40.5525 81.5096 39.9779 82.3234 39.957ZM76.4747 42.8113V42.2827C77.0262 42.2827 77.1719 41.8648 77.1719 41.3695C77.1719 40.8743 77.0242 40.4857 76.4747 40.4857V39.957C77.3593 39.957 77.8193 40.4982 77.8193 41.3654C77.8193 42.2325 77.353 42.8113 76.4747 42.8113ZM76.4747 39.957V40.4857C75.9314 40.4857 75.7774 40.8806 75.7774 41.3695C75.7774 41.8585 75.9273 42.2827 76.4747 42.2827V42.8113C75.588 42.8113 75.1322 42.22 75.1322 41.3654C75.1322 40.5107 75.5942 39.957 76.4747 39.957ZM58.3165 42.8092V42.266C58.3581 42.2682 58.3997 42.2682 58.4413 42.266C58.5629 42.2683 58.6835 42.2445 58.7951 42.1962C58.9068 42.1479 59.0068 42.0762 59.0887 41.986L59.174 41.8731L59.5195 42.2472L59.4696 42.3245C59.2614 42.6504 58.7993 42.8051 58.4289 42.8051L58.3165 42.8092ZM58.3165 41.5764V41.0666H58.9201C58.9201 40.6863 58.764 40.4857 58.3726 40.4857H58.3206V39.957H58.3664C59.1282 39.957 59.5174 40.3958 59.5174 41.1501C59.5169 41.2734 59.4929 41.3954 59.4467 41.5095L59.4154 41.5764H58.3165ZM64.6127 39.2006V39.0752L65.2371 39.1609L65.2101 39.2862C65.1793 39.4038 65.1183 39.5112 65.0332 39.5976C64.8114 39.7839 64.5314 39.8861 64.2422 39.8861C63.953 39.8861 63.673 39.7839 63.4513 39.5976C63.3676 39.51 63.3069 39.4031 63.2744 39.2862L63.2494 39.1609L63.8738 39.0752V39.2006C63.9175 39.3427 64.1215 39.3907 64.2485 39.3907C64.3754 39.3907 64.5857 39.3427 64.6294 39.2006H64.6127ZM64.7855 42.2304V41.0143L63.47 42.7424H63.0017V40.5692L62.7061 40.5546L62.7311 40.026H63.6345V41.6663L64.8833 40.026H65.7159V40.5546L65.4245 40.5692V42.2179L65.7284 42.2346L65.693 42.7424H64.5107V42.2597L64.7876 42.2304H64.7855ZM69.2522 42.1991V40.5692L68.9545 40.5546L68.9816 40.026H69.8829V41.0707H70.961V40.5003L70.7092 40.4857V40.0176H71.8643V40.5463L71.5938 40.5609V42.2095L71.8977 42.2263L71.8623 42.734H70.961V41.6036H69.8829V42.2492H70.1472L70.118 42.7236H68.9837L68.9483 42.1949L69.2522 42.1991ZM58.3165 39.957V40.4877C58.1618 40.4892 58.0136 40.5499 57.9021 40.6575C57.7907 40.7651 57.7244 40.9115 57.717 41.0666H58.3165V41.5764H57.7045C57.7524 41.9567 57.9356 42.22 58.3165 42.266V42.8092C57.5089 42.7612 57.0676 42.2075 57.0676 41.38C57.0676 40.5525 57.5026 39.9779 58.3165 39.957ZM45.6885 42.8092V42.266C45.7301 42.2682 45.7718 42.2682 45.8134 42.266C45.935 42.2683 46.0556 42.2445 46.1672 42.1962C46.2789 42.1479 46.3789 42.0762 46.4607 41.986L46.5461 41.8731L46.8916 42.2472L46.8416 42.3245C46.6335 42.6504 46.1693 42.8051 45.8009 42.8051L45.6885 42.8092ZM45.6885 41.5764V41.0666H46.288C46.288 40.6863 46.1298 40.4857 45.7385 40.4857H45.6885V39.957H45.7343C46.4961 39.957 46.8853 40.3958 46.8853 41.1501C46.8848 41.2734 46.8608 41.3954 46.8146 41.5095L46.7813 41.5764H45.6885ZM51.9661 41.963L52.7695 40.0176H53.7769V40.5463L53.4917 40.5609L53.5188 42.2137L53.8227 42.2242L53.7956 42.734H52.9339L52.9131 41.1355L52.2304 42.734H51.6955L50.9795 41.1272L50.9545 42.2284L51.2355 42.2451L51.2001 42.7424H50.1199L50.0845 42.2116L50.3842 42.2012L50.4529 40.5692L50.1303 40.5546L50.1636 40.026H51.1751L51.9661 41.963ZM40.6682 40.6549C40.5581 40.543 40.4085 40.4792 40.2519 40.4773C39.6857 40.4773 39.5692 40.8283 39.5692 41.3466C39.5692 41.8648 39.7461 42.2743 40.306 42.2743C40.5397 42.2742 40.7639 42.1819 40.9304 42.0173L41.0179 41.9149L41.3467 42.2827L41.2968 42.3579C41.0886 42.6713 40.6203 42.803 40.2706 42.803C39.3652 42.803 38.9219 42.2284 38.9219 41.3507C38.9219 40.5149 39.3194 39.9486 40.1915 39.9486C40.3846 39.9527 40.5726 40.0106 40.7348 40.1158L40.7681 39.9925H41.2281V41.0728H40.6932L40.664 40.6549H40.6682ZM45.6885 39.9486V40.4794C45.5338 40.4813 45.3856 40.5421 45.274 40.6496C45.1623 40.7571 45.0954 40.9031 45.087 41.0582H45.6885V41.568H45.0766C45.1245 41.9483 45.3056 42.2116 45.6885 42.2576V42.8009C44.8809 42.7528 44.4397 42.1991 44.4397 41.3716C44.4397 40.5442 44.8705 39.9779 45.6885 39.957V39.9486Z" fill="white"/>
</g>
<defs>
<clipPath id="clip0_289_10019">
<rect width="115" height="44" fill="white"/>
</clipPath>
</defs>
</svg>
