<svg width="225" height="122" viewBox="0 0 225 122" fill="none" xmlns="http://www.w3.org/2000/svg">
<path fill-rule="evenodd" clip-rule="evenodd" d="M209 5H16C14.8954 5 14 5.89543 14 7V82H211V7C211 5.89543 210.105 5 209 5ZM16 0C12.134 0 9 3.13401 9 7V82V83.0494C3.94668 83.5511 0 87.8147 0 93V112C0 117.523 4.47715 122 10 122H215C220.523 122 225 117.523 225 112V93C225 87.8147 221.053 83.5511 216 83.0494V82V7C216 3.13401 212.866 0 209 0H16ZM215 88H10C7.23858 88 5 90.2386 5 93V112C5 114.761 7.23858 117 10 117H215C217.761 117 220 114.761 220 112V93C220 90.2386 217.761 88 215 88ZM33.8672 51.667C33.4961 51.999 32.8027 52.1895 31.7871 52.2383V53H41.9238V52.2383C40.8691 52.1992 40.166 51.999 39.8145 51.6377C39.4629 51.2666 39.2871 50.5537 39.2871 49.499V43.625H40.0781L46.3037 53H52.4414V52.2822C52.168 52.2627 51.9385 52.2188 51.7529 52.1504C51.5674 52.0723 51.3916 51.916 51.2256 51.6816L45.1904 43.1416C46.2158 42.9463 47.1875 42.4971 48.1055 41.7939C49.3066 40.8564 49.9072 39.5723 49.9072 37.9414C49.9072 35.7344 48.7061 34.2061 46.3037 33.3564C45.0635 32.9365 43.4424 32.7266 41.4404 32.7266H31.7871V33.4883C32.8125 33.5762 33.4717 33.7373 33.7646 33.9717C34.2041 34.3232 34.4238 35.0801 34.4238 36.2422V49.499C34.4238 50.6123 34.2383 51.335 33.8672 51.667ZM43.4912 41.8379C42.6514 42.3555 41.25 42.6289 39.2871 42.6582V35.0264C39.2871 34.5674 39.4092 34.2402 39.6533 34.0449C39.9072 33.8398 40.4346 33.7373 41.2354 33.7373C42.71 33.7373 43.7256 34.3086 44.2822 35.4512C44.6045 36.125 44.7656 37.043 44.7656 38.2051C44.7656 40.0996 44.3408 41.3105 43.4912 41.8379ZM53.4668 52.2383V53H71.001L72.2168 46.7598H71.3818C70.4443 48.8008 69.3701 50.1924 68.1592 50.9346C66.9482 51.6768 65.3857 52.0479 63.4717 52.0479C62.4561 52.0479 61.7822 51.9355 61.4502 51.7109C61.1279 51.4766 60.9668 51.042 60.9668 50.4072V43.1416C62.6758 43.1416 63.8574 43.4932 64.5117 44.1963C65.1758 44.8896 65.6152 46.0908 65.8301 47.7998H66.5918V37.6631H65.8301C65.5078 39.3623 65.0439 40.5342 64.4385 41.1787C63.833 41.8135 62.6758 42.1211 60.9668 42.1016V35.1582C60.9668 34.5918 61.0889 34.2158 61.333 34.0303C61.5869 33.835 62.1729 33.7373 63.0908 33.7373C65.5029 33.7373 67.1631 34.0938 68.0713 34.8066C68.9893 35.5195 69.6387 36.8428 70.0195 38.7764H70.752V32.7266H53.4668V33.4883C54.3359 33.5371 54.9365 33.6543 55.2686 33.8398C55.8447 34.1426 56.1328 34.7334 56.1328 35.6123V50.1289C56.1328 50.9883 55.8545 51.5742 55.2979 51.8867C54.9365 52.0918 54.3262 52.209 53.4668 52.2383ZM74.8975 45.998H74.0332V53.4248H74.8975C74.9854 53.0928 75.0879 52.8389 75.2051 52.6631C75.3223 52.4775 75.5371 52.3848 75.8496 52.3848C75.9375 52.3848 76.0449 52.3994 76.1719 52.4287C76.2988 52.4482 76.4307 52.4775 76.5674 52.5166L77.1533 52.7363C77.7588 52.9707 78.3691 53.1416 78.9844 53.249C79.6094 53.3662 80.2246 53.4248 80.8301 53.4248C83.4668 53.4248 85.3809 52.7559 86.5723 51.418C87.7734 50.0703 88.374 48.6396 88.374 47.126C88.374 45.5049 87.8174 44.1279 86.7041 42.9951C86.1084 42.3896 85.3076 41.8379 84.3018 41.3398L82.0459 40.2266C80.1611 39.2988 78.9453 38.5957 78.3984 38.1172C77.8418 37.6484 77.5635 36.9404 77.5635 35.9932C77.5635 35.2021 77.8564 34.5332 78.4424 33.9863C79.0381 33.4297 79.8438 33.1514 80.8594 33.1514C82.3047 33.1514 83.5303 33.6982 84.5361 34.792C85.5518 35.8857 86.2598 37.1895 86.6602 38.7031H87.4951V32.1699H86.6016C86.5234 32.4824 86.4209 32.7363 86.2939 32.9316C86.167 33.1172 85.9375 33.21 85.6055 33.21C85.459 33.21 84.8682 33.0439 83.833 32.7119C82.8076 32.3799 81.7432 32.2139 80.6396 32.2139C78.4717 32.2139 76.8604 32.8486 75.8057 34.1182C74.7607 35.3877 74.2383 36.7549 74.2383 38.2197C74.2383 39.5967 74.6338 40.7539 75.4248 41.6914C76.2158 42.6289 77.5781 43.5762 79.5117 44.5332L81.46 45.5C82.6709 46.0957 83.4766 46.5791 83.877 46.9502C84.4824 47.5166 84.7852 48.249 84.7852 49.1475C84.7852 49.9189 84.4971 50.6562 83.9209 51.3594C83.3447 52.0527 82.373 52.3994 81.0059 52.3994C79.5996 52.3994 78.3496 51.8916 77.2559 50.876C76.1719 49.8604 75.3857 48.2344 74.8975 45.998ZM90.1758 52.2383V53H107.71L108.926 46.7598H108.091C107.153 48.8008 106.079 50.1924 104.868 50.9346C103.657 51.6768 102.095 52.0479 100.181 52.0479C99.165 52.0479 98.4912 51.9355 98.1592 51.7109C97.8369 51.4766 97.6758 51.042 97.6758 50.4072V43.1416C99.3848 43.1416 100.566 43.4932 101.221 44.1963C101.885 44.8896 102.324 46.0908 102.539 47.7998H103.301V37.6631H102.539C102.217 39.3623 101.753 40.5342 101.147 41.1787C100.542 41.8135 99.3848 42.1211 97.6758 42.1016V35.1582C97.6758 34.5918 97.7979 34.2158 98.042 34.0303C98.2959 33.835 98.8818 33.7373 99.7998 33.7373C102.212 33.7373 103.872 34.0938 104.78 34.8066C105.698 35.5195 106.348 36.8428 106.729 38.7764H107.461V32.7266H90.1758V33.4883C91.0449 33.5371 91.6455 33.6543 91.9775 33.8398C92.5537 34.1426 92.8418 34.7334 92.8418 35.6123V50.1289C92.8418 50.9883 92.5635 51.5742 92.0068 51.8867C91.6455 52.0918 91.0352 52.209 90.1758 52.2383ZM112.266 51.667C111.895 51.999 111.201 52.1895 110.186 52.2383V53H120.322V52.2383C119.268 52.1992 118.564 51.999 118.213 51.6377C117.861 51.2666 117.686 50.5537 117.686 49.499V43.625H118.477L124.702 53H130.84V52.2822C130.566 52.2627 130.337 52.2188 130.151 52.1504C129.966 52.0723 129.79 51.916 129.624 51.6816L123.589 43.1416C124.614 42.9463 125.586 42.4971 126.504 41.7939C127.705 40.8564 128.306 39.5723 128.306 37.9414C128.306 35.7344 127.104 34.2061 124.702 33.3564C123.462 32.9365 121.841 32.7266 119.839 32.7266H110.186V33.4883C111.211 33.5762 111.87 33.7373 112.163 33.9717C112.603 34.3232 112.822 35.0801 112.822 36.2422V49.499C112.822 50.6123 112.637 51.335 112.266 51.667ZM121.89 41.8379C121.05 42.3555 119.648 42.6289 117.686 42.6582V35.0264C117.686 34.5674 117.808 34.2402 118.052 34.0449C118.306 33.8398 118.833 33.7373 119.634 33.7373C121.108 33.7373 122.124 34.3086 122.681 35.4512C123.003 36.125 123.164 37.043 123.164 38.2051C123.164 40.0996 122.739 41.3105 121.89 41.8379ZM140.874 33.4883V32.7266H130.811V33.459C131.504 33.5176 132.012 33.708 132.334 34.0303C132.666 34.3428 132.988 34.8604 133.301 35.583L141.021 53.5566H141.812L148.652 35.9199C148.994 35.0508 149.346 34.4453 149.707 34.1035C150.078 33.752 150.63 33.5371 151.362 33.459V32.7266H144.976V33.4883C146.011 33.5566 146.694 33.6641 147.026 33.8105C147.368 33.9473 147.539 34.2988 147.539 34.8652C147.539 35.0996 147.48 35.4072 147.363 35.7881C147.295 36.0225 147.217 36.252 147.129 36.4766L143.203 46.6133H143.027L138.486 35.5391C138.418 35.3828 138.369 35.2412 138.34 35.1143C138.32 34.9775 138.311 34.8311 138.311 34.6748C138.311 34.1865 138.467 33.8838 138.779 33.7666C139.102 33.6396 139.8 33.5469 140.874 33.4883ZM152.49 52.2383V53H170.024L171.24 46.7598H170.405C169.468 48.8008 168.394 50.1924 167.183 50.9346C165.972 51.6768 164.409 52.0479 162.495 52.0479C161.479 52.0479 160.806 51.9355 160.474 51.7109C160.151 51.4766 159.99 51.042 159.99 50.4072V43.1416C161.699 43.1416 162.881 43.4932 163.535 44.1963C164.199 44.8896 164.639 46.0908 164.854 47.7998H165.615V37.6631H164.854C164.531 39.3623 164.067 40.5342 163.462 41.1787C162.856 41.8135 161.699 42.1211 159.99 42.1016V35.1582C159.99 34.5918 160.112 34.2158 160.356 34.0303C160.61 33.835 161.196 33.7373 162.114 33.7373C164.526 33.7373 166.187 34.0938 167.095 34.8066C168.013 35.5195 168.662 36.8428 169.043 38.7764H169.775V32.7266H152.49V33.4883C153.359 33.5371 153.96 33.6543 154.292 33.8398C154.868 34.1426 155.156 34.7334 155.156 35.6123V50.1289C155.156 50.9883 154.878 51.5742 154.321 51.8867C153.96 52.0918 153.35 52.209 152.49 52.2383ZM174.053 51.916C173.721 52.082 173.179 52.1895 172.427 52.2383V53H181.904C185.332 53 188.047 51.9404 190.049 49.8213C191.826 47.9365 192.715 45.6367 192.715 42.9219C192.715 39.8945 191.831 37.4824 190.063 35.6855C188.12 33.7129 185.298 32.7266 181.597 32.7266H172.427V33.4883C173.218 33.5566 173.774 33.6787 174.097 33.8545C174.653 34.1572 174.932 34.6943 174.932 35.4658V50.2607C174.932 51.0615 174.639 51.6133 174.053 51.916ZM180.117 51.5645C179.922 51.291 179.81 50.8467 179.78 50.2314V35.4658C179.78 34.8506 179.858 34.4355 180.015 34.2207C180.249 33.8887 180.757 33.7227 181.538 33.7227C183.901 33.7227 185.581 34.9482 186.577 37.3994C187.192 38.9229 187.5 40.7441 187.5 42.8633C187.5 46.4277 186.929 48.8398 185.786 50.0996C184.644 51.3496 183.184 51.9746 181.406 51.9746C180.752 51.9746 180.322 51.8379 180.117 51.5645Z" fill="black"/>
</svg>
