<svg width="222" height="126" viewBox="0 0 222 126" fill="none" xmlns="http://www.w3.org/2000/svg">
<g clip-path="url(#clip0_289_10040)">
<path d="M52.5116 21.2105C56.2464 21.5808 59.7622 23.1465 62.5378 25.6757C76.6295 37.8745 90.1781 50.6833 104 63.1749C125.85 82.9164 147.433 102.935 167.846 124.178C174.957 131.583 181.664 139.362 188.132 147.331C189.373 148.719 190.359 150.317 191.044 152.05C191.719 154.044 191.655 156.029 189.978 157.481C189.265 158.089 188.389 158.472 187.459 158.582C186.53 158.692 185.589 158.524 184.755 158.099C179.871 155.93 175.398 152.933 171.534 149.239C156.825 135.712 143.199 121.114 128.902 107.215C105.321 84.2494 81.6885 61.3176 58.005 38.42C54.3217 34.84 50.6785 31.2077 49.5002 25.8919C48.6304 21.8782 49.5818 20.8048 52.5116 21.2105Z" fill="#FBB506"/>
<path d="M38.0388 47.1022C41.8412 48.3722 45.355 50.3828 48.3781 53.0183C64.6185 66.6534 79.0331 82.1082 93.9805 97.0916C112.242 115.341 130.895 133.2 149.338 151.268C156.348 158.144 163.049 165.323 169.439 172.807C170.763 174.261 171.878 175.893 172.753 177.654C173.551 179.41 173.6 181.113 172.168 182.517C170.856 183.764 169.235 183.766 167.596 183C163.976 181.231 160.663 178.893 157.78 176.076C124.868 145.255 92.0409 114.298 61.1342 81.426C55.163 75.073 48.8345 69.0503 42.7202 62.8425C39.2527 59.3082 36.2153 55.4534 35.0118 50.5049C34.3499 47.7466 35.2371 46.7221 38.0388 47.1022Z" fill="#FBB506"/>
<path d="M146.336 202.246C144.269 201.966 142.834 200.544 141.372 199.258C129.54 188.766 118.892 177.068 107.435 166.173C82.8177 142.704 58.9692 118.417 34.47 94.8653C30.9355 91.4619 27.4891 87.9552 24.0906 84.3973C21.3837 81.6737 19.4983 78.2408 18.6505 74.4923C18.0915 71.9456 18.977 70.995 21.4985 71.683C25.4654 72.7483 28.734 75.0202 31.7251 77.8227C51.8168 96.7079 71.9463 115.557 91.7886 134.705C105.204 147.644 119.378 159.78 132.334 173.2C138.015 179.085 143.676 185.001 148.552 191.609C149.734 193.041 150.627 194.69 151.182 196.463C152.126 200.05 149.788 202.805 146.336 202.246Z" fill="#FBB506"/>
<path d="M127.331 217.351C124.725 216.465 122.301 215.115 120.175 213.366C111.641 206.567 103.93 198.857 96.0822 191.303C72.5828 168.685 50.6196 144.563 27.4727 121.59C23.4904 117.815 20.4288 113.173 18.525 108.022C18.1171 106.847 17.3301 105.496 18.4896 104.344C19.6491 103.191 20.7515 104.156 21.8486 104.495C25.5923 105.688 29.0147 107.722 31.8551 110.44C56.1605 133.117 81.0034 155.225 103.718 179.564C112.125 188.57 121.254 196.925 128.564 206.927C129.959 208.763 131.221 210.681 131.551 213.032C131.672 213.616 131.648 214.222 131.48 214.795C131.312 215.368 131.006 215.891 130.59 216.317C130.173 216.744 129.657 217.062 129.089 217.242C128.521 217.422 127.917 217.46 127.331 217.351Z" fill="#FBB506"/>
<path d="M88.0428 10.7851C92.1105 12.2318 95.8857 14.3981 99.1886 17.1812C110.615 26.6628 120.994 37.2543 131.49 47.7133C146.397 62.5678 161.196 77.5312 175.888 92.6034C182.444 99.4843 188.536 106.793 194.126 114.482C195.341 116.028 196.219 117.811 196.705 119.716C197.389 122.675 195.677 124.444 192.719 123.821C190.322 123.306 188.37 121.88 186.428 120.496C178.712 114.879 172.429 107.734 165.798 100.97C142.367 77.0631 118.98 53.1104 95.6377 29.1115C91.4296 24.7932 87.5689 20.2171 85.1853 14.5731C84.726 13.4731 84.2504 12.3131 85.1438 11.1824C85.8374 10.3129 86.7439 10.6006 88.0428 10.7851Z" fill="#FBB506"/>
<path d="M127.157 13.3987C130.738 14.6303 134.034 16.5704 136.851 19.1036C145.475 27.1179 153.855 35.4121 162.483 43.394C175.822 55.8037 188.956 68.3996 201.04 82.0638C204.569 85.9459 207.731 90.1468 210.487 94.6128C211.788 96.7824 212.779 99.1159 210.587 101.215C208.222 103.431 205.827 102.052 203.841 100.448C197.699 95.3876 191.873 89.9542 186.396 84.1788C170.798 68.1683 154.181 53.189 138.86 36.9029C133.248 30.9281 127.647 24.9383 124.785 17.0055C123.774 14.0928 124.356 13.0763 127.157 13.3987Z" fill="#FBB506"/>
<path d="M214.623 63.1591C214.247 66.7814 210.397 68.3099 207.168 65.9281C202.861 62.7658 199.07 58.9488 195.31 55.202C189.609 49.5856 184.569 43.4578 181.41 36.02C180.994 35.0247 179.9 33.8715 181.087 32.7641C182.273 31.6566 183.464 32.5101 184.656 33.0589C192.964 36.8546 199.343 43.0569 205.32 49.732C208.003 52.7399 210.546 55.877 213.104 59.0243C213.624 59.5743 214.026 60.2245 214.288 60.9353C214.549 61.646 214.663 62.4027 214.623 63.1591Z" fill="#FBB506"/>
</g>
<defs>
<clipPath id="clip0_289_10040">
<rect width="211.211" height="195.107" fill="white" transform="translate(221.73 26.2285) rotate(97.7257)"/>
</clipPath>
</defs>
</svg>
