<svg width="187" height="404" viewBox="0 0 187 404" fill="none" xmlns="http://www.w3.org/2000/svg">
<path d="M185.467 69.3007C181.289 54.3845 175.328 41.2507 167.962 30.7296C163.15 23.8497 157.296 23.7585 151.443 23.6889C148.95 23.6606 146.598 23.5872 144.683 20.5276C141.836 15.9668 142.138 8.78243 145.412 4.75192C146.578 3.19735 147.928 2.12309 149.354 1.61556C160.544 -1.84575 170.668 0.773047 179.056 14.3823C190.908 33.6079 199.352 56.6083 203.978 83.8002C204.394 86.5015 205.256 88.9089 206.46 90.7364C218.676 109.526 226.751 133.362 233.573 158.762C238.667 177.747 242.432 197.508 244.297 218.399C246.453 242.56 243.356 263.927 231.736 280.669C225.594 289.51 218.856 293.716 210.991 290.806C205.98 288.83 201.059 286.302 196.258 283.235C197.019 292.88 197.855 301.902 198.414 310.987C199.372 326.607 199.32 342.173 195.975 357.465C190.904 380.628 180.229 390.899 166.61 385.585C165.987 385.345 165.354 385.115 164.55 384.819C163.42 393.044 162.777 401.21 160.922 408.961C155.963 429.633 147.463 438.145 134.761 435.398C121.756 432.577 111.428 421.166 101.897 407.213C93.186 394.681 85.1829 380.764 77.986 365.633C77.3587 364.501 76.6822 363.454 75.962 362.499C70.9326 370.916 65.4585 377.598 58.8355 380.766C42.7013 388.583 28.5076 381.83 18.6767 360.596C2.30596 325.236 -3.84683 284.056 3.70122 237.87C5.37946 227.574 8.42532 218.248 13.3069 210.945C14.5876 209.011 16.2081 207.905 17.8768 207.824C20.2802 207.638 21.3801 210.446 20.1992 213.993C12.646 236.745 13.0165 260.463 15.9875 284.22C18.2163 302.586 22.225 320.057 27.8475 335.91C34.4101 354.25 47.6036 362.823 59.8177 356.127C63.3665 354.111 66.5638 350.47 69.06 345.6C64.0241 333.331 59.5916 320.335 55.806 306.741C48.219 279.954 42.5735 251.985 42.3816 221.198C42.2307 211.439 43.1774 201.647 45.1693 192.363C48.935 175.382 57.5857 168.678 66.9335 175.625C75.4397 181.942 81.1901 193.437 85.0472 207.411C93.4716 237.909 95.9281 270.424 92.558 304.517C91.6123 314.413 89.8496 324.077 87.3244 333.211C86.6887 335.491 86.3967 337.354 87.4281 339.477C97.5691 360.35 107.952 380.835 120.418 397.77C126.245 405.672 132.479 412.459 140.172 414.208C145.459 415.382 148.325 412.643 150.523 404.214C152.634 396.115 153.409 387.617 153.819 378.955C153.905 377.137 153.849 375.639 152.882 374.524C141.251 360.776 132.777 342.044 124.978 322.086C114.784 296.012 107.416 267.754 103.532 236.684C102.398 227.605 101.768 218.362 102.65 208.944C103.311 201.942 104.805 195.545 108.186 190.891C113.233 183.955 118.216 185.865 123.037 190.689C130.415 198.158 135.823 209.202 140.34 221.387C154.527 259.688 161.332 302.721 164.377 348.024C164.617 351.632 165.201 354.07 167.048 355.556C167.328 355.841 167.593 356.163 167.843 356.518C177.429 367.405 183.33 363.955 186.723 341.509C188.524 329.587 187.649 317.573 186.683 305.695C185.856 295.591 184.619 285.622 183.349 275.673C183.224 274.487 182.943 273.376 182.529 272.422C182.115 271.469 181.578 270.697 180.958 270.166C165.137 254.749 152.902 232.389 141.177 209.114C133.135 193.149 125.348 176.758 119.75 157.718C115.141 142.038 111.505 125.626 112.939 107.149C114.309 89.8222 121.609 82.7766 130.561 90.2592C140.171 98.2643 147.876 110.6 155.087 123.823C165.408 142.749 172.424 165.312 178.292 189.201C182.883 207.878 187.268 226.678 190.658 246.187C191.045 248.42 191.929 249.576 192.948 250.67C198.663 256.88 204.619 262.242 210.612 267.578C220.454 276.331 226.122 271.236 232.573 252.828C236.432 241.862 234.903 229.573 233.326 218.188C229.16 188.041 221.191 161.019 211.237 135.74C210.384 133.567 209.632 131.269 208.738 129.149C207.912 127.2 206.963 125.41 206.068 123.543C205.363 123.649 205.181 124.579 205.034 125.518C201.442 147.948 189.219 157.193 176.748 150.871C163.968 144.394 152.781 121.216 151.945 99.1663C151.159 78.4225 158.944 64.4892 170.995 64.791C175.802 64.9325 180.279 67.3374 185.467 69.3007ZM79.4779 318.797C86.2351 281.477 85.0147 246.693 75.5445 213.574C73.1638 205.032 69.2685 198.092 64.4018 193.722C59.6431 189.503 57.5607 191.365 56.5821 200.608C55.6035 209.85 56.1972 218.824 57.0476 227.809C58.8323 247.008 62.6848 264.994 67.3216 282.343C70.5997 294.686 73.9974 307.137 79.4779 318.797ZM115.867 203.251C112.587 220.229 135.467 300.576 151.519 329.726C151.445 328.214 151.451 327.102 151.332 326.042C148.717 302.512 144.813 279.547 139.671 257.453C135.87 241.21 131.309 225.6 124.361 212.624C122.113 208.349 119.601 204.575 115.877 203.241L115.867 203.251ZM173.213 223.286C164.32 178.904 152.634 137.996 128.551 112.509C137.759 156.505 154.839 190.704 173.223 223.277L173.213 223.286ZM190.623 130.613C195.748 125.383 196.389 105.767 191.783 100.57C185.644 93.6978 178.948 88.8073 171.537 86.9884C165.891 85.5903 163.887 89.2006 164.925 98.9577C166.594 114.608 175.411 129.453 184.534 131.923C186.741 132.506 188.929 132.791 190.633 130.603L190.623 130.613Z" fill="#FBB506"/>
</svg>
