<svg width="119" height="136" viewBox="0 0 119 136" fill="none" xmlns="http://www.w3.org/2000/svg">
<g clip-path="url(#clip0_176_16613)">
<path d="M131.88 186.15C129.003 185.375 126.453 183.692 124.608 181.35C115.156 169.965 106.21 158.172 97.0082 146.592C82.4608 128.291 68.159 109.807 54.9323 90.5166C50.3253 83.7924 46.0834 76.8282 42.0537 69.7465C41.2616 68.498 40.697 67.1185 40.3863 65.672C40.1168 64.0224 40.4247 62.4765 41.927 61.5567C42.5643 61.1735 43.3003 60.9876 44.0425 61.0223C44.7847 61.057 45.4999 61.3109 46.0979 61.7519C49.6412 64.085 52.7547 67.0139 55.3009 70.4096C65.0632 82.9151 73.8379 96.1194 83.2289 108.863C98.7127 129.915 114.241 150.946 129.814 171.958C132.233 175.241 134.615 178.559 134.847 182.875C135.006 186.132 134.122 186.849 131.88 186.15Z" fill="#FBB506"/>
<path d="M146.581 167.755C143.768 166.266 141.277 164.234 139.252 161.777C128.305 148.987 119.024 135.01 109.264 121.332C97.3333 104.665 85.0458 88.2546 72.9497 71.7063C68.3527 65.4101 64.0379 58.9163 60.0053 52.2246C59.1579 50.9135 58.4964 49.4908 58.0398 47.9972C57.643 46.5186 57.8265 45.1783 59.1305 44.2652C60.3202 43.4591 61.5895 43.6677 62.7739 44.4806C65.3788 46.3368 67.6703 48.5983 69.5618 51.1794C91.3325 79.5958 113.02 108.108 132.953 137.87C136.804 143.622 140.978 149.162 144.96 154.818C147.216 158.037 149.094 161.451 149.394 165.483C149.554 167.729 148.726 168.416 146.581 167.755Z" fill="#FBB506"/>
<path d="M81.9261 32.1682C83.5085 32.6565 84.4478 33.9567 85.4257 35.1535C93.3287 44.9087 100.148 55.455 107.705 65.4763C123.935 87.0568 139.457 109.178 155.583 130.808C157.909 133.933 160.153 137.127 162.352 140.356C164.118 142.841 165.149 145.774 165.325 148.82C165.432 150.887 164.615 151.517 162.73 150.65C159.761 149.3 157.497 147.096 155.518 144.513C142.237 127.11 128.921 109.731 115.869 92.1559C107.044 80.2785 97.5199 68.9316 89.1171 56.7371C85.4326 51.3892 81.7681 46.0204 78.8081 40.2112C78.0684 38.9359 77.583 37.5288 77.3786 36.0678C77.1054 33.1355 79.2953 31.2819 81.9261 32.1682Z" fill="#FBB506"/>
<path d="M98.7736 22.8097C100.699 23.8427 102.422 25.2152 103.86 26.861C109.66 33.2956 114.698 40.3357 119.862 47.2725C135.327 68.0406 149.394 89.7875 164.537 110.788C167.165 114.263 168.959 118.297 169.781 122.578C169.948 123.552 170.389 124.712 169.331 125.463C168.273 126.215 167.535 125.316 166.72 124.909C163.943 123.487 161.527 121.45 159.655 118.952C143.567 98.032 126.983 77.4885 112.356 55.4737C106.942 47.3274 100.878 39.5977 96.453 30.8139C95.5988 29.1942 94.8602 27.5287 94.9068 25.6444C94.888 25.1709 94.9858 24.6999 95.1916 24.273C95.3974 23.846 95.7049 23.4762 96.087 23.1961C96.469 22.916 96.9139 22.7343 97.3824 22.6669C97.851 22.5995 98.3287 22.6486 98.7736 22.8097Z" fill="#FBB506"/>
<path d="M102.697 189.699C99.6995 188.037 97.0243 185.85 94.7992 183.241C87.0825 174.33 80.3302 164.686 73.4691 155.13C63.7243 141.558 54.0782 127.916 44.5308 114.202C40.2906 107.96 36.4686 101.444 33.09 94.6957C32.3398 93.3274 31.8835 91.8169 31.7504 90.2612C31.5992 87.8548 33.17 86.6917 35.4056 87.5646C37.216 88.2791 38.5599 89.6499 39.9011 90.9859C45.2138 96.3886 49.2062 102.801 53.5205 108.96C68.7649 130.729 83.9683 152.529 99.1308 174.358C101.865 178.288 104.294 182.373 105.428 187.103C105.644 188.025 105.866 188.995 105.019 189.764C104.363 190.355 103.691 190.012 102.697 189.699Z" fill="#FBB506"/>
<path d="M72.4019 182.569C69.7577 181.139 67.428 179.191 65.5513 176.841C59.8387 169.443 54.3533 161.858 48.633 154.485C39.7984 143.032 31.1494 131.46 23.4612 119.188C21.2019 115.689 19.2708 111.988 17.6927 108.132C16.9559 106.263 16.4831 104.307 18.4731 102.948C20.6131 101.519 22.3094 102.911 23.6565 104.425C27.809 109.187 31.6659 114.199 35.2052 119.435C45.3402 134.001 56.4079 147.893 66.291 162.639C69.9094 168.048 73.5178 173.467 74.7287 180.052C75.1419 182.465 74.554 183.186 72.4019 182.569Z" fill="#FBB506"/>
<path d="M165.871 89.1957C163.082 88.0142 160.603 86.2027 158.629 83.9029C146.036 69.3374 134.563 53.951 124.885 37.2673C124.071 35.9334 123.474 34.4789 123.114 32.9575C122.949 32.4142 122.955 31.8331 123.132 31.293C123.308 30.753 123.646 30.2802 124.1 29.939C125.005 29.201 126.034 29.3762 127.049 29.7709C128.066 30.2503 128.992 30.903 129.785 31.6999C136.177 37.1577 140.883 44.0005 145.53 50.8795C151.568 59.8353 157.488 68.9311 163.461 77.962C164.949 80.3062 166.009 82.897 166.591 85.6136C166.779 86.2231 166.811 86.8702 166.686 87.4959C166.56 88.1216 166.28 88.7059 165.871 89.1957Z" fill="#FBB506"/>
<path d="M10.3659 132.227C11.1314 129.439 14.3455 128.742 16.5649 131.027C19.5274 134.064 22.0004 137.546 24.4577 140.969C28.1929 146.109 31.3437 151.563 32.8518 157.799C33.0482 158.633 33.7546 159.678 32.6816 160.391C31.6085 161.104 30.7863 160.281 29.9241 159.696C23.9105 155.644 19.7212 149.957 15.9076 143.952C14.1966 141.248 12.6128 138.46 11.0185 135.663C10.6829 135.164 10.4521 134.603 10.3399 134.012C10.2277 133.422 10.2365 132.814 10.3659 132.227Z" fill="#FBB506"/>
</g>
<defs>
<clipPath id="clip0_176_16613">
<rect width="167.683" height="154.898" fill="white" transform="translate(0 160.229) rotate(-72.8522)"/>
</clipPath>
</defs>
</svg>
