<svg id="Слой_1" data-name="Слой 1" xmlns="http://www.w3.org/2000/svg" viewBox="0 0 1921 2275.95"><defs><style>.cls-1{fill:#fc0;}.cls-1,.cls-2{fill-rule:evenodd;}.cls-2{fill:#fbb506;}</style></defs><path class="cls-1" d="M1759.91,201.2c-28.58-10.4-25.81-9.51-44.38-16.58-74-28.13-147.92-56.27-221.88-47.38-40.35,4.84-80.69,20.7-121,36.56-48.41,19-96.82,38.06-145.23,38.06s-96.82-19-145.23-38.06c-40.35-15.86-80.69-31.72-121-36.56-49.31-5.93-98.62,4.6-147.92,15.13-39.45,8.43-78.89,16.85-118.34,16.85-59.17,0-118.34-18.95-177.51-37.91-29.58-9.47-59.17-19-88.75-26.06-44.38-10.66-88.75-16-133.13-21.32S206.73,73.27,162.35,62.61C111.86,50.48,60.63,37.83.14,5.13L0,5.05V414.61c196.14-156.83,335.64-162,413.12-149.6l1.88.3c36.16,5.93,118.89,26.94,266,106.5,88.75,48,177.5,96,266,106.5,103.56,12.22,206.78-26,310.06-64.23,179.28-66.38,180.61-56.37,222.94-63.77,98.71-17.23,243.84-9.82,441,106V253.49C1884.29,243,1828.28,226.09,1759.91,201.2Z" transform="translate(0 -5.05)"/><path class="cls-2" d="M1921,456.34c-197.16-115.85-342.29-123.26-441-106-42.33,7.4-43.66-2.61-222.94,63.77-103.28,38.23-206.5,76.45-310.06,64.23-88.5-10.5-177.25-58.5-266-106.5-147-79.48-229.61-100.44-266-106.5-77.09-12.83-217.28-8.8-415,149.3V731.23l62.08,7.44c81.86,9.81,245.59,29.43,409.32-29.44,59.54-21.41,119.08-53.19,178.62-85C754.21,568.62,858.4,513,962.59,513c95.51,0,191,46.74,286.53,93.48,68.22,33.39,136.44,66.78,204.66,83.13,163.73,39.24,327.46-19.63,409.33-49.06L1921,619.73Z" transform="translate(0 -5.05)"/><path class="cls-1" d="M1921,830.22V619.73l-57.89,20.82c-81.87,29.43-245.6,88.3-409.33,49.06-68.22-16.35-136.44-49.74-204.66-83.13-95.51-46.74-191-93.48-286.53-93.48C858.4,513,754.21,568.62,650,624.25c-59.54,31.79-119.08,63.57-178.62,85C307.67,768.1,143.94,748.48,62.08,738.67L0,731.23V865l80,28.54c80,28.55,240,85.64,400,161.76,18.82,9,37.65,18.17,56.47,27.39C677.65,1151.83,818.82,1221,960,1179c80-23.79,160-83.26,240-142.72s160-118.94,240-142.73c160-47.57,320,47.58,400,95.15l81,48.15Z" transform="translate(0 -5.05)"/><path class="cls-2" d="M480,1231.31c160,0,320,43.15,480,100.69,20,7.2,40,14.61,60,22,140,51.92,280,103.85,420,78.67,160-28.77,320-158.24,400-223l81-65.5V1036.84l-81-48.15c-80-47.57-240-142.72-400-95.15-80,23.79-160,83.26-240,142.73S1040,1155.2,960,1179c-141.18,42-282.35-27.16-423.53-96.3-18.82-9.22-37.65-18.44-56.47-27.39C320,979.18,160,922.09,80,893.54L0,865v452.62L80,1296C160,1274.46,320,1231.31,480,1231.31Z" transform="translate(0 -5.05)"/><path class="cls-1" d="M1840,1209.73c-80,64.73-240,194.2-400,223-140,25.18-280-26.75-420-78.67-20-7.42-40-14.83-60-22-160-57.54-320-100.69-480-100.69S160,1274.46,80,1296L0,1317.62V1555.1l80,9.66c80,9.66,240,29,400,9.66,71.11-8.59,142.22-24.8,213.33-41,88.89-20.28,177.78-40.55,266.67-45.91,160-9.66,320,29,480,77.27S1760,1671,1840,1700l81,29.26v-585Z" transform="translate(0 -5.05)"/><path class="cls-2" d="M1840,1700l81,29.26v427.8l-81,20.83c-80,20.62-240,61.87-400,51.56s-320-72.19-480-134.06-320-123.75-480-92.82S160,2157.25,80,2219.13L0,2281V1555.1l80,9.66c80,9.66,240,29,400,9.66,71.11-8.59,142.22-24.8,213.33-41,88.89-20.28,177.78-40.55,266.67-45.91,160-9.66,320,29,480,77.27S1760,1671,1840,1700Z" transform="translate(0 -5.05)"/></svg>