<svg width="73" height="117" viewBox="0 0 73 117" fill="none" xmlns="http://www.w3.org/2000/svg">
<g clip-path="url(#clip0_397_18)">
<path d="M76.3148 105.328C74.6489 104.877 73.1677 103.916 72.0904 102.587C66.5757 96.1238 61.3507 89.4335 55.9792 82.8619C47.4871 72.4759 39.1362 61.9885 31.4024 51.0511C28.7086 47.2386 26.2246 43.2927 23.8627 39.2814C23.3991 38.5739 23.0663 37.7935 22.8799 36.9767C22.7163 36.0456 22.8867 35.1756 23.7503 34.6643C24.1166 34.4513 24.541 34.35 24.9699 34.3732C25.3989 34.3963 25.8133 34.5428 26.1609 34.7943C28.2191 36.1264 30.0319 37.7923 31.5191 39.7186C37.2189 46.8146 42.3515 54.2998 47.8379 61.5283C56.8841 73.4692 65.9559 85.399 75.0534 97.3176C76.4669 99.1795 77.8585 101.061 78.0132 103.496C78.121 105.332 77.6133 105.732 76.3148 105.328Z" fill="#FBB506"/>
<path d="M84.7195 95.028C83.0872 94.1753 81.6385 93.0183 80.4568 91.6236C74.071 84.3616 68.6422 76.4381 62.9385 68.6813C55.9659 59.2292 48.7885 49.9198 41.7211 40.5337C39.0352 36.9626 36.5113 33.2814 34.1495 29.49C33.6537 28.7469 33.2647 27.9417 32.9938 27.0976C32.7575 26.2622 32.8571 25.5076 33.606 24.9991C34.2895 24.5505 35.0238 24.6741 35.712 25.138C37.2258 26.1968 38.5605 27.4825 39.6656 28.9465C52.3791 45.0689 65.0448 61.2452 76.7036 78.1172C78.9559 81.3779 81.3937 84.5205 83.7212 87.7281C85.0402 89.5533 86.1415 91.4867 86.3337 93.761C86.4369 95.028 85.9618 95.4113 84.7195 95.028Z" fill="#FBB506"/>
<path d="M46.7177 18.2893C47.6343 18.5721 48.1831 19.3095 48.7538 19.9888C53.3663 25.5256 57.3565 31.5031 61.7703 37.1882C71.2501 49.4307 80.3232 61.9747 89.7436 74.2446C91.1024 76.0172 92.4138 77.8286 93.6998 79.6589C94.732 81.0681 95.3413 82.7267 95.4581 84.4446C95.5297 85.6104 95.0607 85.9613 93.9673 85.4638C92.2459 84.6887 90.9269 83.4353 89.7716 81.9695C82.0153 72.0963 74.2393 62.2362 66.6147 52.2665C61.4591 45.529 55.9026 39.0872 50.9897 32.173C48.8355 29.1408 46.6927 26.0969 44.9548 22.8082C44.5214 22.0857 44.2342 21.2902 44.1092 20.4657C43.9373 18.8115 45.1936 17.7771 46.7177 18.2893Z" fill="#FBB506"/>
<path d="M56.4063 13.0944C57.5235 13.6859 58.5256 14.4678 59.3644 15.4025C62.7459 19.0573 65.69 23.0499 68.7067 26.9849C77.7408 38.7658 85.9715 51.0917 94.8205 63.0023C96.3556 64.9733 97.4116 67.2558 97.9067 69.6731C98.0077 70.2228 98.2679 70.8788 97.6604 71.2975C97.0528 71.7162 96.6222 71.2059 96.1492 70.9723C94.5381 70.1577 93.1325 68.9977 92.0394 67.5806C82.6444 55.7113 72.9652 44.0516 64.4094 31.5719C61.2426 26.954 57.7025 22.5678 55.1039 17.5952C54.6027 16.6781 54.168 15.7357 54.1859 14.6738C54.1728 14.4068 54.227 14.1418 54.3439 13.9021C54.4607 13.6624 54.6366 13.4554 54.856 13.2994C55.0754 13.1433 55.3315 13.043 55.6019 13.0073C55.8723 12.9715 56.1485 13.0014 56.4063 13.0944Z" fill="#FBB506"/>
<path d="M59.4721 107.188C57.7322 106.236 56.1762 104.991 54.8782 103.509C50.3775 98.4493 46.4303 92.9806 42.4207 87.5612C36.726 79.8644 31.0878 72.1279 25.5064 64.3517C23.0268 60.8132 20.7876 57.1218 18.8034 53.3015C18.3634 52.5266 18.0926 51.673 18.0082 50.7954C17.9094 49.4382 18.8113 48.7901 20.107 49.2928C21.1564 49.7043 21.9394 50.4834 22.7206 51.2429C25.8157 54.3138 28.153 57.9476 30.6749 61.4402C39.5862 73.7843 48.474 86.1452 57.3383 98.5231C58.9369 100.751 60.3597 103.066 61.0371 105.738C61.1667 106.258 61.2995 106.806 60.814 107.236C60.4377 107.566 60.0475 107.369 59.4721 107.188Z" fill="#FBB506"/>
<path d="M41.9353 103.023C40.4008 102.204 39.0455 101.095 37.9501 99.7616C34.6143 95.5642 31.4089 91.2622 28.0689 87.0788C22.9101 80.5805 17.8579 74.016 13.3575 67.0614C12.0355 65.0781 10.9022 62.9825 9.97201 60.8014C9.53737 59.7447 9.2549 58.6396 10.3981 57.883C11.6275 57.0881 12.6142 57.8806 13.3997 58.7405C15.8215 61.4446 18.0737 64.2887 20.1435 67.2567C26.0685 75.5163 32.5291 83.3998 38.3095 91.7597C40.4258 94.826 42.5364 97.898 43.2675 101.616C43.5177 102.978 43.1815 103.381 41.9353 103.023Z" fill="#FBB506"/>
<path d="M95.4885 50.837C93.8713 50.1576 92.4306 49.1246 91.2792 47.8188C83.9342 39.548 77.2324 30.8199 71.5612 21.369C71.0848 20.6132 70.7325 19.7904 70.5175 18.9311C70.4196 18.6241 70.4204 18.2965 70.5196 17.9929C70.6189 17.6894 70.812 17.4245 71.0725 17.2343C71.5916 16.8226 72.187 16.9263 72.7756 17.1537C73.3653 17.4288 73.9032 17.8011 74.3653 18.2541C78.0844 21.3612 80.8359 25.241 83.5537 29.141C87.0845 34.2182 90.5481 39.3737 94.0425 44.4931C94.9133 45.8216 95.5379 47.2871 95.887 48.8212C95.9986 49.1656 96.0206 49.5306 95.951 49.8827C95.8814 50.2348 95.7224 50.5628 95.4885 50.837Z" fill="#FBB506"/>
<path d="M5.85433 74.3501C6.28324 72.7821 8.13677 72.4047 9.42997 73.7035C11.156 75.4293 12.6014 77.404 14.0374 79.3454C16.2199 82.2605 18.0663 85.3502 18.9675 88.8726C19.0849 89.3434 19.498 89.936 18.8815 90.3329C18.265 90.7298 17.786 90.2617 17.2851 89.928C13.7915 87.6148 11.344 84.3892 9.11204 80.9861C8.11064 79.4534 7.18227 77.8745 6.24782 76.29C6.05154 76.0075 5.91552 75.6898 5.84788 75.3564C5.78024 75.0229 5.78238 74.6805 5.85433 74.3501Z" fill="#FBB506"/>
</g>
<defs>
<clipPath id="clip0_397_18">
<rect width="94.2746" height="89.7175" fill="white" transform="translate(0 90.084) rotate(-72.8522)"/>
</clipPath>
</defs>
</svg>
