<svg width="112" height="118" viewBox="0 0 112 118" fill="none" xmlns="http://www.w3.org/2000/svg">
<path d="M3.98127 19.3448C6.57298 13.0711 9.54768 7.35834 15.4049 3.8116C21.3111 0.22746 27.8739 -0.215523 34.5432 0.0721281C45.82 0.589901 55.8959 4.44155 64.8978 11.1755C68.2584 13.6867 71.3713 16.4567 73.8103 19.9114C73.9624 20.1725 74.1659 20.4001 74.4084 20.5806C74.6509 20.761 74.9274 20.8906 75.2214 20.9614C91.264 24.8878 101.982 34.8521 108.029 50.0315C111.197 57.9505 112.608 66.1888 111.756 74.6832C110.808 84.1124 107.479 92.6441 101.136 99.8354C100.41 100.661 100.105 101.42 100.24 102.508C101.144 109.679 101.058 116.83 98.636 123.702C94.7686 134.69 87.0511 141.559 75.5094 143.55C68.1921 144.821 61.3212 142.733 54.8621 139.31C52.8464 138.234 50.8997 137.009 48.763 135.737C46.8797 138.85 45.005 141.974 42.7387 144.839C34.2725 155.528 23.5659 162.774 10.0574 165.216C-2.86946 167.551 -14.8546 164.623 -25.5411 157.055C-38.9603 147.563 -47.2365 134.42 -50.2256 118.423C-52.7079 105.151 -49.1918 93.0152 -40.1209 82.7547C-38.1242 80.5131 -35.713 78.6778 -33.0196 77.3497C-32.5955 77.1689 -32.2248 76.8825 -31.943 76.5179C-31.6612 76.1534 -31.4777 75.7227 -31.4099 75.2671C-31.1219 73.7397 -30.8886 72.2036 -30.5056 70.7021C-30.1428 69.2638 -29.6245 67.8745 -29.1291 66.3183C-32.7519 64.0337 -35.9952 61.1978 -38.7415 57.9131C-47.1213 47.8769 -48.7195 32.2057 -42.0934 22.0286C-37.5695 15.0818 -30.8627 11.4718 -22.7276 10.4449C-13.1815 9.2396 -5.01193 12.608 2.45217 18.2114C2.95612 18.5796 3.4399 18.9421 3.98127 19.3448ZM24.6371 77.1627C27.8998 67.0403 31.0962 64.7304 39.7468 66.1083C32.0955 56.7452 32.7002 46.7263 37.6734 36.601C42.7992 26.165 52.1552 21.9566 63.3284 20.0898C62.7697 19.3563 62.0296 18.827 61.3327 18.2402C50.7586 9.3489 38.5402 5.48861 24.8272 6.76578C19.7043 7.24041 15.5028 9.64229 13.1645 14.633C11.9493 17.2219 10.7687 19.7935 9.99691 22.555C9.54192 24.1716 9.58511 25.4315 10.8608 26.7518C11.9752 27.9024 12.7671 29.3608 13.6109 30.7387C14.0891 31.5974 14.864 32.2528 15.7908 32.5825C18.1672 33.4168 20.1843 35.0417 21.5041 37.1849C25.2332 43.194 24.3837 49.1484 20.7265 54.7317C13.9046 65.1188 3.48309 69.2696 -8.32931 70.6935C-12.7166 71.1918 -17.1588 70.8492 -21.4174 69.6838C-21.9933 71.1738 -22.4685 72.5402 -22.6499 74.0906C-21.2273 74.0906 -19.92 74.1136 -18.6184 74.0906C-12.237 73.964 -6.17244 75.3879 -0.796104 78.7391C2.27074 80.6491 4.7271 81.0978 8.0992 79.4266C13.2164 76.8751 18.8692 76.5414 24.6371 77.1627ZM32.9623 117.575C29.2187 122.177 24.8646 125.744 19.6035 128.132C18.777 128.506 18.394 129.081 18.0715 129.858C16.4625 133.856 14.073 137.494 11.0422 140.561C4.26637 147.312 -3.49722 151.708 -13.5098 150.033C-23.1798 148.414 -29.4833 140.958 -30.2119 131.048C-30.7187 124.211 -28.9823 117.868 -25.8348 111.871C-25.2589 110.772 -25.2186 109.918 -25.8348 108.796C-27.5116 105.683 -28.8626 102.405 -29.8663 99.0156C-31.1712 94.7575 -31.9449 90.3548 -32.1701 85.9073C-32.334 85.9438 -32.4927 86.0009 -32.6423 86.0771C-32.8824 86.2761 -33.1112 86.4883 -33.3277 86.7128C-41.3591 95 -44.4548 105.051 -42.4044 116.186C-39.6256 131.27 -31.8504 143.435 -18.6385 151.696C-9.91312 157.161 -0.421745 159.402 9.73485 156.897C24.45 153.267 34.2725 143.57 41.3738 130.68C41.7452 130.004 41.7884 129.492 41.1923 128.874C37.947 125.523 35.3783 121.703 32.9623 117.572V117.575ZM-25.9846 59.2363C-25.6966 58.7847 -25.5152 58.4769 -25.3309 58.1605C-19.3959 47.9718 -11.353 39.8716 -0.853683 34.4896C1.8964 33.0801 2.0807 31.0637 2.38018 28.7107C2.41182 28.4328 2.36967 28.1514 2.25796 27.8949C2.14624 27.6384 1.96891 27.4158 1.74377 27.2494C-4.70957 21.528 -11.7907 17.2651 -20.8501 17.918C-26.9406 18.3581 -31.9887 20.8722 -35.5364 25.9378C-38.6234 30.3388 -39.3117 35.3296 -38.4564 40.5159C-37.126 48.5644 -32.6251 54.5591 -25.9846 59.2334V59.2363ZM96.4014 89.0571C110.42 69.4796 99.9146 38.1974 78.8066 30.4107C81.7957 43.985 80.3386 56.4001 69.5456 66.4938C75.5526 67.9665 80.5689 71.0732 85.1937 74.9478C89.8334 78.8561 93.6432 83.6524 96.3985 89.0542L96.4014 89.0571ZM57.5258 102.723C57.4079 110.619 55.912 118.434 53.1055 125.816C52.7225 126.832 53.4165 127.174 53.9954 127.594C57.6086 130.241 61.6227 132.293 65.8855 133.672C71.5988 135.487 77.0932 135.196 82.1556 131.888C91.3706 125.848 93.4526 116.608 93.49 106.23C80.7446 112.645 68.9408 111.106 57.5229 102.721L57.5258 102.723ZM71.7773 40.5907C71.9558 38.0019 71.2014 34.737 70.1532 31.5326C69.0013 27.9513 68.9581 27.9427 65.1022 28.0434C64.1723 28.1052 63.2465 28.2186 62.3291 28.3828C49.1402 30.1893 41.8518 39.791 42.494 51.4467C42.7646 56.3885 45.1692 60.2891 49.4829 62.6651C53.5145 64.8714 57.4769 63.7064 61.0909 61.3419C68.2497 56.6359 71.8464 49.9883 71.7802 40.5821L71.7773 40.5907ZM2.91005 90.3544C-4.61165 95.955 -10.4833 102.885 -15.3586 110.717C-15.8683 111.534 -15.5774 112.063 -15.0389 112.688C-13.1138 114.98 -10.9147 117.028 -8.49057 118.786C-2.86945 122.741 3.17209 125.402 10.2849 124.64C11.7103 124.487 12.5886 124.105 12.9428 122.476C13.9563 117.664 14.054 112.704 13.2308 107.855C12.0933 100.75 8.8364 94.8734 2.90717 90.3429L2.91005 90.3544ZM77.8534 99.7002C82.3572 99.8009 86.2592 98.2073 89.948 95.8428C91.1517 95.0719 91.2957 94.4046 90.6823 93.1504C86.4953 84.5209 79.7626 78.6067 71.0344 74.9162C68.0965 73.6597 64.8376 73.3578 61.7186 74.0532C57.3761 74.9967 54.7729 77.5453 54.9831 80.9914C55.094 83.6718 55.9386 86.2705 57.425 88.5049C62.3349 95.7076 69.2806 99.1969 77.8505 99.6887L77.8534 99.7002ZM-19.1597 118.329C-20.8674 122.324 -21.8465 126.291 -21.6766 130.557C-21.3656 138.407 -15.8164 142.29 -9.29399 142.54C-4.48206 142.724 -0.387184 140.624 3.33047 137.734C5.72171 135.884 7.75123 133.61 9.31731 131.025C-2.19561 130.954 -11.1917 126.006 -19.1626 118.317L-19.1597 118.329ZM45.6875 119.767C45.8754 119.409 46.0417 119.04 46.1857 118.662C48.7515 110.033 49.768 101.268 48.0661 92.3479C46.8739 86.0943 44.6998 80.2665 39.8735 75.7906C38.5661 74.5796 37.0715 73.0666 35.1335 73.7771C33.4288 74.4128 33.2646 76.4177 32.7924 77.9883C32.5044 78.9721 32.6801 79.7861 33.7628 80.4736C36.8239 82.421 38.8224 85.2774 39.8101 88.7378C41.4976 94.6922 40.6567 100.532 38.8339 106.328C38.6438 106.935 38.2839 107.478 38.6381 108.269C40.4868 112.357 42.7128 116.197 45.6846 119.761L45.6875 119.767ZM-18.1807 62.7312C-8.08454 64.6182 1.0901 62.6478 9.80109 56.7999C6.63346 55.3616 4.64647 53.1927 3.20088 50.4975C1.75528 47.8022 1.38958 44.8652 0.871235 41.9139C-5.19046 44.6869 -16.2743 56.7682 -18.1807 62.7312ZM9.85867 86.2612C14.5583 90.6565 17.6626 95.7911 19.2435 101.84C20.8569 107.922 21.3304 114.249 20.6402 120.503C24.0439 118.012 26.6356 115.507 28.7695 112.483C29.57 111.333 29.7773 110.412 29.2446 109.095C28.4095 107.035 27.7558 104.898 27.1223 102.767C25.2221 96.513 24.1921 90.028 24.0612 83.4939C19.0362 82.887 14.4892 84.0865 9.86732 86.2612H9.85867ZM-20.6658 103.195C-15.8285 96.6281 -10.094 90.7702 -3.62969 85.7923C-9.63955 82.5591 -15.8164 80.9338 -22.5462 81.7278C-23.8277 81.8802 -24.179 82.4872 -24.2136 83.6464C-24.4498 90.3424 -23.2367 97.0104 -20.6572 103.195H-20.6658ZM7.72485 38.9828C8.01281 43.9016 9.76653 48.0495 12.5281 49.9595C13.0148 47.1492 13.2855 44.4941 12.2402 41.8851C10.8608 38.5081 10.8464 38.5139 7.71908 38.9828H7.72485ZM32.8816 88.4588C33.1437 90.9499 33.5123 93.4179 34.4654 95.7565C34.7189 93.1562 34.3099 90.6967 32.8759 88.4617L32.8816 88.4588Z" fill="#FBB506"/>
</svg>
