<svg width="257" height="370" viewBox="0 0 257 370" fill="none" xmlns="http://www.w3.org/2000/svg">
<path d="M-61.7546 -63.7814C-54.1067 -82.3379 -45.3286 -99.2353 -28.0444 -109.726C-10.6156 -120.327 8.75055 -121.637 28.4312 -120.787C61.708 -119.255 91.4414 -107.863 118.005 -87.9448C127.922 -80.5171 137.108 -72.3237 144.305 -62.1053C144.754 -61.3331 145.355 -60.6599 146.07 -60.1261C146.786 -59.5924 147.602 -59.2093 148.469 -58.9998C195.81 -47.386 227.438 -17.9134 245.283 26.9846C254.631 50.4078 258.795 74.7754 256.279 99.9003C253.484 127.79 243.66 153.026 224.94 174.296C222.798 176.738 221.898 178.984 222.297 182.201C224.965 203.412 224.71 224.563 217.564 244.889C206.151 277.391 183.378 297.709 149.319 303.596C127.726 307.357 107.451 301.18 88.3907 291.055C82.4424 287.873 76.6979 284.248 70.3927 280.488C64.8352 289.694 59.3032 298.934 52.6155 307.408C27.6324 339.025 -3.96198 360.457 -43.8246 367.68C-81.9706 374.589 -117.338 365.928 -148.873 343.542C-188.472 315.465 -212.894 276.591 -221.715 229.277C-229.04 190.02 -218.664 154.123 -191.897 123.774C-186.005 117.144 -178.889 111.716 -170.941 107.787C-169.69 107.253 -168.596 106.406 -167.764 105.327C-166.933 104.249 -166.391 102.975 -166.191 101.627C-165.341 97.1096 -164.653 92.5662 -163.523 88.1249C-162.452 83.8708 -160.922 79.7613 -159.461 75.1583C-170.151 68.401 -179.722 60.0128 -187.826 50.2971C-212.554 20.6119 -217.271 -25.7411 -197.717 -55.8432C-184.368 -76.3907 -164.576 -87.0684 -140.571 -90.1059C-112.401 -93.6708 -88.2929 -83.7077 -66.2669 -67.1336C-64.7798 -66.0445 -63.3522 -64.9726 -61.7546 -63.7814ZM-0.800827 107.234C8.82704 77.2939 18.2595 70.4617 43.7865 74.5371C21.2081 46.8428 22.9926 17.2086 37.6681 -12.7404C52.794 -43.6084 80.4029 -56.0559 113.374 -61.5778C111.725 -63.7474 109.541 -65.3129 107.485 -67.0485C76.2816 -93.3475 40.226 -104.766 -0.239975 -100.988C-15.3573 -99.5841 -27.7554 -92.4797 -34.6555 -77.7179C-38.2416 -70.0605 -41.7256 -62.4541 -44.003 -54.2862C-45.3456 -49.5045 -45.2181 -45.778 -41.4537 -41.8727C-38.1651 -38.4694 -35.8282 -34.1557 -33.3384 -30.0802C-31.9271 -27.5402 -29.6405 -25.6015 -26.9057 -24.6264C-19.893 -22.1587 -13.9407 -17.3524 -10.0463 -11.0132C0.958206 6.76049 -1.54863 24.3726 -12.3407 40.8871C-32.4716 71.6104 -63.2247 83.8877 -98.0822 88.0993C-111.029 89.5735 -124.137 88.5599 -136.704 85.1129C-138.404 89.5202 -139.806 93.5616 -140.341 98.1475C-136.143 98.1475 -132.285 98.2156 -128.444 98.1475C-109.614 97.7732 -91.7175 101.985 -75.8523 111.897C-66.8023 117.546 -59.5537 118.874 -49.603 113.93C-34.5026 106.384 -17.8217 105.397 -0.800827 107.234ZM23.7659 226.767C12.719 240.38 -0.129501 250.93 -15.6548 257.992C-18.0936 259.098 -19.2238 260.8 -20.1755 263.097C-24.9237 274.923 -31.9749 285.685 -40.9183 294.756C-60.9133 314.725 -83.8231 327.726 -113.369 322.774C-141.905 317.984 -160.506 295.93 -162.656 266.619C-164.152 246.395 -159.027 227.635 -149.74 209.895C-148.04 206.645 -147.921 204.118 -149.74 200.8C-154.688 191.592 -158.674 181.898 -161.636 171.872C-165.487 159.277 -167.77 146.254 -168.434 133.099C-168.918 133.207 -169.386 133.376 -169.828 133.601C-170.536 134.19 -171.212 134.818 -171.85 135.482C-195.55 159.994 -204.685 189.722 -198.635 222.657C-190.435 267.275 -167.491 303.256 -128.504 327.692C-102.756 343.857 -74.7476 350.485 -44.7763 343.074C-1.3532 332.337 27.6324 303.656 48.5876 265.53C49.6838 263.531 49.8113 262.016 48.0523 260.187C38.4754 250.275 30.8955 238.976 23.7659 226.758V226.767ZM-150.181 54.211C-149.332 52.8752 -148.796 51.9647 -148.252 51.0288C-130.739 20.8926 -107.005 -3.06653 -76.0222 -18.9855C-67.9069 -23.1545 -67.3631 -29.1188 -66.4793 -36.0785C-66.386 -36.9006 -66.5103 -37.7329 -66.84 -38.4916C-67.1697 -39.2503 -67.693 -39.9087 -68.3573 -40.4008C-87.4006 -57.3237 -108.296 -69.9328 -135.03 -68.0015C-153.003 -66.6997 -167.899 -59.2635 -178.368 -44.2805C-187.478 -31.2628 -189.509 -16.5011 -186.985 -1.16072C-183.059 22.6454 -169.777 40.3766 -150.181 54.2025V54.211ZM210.97 142.416C252.336 84.5088 221.337 -8.01837 159.049 -31.0502C167.869 9.10022 163.57 45.8219 131.72 75.6773C149.447 80.0335 164.249 89.2225 177.897 100.683C191.588 112.243 202.831 126.43 210.961 142.407L210.97 142.416ZM96.2511 182.839C95.903 206.193 91.4889 229.307 83.2072 251.143C82.077 254.146 84.1249 255.159 85.8329 256.401C96.4952 264.23 108.341 270.3 120.92 274.379C137.779 279.748 153.993 278.888 168.932 269.104C196.124 251.236 202.268 223.908 202.379 193.21C164.768 212.184 129.936 207.632 96.2426 182.83L96.2511 182.839ZM138.306 -0.939499C138.833 -8.59692 136.607 -18.2538 133.513 -27.732C130.114 -38.3247 129.987 -38.3503 118.608 -38.0525C115.864 -37.8695 113.132 -37.5342 110.425 -37.0485C71.5059 -31.7053 49.9982 -3.3048 51.8932 31.1706C52.692 45.7878 59.7876 57.325 72.5171 64.3528C84.4138 70.8786 96.1066 67.4328 106.771 60.439C127.896 46.5195 138.51 26.8569 138.315 -0.96505L138.306 -0.939499ZM-64.9157 146.253C-87.1117 162.819 -104.438 183.315 -118.825 206.483C-120.329 208.899 -119.471 210.465 -117.882 212.311C-112.201 219.092 -105.711 225.15 -98.558 230.349C-81.9706 242.048 -64.1425 249.918 -43.1532 247.663C-38.9469 247.212 -36.3551 246.08 -35.3099 241.265C-32.3192 227.03 -32.0309 212.359 -34.4601 198.017C-37.8167 177.002 -47.4275 159.62 -64.9242 146.219L-64.9157 146.253ZM156.236 173.896C169.527 174.194 181.041 169.481 191.926 162.487C195.478 160.207 195.903 158.233 194.093 154.523C181.738 128.998 161.87 111.505 136.114 100.589C127.444 96.8731 117.828 95.9802 108.624 98.0369C95.8092 100.828 88.1273 108.366 88.7477 118.559C89.075 126.487 91.5674 134.174 95.9537 140.782C110.442 162.087 130.939 172.408 156.228 173.863L156.236 173.896ZM-130.042 228.996C-135.081 240.814 -137.97 252.547 -137.469 265.164C-136.551 288.383 -120.176 299.87 -100.929 300.61C-86.7293 301.154 -74.6456 294.943 -63.6751 286.392C-56.6187 280.922 -50.6298 274.196 -46.0084 266.551C-79.9821 266.339 -106.529 251.704 -130.05 228.962L-130.042 228.996ZM61.3172 233.25C61.8716 232.191 62.3625 231.1 62.7872 229.983C70.3587 204.458 73.3583 178.534 68.3362 152.149C64.8182 133.653 58.4025 116.415 44.1604 103.176C40.3024 99.594 35.8921 95.1186 30.1732 97.2202C25.1425 99.1005 24.6582 105.031 23.2646 109.676C22.4148 112.586 22.9332 114.994 26.1283 117.027C35.1613 122.787 41.0587 131.236 43.9734 141.472C48.9531 159.084 46.4717 176.355 41.0927 193.5C40.5318 195.295 39.4696 196.903 40.5149 199.243C45.9704 211.333 52.5391 222.691 61.3087 233.233L61.3172 233.25ZM-127.153 64.5484C-97.3599 70.1299 -70.2863 64.3017 -44.5808 47.0045C-53.9283 42.7503 -59.7917 36.3352 -64.0575 28.363C-68.3233 20.3907 -69.4025 11.7037 -70.9321 2.97427C-88.8197 11.1762 -121.527 46.9109 -127.153 64.5484ZM-44.4109 134.146C-30.5427 147.147 -21.3822 162.334 -16.717 180.227C-11.9561 198.215 -10.5588 216.931 -12.5956 235.428C-2.55135 228.06 5.09656 220.649 11.3933 211.707C13.7557 208.304 14.3675 205.581 12.7955 201.684C10.3311 195.593 8.40216 189.271 6.53267 182.966C0.925461 164.469 -2.11404 145.288 -2.50037 125.961C-17.3288 124.166 -30.7466 127.714 -44.3854 134.146H-44.4109ZM-134.486 184.234C-120.212 164.81 -103.29 147.483 -84.214 132.759C-101.949 123.196 -120.176 118.389 -140.035 120.737C-143.817 121.188 -144.853 122.983 -144.955 126.412C-145.652 146.217 -142.073 165.94 -134.461 184.234H-134.486ZM-50.7077 -5.69558C-49.8579 8.85352 -44.6828 21.1224 -36.5335 26.7719C-35.0974 18.4594 -34.2987 10.6062 -37.3833 2.88921C-41.4537 -7.09947 -41.4962 -7.08243 -50.7247 -5.69558H-50.7077ZM23.528 140.646C24.3013 148.014 25.389 155.314 28.2017 162.232C28.9495 154.54 27.7428 147.266 23.511 140.655L23.528 140.646Z" fill="#FBB506"/>
</svg>
