<svg width="1920" height="240" viewBox="0 0 1920 240" fill="none" xmlns="http://www.w3.org/2000/svg">
<path d="M939.568 741.709C771.157 739.718 602.55 741.957 434.495 731.592C290.632 722.716 147.734 704.1 8.01642 672C-123.66 641.738 -181.474 549.979 -214.049 444.332C-232.495 384.448 -231.871 320.614 -217.812 260.026C-191.186 145.117 -107.287 76.5418 21.7891 50.9754C156.741 24.3014 293.903 13.4221 431.677 6.33677C650.551 -4.93186 869.492 -6.5246 1088.63 -1.96957C1210.62 0.581044 1331.66 14.1509 1453.39 19.1691C1540.69 22.7709 1628.03 25.8486 1715.3 30.1403C1782.03 33.4292 1848.57 38.8281 1911.89 59.8909C1972.14 79.928 2019.04 113.224 2055.98 160.822C2129.74 255.71 2153.12 362.208 2132.28 471.071C2104.62 615.465 2009.25 695.041 1831.2 715.236C1554.58 746.631 1276.32 750.876 997.784 742.035C978.448 741.428 958.985 741.868 939.568 741.709Z" fill="#FFCC00"/>
</svg>
