<svg xmlns="http://www.w3.org/2000/svg" width="46" height="46" viewBox="0 0 46 46" fill="none">
    <ellipse cx="23" cy="23" rx="23" ry="23" fill="white"/>
    <path fill-rule="evenodd" clip-rule="evenodd" d="M30.6374 18.6376C30.6374 18.7358 30.6353 18.834 30.632 18.9343C30.6276 19.0456 30.6211 19.1547 30.6124 19.2639C30.3614 22.4236 28.2731 25.6685 26.4084 28.7672L22.9999 34V26.2751C18.7818 26.2751 15.3623 22.8557 15.3623 18.6376C15.3623 14.4194 18.7818 11 22.9999 11C27.218 11 30.6374 14.4194 30.6374 18.6376Z" fill="#FFCC00"/>
    <path d="M22.9998 21.911C24.8076 21.911 26.2731 20.4455 26.2731 18.6377C26.2731 16.83 24.8076 15.3645 22.9998 15.3645C21.192 15.3645 19.7266 16.83 19.7266 18.6377C19.7266 20.4455 21.192 21.911 22.9998 21.911Z" fill="white"/>
</svg>