<svg width="46" height="46" viewBox="0 0 46 46" fill="none" xmlns="http://www.w3.org/2000/svg">
<ellipse cx="23" cy="23" rx="23" ry="23" fill="black"/>
<mask id="path-2-inside-1_10_56" fill="white">
<path d="M25.5675 11.3764C24.7963 11.1331 23.97 11 23.1161 11C20.6234 11 18.3924 12.1247 16.9005 13.8967L20.7336 17.1192L25.5675 11.3764Z"/>
</mask>
<path d="M25.5675 11.3764C24.7963 11.1331 23.97 11 23.1161 11C20.6234 11 18.3924 12.1247 16.9005 13.8967L20.7336 17.1192L25.5675 11.3764Z" fill="#FFCC00"/>
<path d="M25.5675 11.3764L61.7982 41.8728L107.507 -12.4313L39.8153 -33.7866L25.5675 11.3764ZM16.9005 13.8967L-19.3259 -16.6049L-49.8498 19.6481L-13.5745 50.1454L16.9005 13.8967ZM20.7336 17.1192L-9.74137 53.368L26.486 83.825L56.9644 47.6156L20.7336 17.1192ZM39.8153 -33.7866C34.5222 -35.4564 28.8944 -36.3571 23.1161 -36.3571V58.3571C19.0456 58.3571 15.0703 57.7227 11.3196 56.5394L39.8153 -33.7866ZM23.1161 -36.3571C6.04285 -36.3571 -9.23633 -28.5882 -19.3259 -16.6049L53.1269 44.3982C46.0212 52.8376 35.204 58.3571 23.1161 58.3571V-36.3571ZM-13.5745 50.1454L-9.74137 53.368L51.2086 -19.1295L47.3755 -22.3521L-13.5745 50.1454ZM56.9644 47.6156L61.7982 41.8728L-10.6633 -19.12L-15.4971 -13.3771L56.9644 47.6156Z" fill="#FFCC00" mask="url(#path-2-inside-1_10_56)"/>
<mask id="path-4-inside-2_10_56" fill="white">
<path d="M16.9005 13.8962C15.6716 15.3558 14.9984 17.203 15 19.1111C15 20.6352 15.303 21.8746 15.8034 22.981L20.7336 17.1188L16.9005 13.8962Z"/>
</mask>
<path d="M16.9005 13.8962C15.6716 15.3558 14.9984 17.203 15 19.1111C15 20.6352 15.303 21.8746 15.8034 22.981L20.7336 17.1188L16.9005 13.8962Z" fill="#FFCC00"/>
<path d="M16.9005 13.8962L47.3755 -22.3525L11.1527 -52.8057L-19.3264 -16.6047L16.9005 13.8962ZM15 19.1111L62.3571 19.1111V19.0912L62.3571 19.0712L15 19.1111ZM15.8034 22.981L-27.3457 42.4965L3.64365 111.014L52.0465 53.4626L15.8034 22.981ZM20.7336 17.1188L56.9767 47.6005L87.4641 11.3507L51.2086 -19.1299L20.7336 17.1188ZM-19.3264 -16.6047C-27.7525 -6.59684 -32.3681 6.06831 -32.3571 19.151L62.3571 19.0712C62.3649 28.3377 59.0956 37.3085 53.1274 44.3972L-19.3264 -16.6047ZM-32.3571 19.1111C-32.3571 27.4212 -30.5965 35.3089 -27.3457 42.4965L58.9524 3.46541C61.2025 8.44033 62.3571 13.8491 62.3571 19.1111L-32.3571 19.1111ZM52.0465 53.4626L56.9767 47.6005L-15.5095 -13.3629L-20.4398 -7.50073L52.0465 53.4626ZM51.2086 -19.1299L47.3755 -22.3525L-13.5745 50.145L-9.74135 53.3675L51.2086 -19.1299Z" fill="#FFCC00" mask="url(#path-4-inside-2_10_56)"/>
<mask id="path-6-inside-3_10_56" fill="white">
<path d="M23.1162 16.0029C23.7079 16.0035 24.2872 16.1731 24.7858 16.4918C25.2844 16.8106 25.6815 17.2651 25.9304 17.802C26.1793 18.3388 26.2696 18.9357 26.1907 19.5221C26.1118 20.1086 25.8669 20.6603 25.4849 21.1122L30.3142 15.3694C29.323 13.4596 27.614 12.0215 25.563 11.371L20.7383 17.1139C21.029 16.7657 21.3927 16.4857 21.8036 16.2938C22.2145 16.1018 22.6626 16.0025 23.1162 16.0029Z"/>
</mask>
<path d="M23.1162 16.0029C23.7079 16.0035 24.2872 16.1731 24.7858 16.4918C25.2844 16.8106 25.6815 17.2651 25.9304 17.802C26.1793 18.3388 26.2696 18.9357 26.1907 19.5221C26.1118 20.1086 25.8669 20.6603 25.4849 21.1122L30.3142 15.3694C29.323 13.4596 27.614 12.0215 25.563 11.371L20.7383 17.1139C21.029 16.7657 21.3927 16.4857 21.8036 16.2938C22.2145 16.1018 22.6626 16.0025 23.1162 16.0029Z" fill="#FFCC00"/>
<path d="M23.1162 16.0029L23.0706 63.36L23.0727 63.36L23.1162 16.0029ZM25.4849 21.1122L-10.7601 -9.36717L61.6554 51.6801L25.4849 21.1122ZM30.3142 15.3694L66.5592 45.8489L86.922 21.6342L72.3468 -6.44703L30.3142 15.3694ZM25.563 11.371L39.8786 -33.7705L9.6814 -43.3469L-10.6963 -19.0914L25.563 11.371ZM20.7383 17.1139L-15.6123 -13.2396L56.9976 47.5763L20.7383 17.1139ZM23.0727 63.36C14.6393 63.3523 6.38378 60.9349 -0.721725 56.3925L50.2933 -23.4088C42.1907 -28.5887 32.7766 -31.3453 23.1597 -31.3542L23.0727 63.36ZM-0.721725 56.3925C-7.82721 51.8501 -13.4868 45.3719 -17.034 37.7208L68.8948 -2.11681C64.8498 -10.8417 58.396 -18.229 50.2933 -23.4088L-0.721725 56.3925ZM-17.034 37.7208C-20.5811 30.0696 -21.8681 21.5642 -20.7434 13.2062L73.1247 25.838C74.4073 16.3071 72.9397 6.60808 68.8948 -2.11681L-17.034 37.7208ZM-20.7434 13.2062C-19.6186 4.84823 -16.129 -3.01439 -10.6855 -9.45565L61.6554 51.6801C67.8628 44.335 71.8422 35.3689 73.1247 25.838L-20.7434 13.2062ZM61.7299 51.5917L66.5592 45.8489L-5.93079 -15.11L-10.7601 -9.36717L61.7299 51.5917ZM72.3468 -6.44703C65.5729 -19.4979 53.8948 -29.3256 39.8786 -33.7705L11.2473 56.5126C1.33327 53.3686 -6.927 46.4171 -11.7184 37.1859L72.3468 -6.44703ZM-10.6963 -19.0914L-15.521 -13.3486L56.9976 47.5763L61.8223 41.8335L-10.6963 -19.0914ZM57.0888 47.4674C52.93 52.4478 47.727 56.4531 41.8484 59.1995L1.75884 -26.612C-4.94167 -23.4816 -10.872 -18.9164 -15.6123 -13.2396L57.0888 47.4674ZM41.8484 59.1995C35.9697 61.9459 29.5592 63.3663 23.0706 63.36L23.1618 -31.3541C15.7661 -31.3613 8.45934 -29.7423 1.75884 -26.612L41.8484 59.1995Z" fill="#FFCC00" mask="url(#path-6-inside-3_10_56)"/>
<mask id="path-8-inside-4_10_56" fill="white">
<path d="M23.1162 22.2093C21.4039 22.2093 20.013 20.8184 20.013 19.1061C20.011 18.377 20.268 17.6709 20.7383 17.1138L15.8034 22.976C16.6481 24.8443 18.0482 26.3454 19.4897 28.2368L25.485 21.1122C25.1937 21.4563 24.8308 21.7328 24.4217 21.9223C24.0126 22.1118 23.5671 22.2097 23.1162 22.2093Z"/>
</mask>
<path d="M23.1162 22.2093C21.4039 22.2093 20.013 20.8184 20.013 19.1061C20.011 18.377 20.268 17.6709 20.7383 17.1138L15.8034 22.976C16.6481 24.8443 18.0482 26.3454 19.4897 28.2368L25.485 21.1122C25.1937 21.4563 24.8308 21.7328 24.4217 21.9223C24.0126 22.1118 23.5671 22.2097 23.1162 22.2093Z" fill="#FFCC00"/>
<path d="M23.1162 22.2093L23.1591 -25.1478L23.1377 -25.1478H23.1162V22.2093ZM20.013 19.1061H67.3701V19.0409L67.3699 18.9758L20.013 19.1061ZM20.7383 17.1138L56.9674 47.6121L-15.4508 -13.4319L20.7383 17.1138ZM15.8034 22.976L-20.4257 -7.52232L-39.6383 15.3005L-27.3487 42.4846L15.8034 22.976ZM19.4897 28.2368L-18.1755 56.9427L17.6601 103.963L55.7245 58.7282L19.4897 28.2368ZM25.485 21.1122L61.7198 51.6037L-10.6633 -9.48194L25.485 21.1122ZM23.1162 -25.1478C47.5585 -25.1478 67.3701 -5.33621 67.3701 19.1061H-27.3441C-27.3441 46.973 -4.75067 69.5664 23.1162 69.5664V-25.1478ZM67.3699 18.9758C67.3988 29.4725 63.6979 39.6382 56.9274 47.6595L-15.4508 -13.4319C-23.1619 -4.29627 -27.3768 7.28158 -27.3439 19.2365L67.3699 18.9758ZM-15.4908 -13.3845L-20.4257 -7.52232L52.0326 53.4743L56.9674 47.6121L-15.4908 -13.3845ZM-27.3487 42.4846C-24.8711 47.965 -21.9925 51.9786 -20.4228 54.0654C-19.651 55.0915 -18.915 56.012 -18.6195 56.383C-18.2057 56.9026 -18.1739 56.9448 -18.1755 56.9427L57.1548 -0.4692C56.4325 -1.41691 55.7487 -2.27157 55.4682 -2.6238C55.0694 -3.12456 55.1323 -3.05075 55.2683 -2.86992C55.5665 -2.47357 57.3226 -0.144715 58.9556 3.46737L-27.3487 42.4846ZM55.7245 58.7282L61.7198 51.6037L-10.7499 -9.37927L-16.7452 -2.2547L55.7245 58.7282ZM-10.6633 -9.48194C-6.5043 -14.3959 -1.32332 -18.3435 4.51827 -21.0492L44.3252 64.8938C50.985 61.8091 56.8917 57.3086 61.6332 51.7063L-10.6633 -9.48194ZM4.51827 -21.0492C10.3598 -23.7549 16.7214 -25.1536 23.1591 -25.1478L23.0733 69.5664C30.4128 69.5731 37.6654 67.9784 44.3252 64.8938L4.51827 -21.0492Z" fill="#FFCC00" mask="url(#path-8-inside-4_10_56)"/>
<mask id="path-10-inside-5_10_56" fill="white">
<path d="M25.3595 30.1802C28.0679 25.9477 31.2216 24.0242 31.2216 19.1031C31.2216 17.7535 30.8911 16.4819 30.3081 15.3618L19.4881 28.2383C19.9472 28.8397 20.4108 29.4778 20.8607 30.1848C22.5041 32.7279 22.0497 34.252 23.1101 34.252C24.1705 34.252 23.716 32.7233 25.3595 30.1802Z"/>
</mask>
<path d="M25.3595 30.1802C28.0679 25.9477 31.2216 24.0242 31.2216 19.1031C31.2216 17.7535 30.8911 16.4819 30.3081 15.3618L19.4881 28.2383C19.9472 28.8397 20.4108 29.4778 20.8607 30.1848C22.5041 32.7279 22.0497 34.252 23.1101 34.252C24.1705 34.252 23.716 32.7233 25.3595 30.1802Z" fill="#FFCC00"/>
<path d="M25.3595 30.1802L65.1345 55.8832L65.1917 55.7946L65.2486 55.7057L25.3595 30.1802ZM30.3081 15.3618L72.3157 -6.50281L39.6155 -69.3283L-5.94836 -15.104L30.3081 15.3618ZM19.4881 28.2383L-16.7683 -2.22743L-41.1745 26.8176L-18.1548 56.9734L19.4881 28.2383ZM20.8607 30.1848L-19.0927 55.6096L-19.004 55.749L-18.9143 55.8877L20.8607 30.1848ZM65.2486 55.7057C64.5889 56.7366 64.0771 57.3441 64.512 56.7962C64.5329 56.7699 65.2755 55.841 65.7253 55.2651C66.3151 54.5101 67.2229 53.3267 68.2211 51.8874C70.2664 48.9381 73.0728 44.3852 75.2423 38.3609C77.4859 32.1312 78.5787 25.6481 78.5787 19.1031H-16.1355C-16.1355 15.0187 -15.4368 10.6214 -13.8693 6.26871C-12.3756 2.12135 -10.527 -0.763482 -9.60865 -2.08771C-9.174 -2.71446 -8.87199 -3.09606 -8.91628 -3.03936C-9.1005 -2.80351 -9.02022 -2.91066 -9.67585 -2.08459C-10.5941 -0.927689 -12.5158 1.50747 -14.5296 4.65459L65.2486 55.7057ZM78.5787 19.1031C78.5787 9.92815 76.3135 1.17802 72.3157 -6.50281L-11.6994 37.2264C-14.5312 31.7858 -16.1355 25.5788 -16.1355 19.1031H78.5787ZM-5.94836 -15.104L-16.7683 -2.22743L55.7446 58.7041L66.5646 45.8276L-5.94836 -15.104ZM-18.1548 56.9734C-18.1605 56.9659 -18.5639 56.4406 -19.0927 55.6096L60.8141 4.75988C59.3856 2.51505 58.0549 0.713479 57.1311 -0.496725L-18.1548 56.9734ZM-18.9143 55.8877C-21.8207 51.3902 -23.0863 47.0252 -22.8867 47.647C-22.8291 47.8265 -22.3192 49.4512 -21.5549 51.3467C-20.8128 53.1869 -19.0716 57.2495 -15.8188 61.7431C-12.2597 66.6598 -6.71354 72.3383 1.41223 76.4458C9.45684 80.5123 17.2029 81.6091 23.1101 81.6091V-13.1051C28.7522 -13.1051 36.2805 -12.0559 44.1405 -8.08272C52.0818 -4.06851 57.4767 1.4711 60.9036 6.20518C64.0241 10.5161 65.6523 14.3525 66.2862 15.9246C66.6576 16.8455 66.9183 17.5824 67.0571 17.9849C67.1954 18.3861 67.2893 18.6801 67.2947 18.6971C67.3913 18.9978 66.644 16.5405 65.578 13.9387C64.3989 11.0609 62.8112 7.84831 60.6357 4.48176L-18.9143 55.8877ZM23.1101 81.6091C29.0375 81.6091 36.7997 80.5046 44.8537 76.4225C52.9836 72.3018 58.5224 66.6119 62.07 61.6995C65.3132 57.2086 67.0486 53.1504 67.7873 51.3147C68.5486 49.423 69.0567 47.8012 69.1138 47.6232C69.3125 47.0032 68.047 51.3761 65.1345 55.8832L-14.4155 4.47717C-16.5946 7.84918 -18.1838 11.0669 -19.3632 13.9481C-20.4299 16.5539 -21.1763 19.0123 -21.0815 18.7163C-21.0764 18.7005 -20.983 18.4078 -20.8455 18.0082C-20.7076 17.6072 -20.4481 16.8723 -20.0784 15.9537C-19.4477 14.3866 -17.8254 10.5552 -14.7144 6.24736C-11.2989 1.51799 -5.91148 -4.03265 2.03387 -8.05976C9.90331 -12.0484 17.4478 -13.1051 23.1101 -13.1051V81.6091Z" fill="#FFCC00" mask="url(#path-10-inside-5_10_56)"/>
</svg>
