<svg xmlns="http://www.w3.org/2000/svg" width="46" height="46" viewBox="0 0 46 46" fill="none">
    <ellipse cx="23" cy="23" rx="23" ry="23" fill="white"/>
    <path fill-rule="evenodd" clip-rule="evenodd" d="M22.5232 28.4493L27.2774 31.9581C28.1496 32.4343 28.7847 32.1963 29.0061 31.1488L32.1305 16.4202C32.4478 15.1347 31.6389 14.5633 30.7983 14.9441L12.4643 22.024C11.2112 22.5318 11.2272 23.2302 12.2422 23.5324L16.9444 25.0058L18.5557 30.3243C18.6057 30.4565 18.6388 30.5711 18.6672 30.6692L18.6672 30.6692C18.7646 31.0062 18.8059 31.1492 19.2833 31.1496V31.1497C19.7325 31.1497 19.9415 30.9516 20.1902 30.7159L20.2349 30.6736C20.405 30.5102 21.4058 29.5368 22.5232 28.4493Z" fill="#FFCC00"/>
    <path fill-rule="evenodd" clip-rule="evenodd" d="M27.374 20.7229L18.8131 25.7344C18.485 25.9269 18.3305 26.3035 18.4364 26.6561L19.362 29.7474C19.4278 29.9665 19.7622 29.9441 19.7942 29.7178L20.0348 28.0226C20.0802 27.7034 20.2403 27.4092 20.4887 27.1896L27.5539 20.9473C27.6862 20.8308 27.5278 20.6331 27.374 20.7229Z" fill="white"/>
</svg>