<svg xmlns="http://www.w3.org/2000/svg" width="46" height="46" viewBox="0 0 46 46" fill="none">
    <ellipse cx="23" cy="23" rx="23" ry="23" fill="white"/>
    <path fill-rule="evenodd" clip-rule="evenodd" d="M35.0413 17.1818C35.2272 16.5463 35.0413 16.1014 34.1727 16.1014H31.2788C30.5345 16.1014 30.2037 16.504 30.0177 16.9489C30.0177 16.9489 28.5499 20.6348 26.4619 23.0082C25.7798 23.7072 25.4903 23.919 25.1183 23.919C24.9322 23.919 24.6635 23.7072 24.6635 23.0717V17.1818C24.6635 16.4193 24.4567 16.1014 23.8365 16.1014H19.2885C18.8337 16.1014 18.5442 16.4609 18.5442 16.7794C18.5442 17.4995 19.5779 17.6695 19.702 19.6603V24.0251C19.702 24.9785 19.5366 25.148 19.1644 25.148C18.1928 25.1462 15.7948 21.461 14.3884 17.2234C14.0989 16.4395 13.8301 16.1006 13.0855 16.1006H10.1924C9.36556 16.1006 9.2002 16.5032 9.2002 16.948C9.2002 17.7318 10.1717 21.6296 13.7688 26.7773C16.167 30.2939 19.5366 32.2006 22.5962 32.2006C24.436 32.2006 24.6635 31.7767 24.6635 31.0565V28.3873C24.6635 27.54 24.8288 27.3706 25.4283 27.3706C25.8626 27.3706 26.5861 27.5823 28.3014 29.277C30.2652 31.2896 30.5961 32.2006 31.6922 32.2006H34.5864C35.4133 32.2006 35.8269 31.7767 35.5786 30.951C35.3099 30.1248 34.3797 28.9172 33.1399 27.4763C32.4577 26.6501 31.4448 25.7818 31.1553 25.3368C30.721 24.7647 30.8453 24.5105 31.1553 24.0232C31.1553 24.0022 34.6905 18.918 35.042 17.1808L35.0413 17.1818Z" fill="#FFCC00"/>
</svg>