<svg width="47" height="46" viewBox="0 0 47 46" fill="none" xmlns="http://www.w3.org/2000/svg">
<path fill-rule="evenodd" clip-rule="evenodd" d="M23.1156 45.9999C35.882 45.9999 46.2313 35.7025 46.2313 23C46.2313 10.2974 35.882 0 23.1156 0C10.3492 0 0 10.2974 0 23C0 35.7025 10.3492 45.9999 23.1156 45.9999ZM11.3015 19.4015L9.26037 17.3868H13.3971C15.7144 15.5121 19.5641 13.9499 23.1326 13.9499C26.7062 13.9499 30.5234 15.5121 32.8408 17.3869H36.9882L34.947 19.4015C36.2084 20.6515 36.9882 22.3809 36.9882 24.2933C36.9882 28.1075 33.8803 31.1997 30.0467 31.1997C28.355 31.2024 26.7211 30.5871 25.4552 29.4705L23.1053 31.1895L20.7825 29.5086L20.8095 29.444C19.5804 30.5322 17.9669 31.1948 16.1908 31.1948C12.3574 31.1948 9.24939 28.1025 9.24939 24.2883C9.25483 22.3813 10.0399 20.652 11.3017 19.4021L11.3015 19.4015ZM17.0626 17.4408C20.3493 17.8501 22.9266 20.5438 23.1215 23.8785C23.3218 20.5384 25.9046 17.8394 29.2021 17.4408C27.5452 16.2559 25.4335 15.6738 23.1326 15.6738C20.8317 15.6738 18.7194 16.2559 17.0626 17.4408ZM30.0467 29.4758C32.9272 29.4758 35.2555 27.154 35.2555 24.2933C35.2555 21.4326 32.9218 19.1108 30.0467 19.1108C27.1717 19.1108 24.8379 21.4324 24.8379 24.2933C24.8433 27.154 27.1716 29.4758 30.0467 29.4758ZM16.1855 29.4758C19.0606 29.4758 21.3943 27.154 21.3943 24.2933C21.3943 21.4326 19.0606 19.1108 16.1855 19.1108C13.3104 19.1108 10.9766 21.4324 10.9766 24.2933C10.9821 27.154 13.3103 29.4758 16.1855 29.4758ZM33.5245 24.2931C33.5245 22.386 31.9706 20.8398 30.0484 20.8398C28.1316 20.8398 26.5777 22.386 26.5831 24.2931C26.5831 26.2003 28.1372 27.7463 30.0539 27.7463C31.9706 27.7463 33.5245 26.2001 33.5245 24.2931ZM32.5334 24.2934C32.5334 25.662 31.4182 26.7658 30.0484 26.7658C28.6785 26.7658 27.5685 25.6561 27.5685 24.2934C27.5685 22.9307 28.6729 21.821 30.0484 21.821C30.3749 21.8206 30.6982 21.8843 30.9999 22.0084C31.3015 22.1325 31.5756 22.3146 31.8064 22.5443C32.0373 22.7739 32.2203 23.0466 32.345 23.3468C32.4698 23.6469 32.5338 23.9686 32.5334 24.2934ZM28.3068 24.2877C28.3068 25.2368 29.0801 26.0062 30.034 26.0062C30.9879 26.0062 31.7612 25.2368 31.7612 24.2877C31.7612 23.3386 30.9879 22.5692 30.034 22.5692C29.0801 22.5692 28.3068 23.3386 28.3068 24.2877ZM16.1868 20.8398C18.1035 20.8398 19.6575 22.386 19.6575 24.2931C19.6575 26.2001 18.1035 27.7463 16.1868 27.7463C14.2701 27.7463 12.7161 26.2003 12.7161 24.2931C12.7161 22.3858 14.2704 20.8398 16.1868 20.8398ZM16.1868 26.7658C17.5566 26.7658 18.6717 25.662 18.6717 24.2934C18.6722 23.9686 18.6082 23.6469 18.4834 23.3468C18.3587 23.0466 18.1757 22.7739 17.9448 22.5443C17.714 22.3146 17.4399 22.1325 17.1383 22.0084C16.8366 21.8843 16.5133 21.8206 16.1868 21.821C14.8113 21.821 13.7069 22.9307 13.7069 24.2934C13.7069 25.6561 14.8169 26.7658 16.1868 26.7658ZM14.4481 24.2877C14.4481 25.2368 15.2214 26.0062 16.1754 26.0062C17.1293 26.0062 17.9026 25.2368 17.9026 24.2877C17.9026 23.3386 17.1293 22.5692 16.1754 22.5692C15.2214 22.5692 14.4481 23.3386 14.4481 24.2877Z" fill="black"/>
</svg>
