<svg xmlns="http://www.w3.org/2000/svg" width="188" height="81" viewBox="0 0 188 81" fill="none">
    <path fill-rule="evenodd" clip-rule="evenodd" d="M172.867 37.3925C172.11 37.1103 171.463 36.5924 171.021 35.9148C170.578 35.2372 170.364 34.4354 170.409 33.6268C170.252 27.1952 175.908 29.9044 172.867 37.3925ZM16.6609 27.3578C16.6609 26.4421 17.1524 20.4494 17.5305 19.8426C17.9086 19.2357 19.1996 19.019 21.8517 18.0816C21.6303 18.8781 17.5846 26.545 16.6717 27.3578H16.6609ZM17.5467 9.67781C16.0613 6.63272 14.846 4.10236 10.2115 5.34316C3.66491 7.09869 -0.802117 16.7216 2.30374 20.3519C4.7074 23.1857 8.36961 21.5873 11.8536 21.3868C13.582 38.1836 6.86799 47.3513 8.67749 50.9057C9.7956 53.1056 13.7927 54.5306 16.3854 54.4873C17.8978 53.8371 21.0685 41.5212 22.6133 37.5821C23.8395 34.4449 30.829 15.0582 33.4541 13.7415C38.2128 11.4117 49.1995 12.1486 54.682 13.1564C70.0384 15.9793 66.0737 8.00897 58.463 3.28421C54.5956 0.889312 49.3129 -0.210606 43.7764 0.0332182C36.3385 0.358317 22.932 8.70252 17.5683 9.63988L17.5467 9.67781ZM6.8518 52.0273C8.11575 55.0182 6.75456 56.6329 9.23925 59.9272C14.6407 67.074 25.8218 64.5328 31.2503 58.4751C36.6788 52.4175 40.368 40.0204 34.4588 35.3714C32.6925 33.9844 30.3051 35.1981 27.9284 34.4774C25.0872 33.6213 25.4869 31.2644 27.7663 30.2674C32.3738 28.2572 44.2517 32.7815 48.6755 40.145C51.3223 44.5447 50.6309 50.7432 48.8268 55.5113C47.1091 60.0464 43.7602 63.3408 40.4923 65.8061C30.7696 73.2129 8.80712 76.1388 1.53672 61.5202C-3.18418 52.0327 4.23748 51.0575 6.8518 52.0057V52.0273ZM75.1968 39.0234C69.1904 56.0477 56.8696 55.3704 60.8181 43.8999C65.9927 28.8424 75.3157 31.2481 71.1727 37.5496C70.5893 38.4382 69.509 39.7549 71.5184 40.1937C73.0038 40.5188 74.1922 39.4623 75.1968 39.0288V39.0234ZM80.0203 76.1822C78.8104 73.6085 78.805 69.5827 79.5612 64.9121C72.145 63.8284 71.9991 58.9519 71.1241 55.701C68.4234 58.5022 62.4115 65.5352 55.2437 61.4119C46.6878 56.492 56.956 36.9753 64.7882 29.9856C69.8061 25.4939 78.5728 25.3476 77.433 35.3552C80.5713 34.7321 82.5212 36.0054 83.7366 38.1944C85.0491 40.5622 83.8284 42.4478 82.9264 44.7343C81.9897 46.9926 81.2822 49.3397 80.8144 51.7402C80.4633 53.6149 79.9933 56.7629 80.944 58.5401C84.6872 44.2575 92.8651 27.6558 95.4416 26.5721C99.5575 26.1657 102.399 28.6419 102.831 32.6948C105.964 29.1187 116.842 25.1092 118.738 33.2041C121.898 46.7499 108.621 67.4912 97.8777 60.1602C91.936 56.1182 96.2302 46.7011 101.151 46.5007C103.652 46.3977 104.613 47.8444 103.312 50.0551C102.966 50.6457 102.512 51.1875 102.112 51.7889C93.1406 65.1776 117.609 39.5165 111.327 32.944C107.908 29.9585 99.4441 41.2882 98.1315 43.2388C92.7733 51.0412 90.4992 62.398 90.3804 72.5573C90.3318 76.6102 92.1197 80.7877 87.4528 80.9936C83.8662 81.1508 81.0304 78.3712 80.0149 76.2147L80.0203 76.1822ZM143.909 17.6048C142.483 22.335 138.027 28.9833 135.764 34.1848C134.872 27.7966 133.792 22.9906 133.479 20.7474L143.909 17.6048ZM125.609 14.24C124.421 15.2803 118.544 18.2062 119.835 14.0287C120.418 12.154 124.361 9.86203 125.609 14.24ZM131.145 12.4628C126.862 5.00722 119.478 7.19081 115.519 13.4164C113.234 16.9925 114.244 20.9371 116.896 22.8877C120.391 25.4614 123.864 23.8467 127.262 22.7793C129.022 27.8124 130.269 33.0117 130.983 38.2973C132.004 46.2406 130.135 48.1803 129.039 55.2512C127.532 64.9663 130.254 73.9932 139.048 78.0081C145.173 80.7932 142.829 74.9414 142.402 72.8499C136.012 54.6606 147.517 32.9115 155.274 14.4893C168.097 11.8885 173.282 11.0703 176.259 13.216C177.998 14.4676 177.917 15.898 178.781 17.9407C183.853 18.6072 186.278 12.1052 185.484 8.12817C182.081 -8.90159 139.799 9.23892 131.145 12.4628ZM170.474 43.2768C169.058 42.3448 165.396 39.5544 165.726 31.7791C162.798 34.4883 158.947 42.7133 158.412 48.1695C157.618 56.2428 166.012 50.4452 170.474 43.293V43.2768ZM166.482 29.3138C160.54 22.9472 147.112 47.308 151.077 57.4565C154.15 65.3293 167.217 63.7363 175.265 48.9606C176.053 47.503 176.286 46.3652 177.096 44.7289C181.358 44.821 189.487 43.2768 187.764 38.6441C185.603 39.0667 183.027 40.1396 178.722 39.679C178.932 34.7646 180.159 29.5901 176.729 26.4421C172.656 22.698 168.848 25.418 166.493 29.3138H166.482Z" fill="white"/>
</svg>