<svg xmlns="http://www.w3.org/2000/svg" width="46" height="46" viewBox="0 0 46 46" fill="none">
    <ellipse cx="23" cy="23" rx="23" ry="23" fill="white"/>
    <path d="M27.7993 24.4922C27.7603 24.4735 26.3023 23.7555 26.0432 23.6623C25.9374 23.6243 25.8241 23.5872 25.7036 23.5872C25.5067 23.5872 25.3413 23.6853 25.2125 23.878C25.0668 24.0945 24.6259 24.6099 24.4897 24.7639C24.4719 24.7842 24.4476 24.8085 24.4331 24.8085C24.42 24.8085 24.1944 24.7156 24.126 24.6859C22.562 24.0065 21.3747 22.3727 21.212 22.0971C21.1887 22.0575 21.1877 22.0395 21.1875 22.0395C21.1933 22.0186 21.2459 21.9658 21.273 21.9386C21.3524 21.8601 21.4384 21.7565 21.5217 21.6563C21.5611 21.6088 21.6006 21.5613 21.6394 21.5165C21.7601 21.376 21.8139 21.2669 21.8762 21.1405L21.9089 21.0749C22.0611 20.7725 21.9311 20.5173 21.8891 20.4349C21.8546 20.3659 21.239 18.8801 21.1735 18.724C21.0161 18.3473 20.8081 18.1719 20.5191 18.1719C20.4923 18.1719 20.5191 18.1719 20.4066 18.1766C20.2697 18.1824 19.5239 18.2806 19.1942 18.4884C18.8445 18.7089 18.2529 19.4116 18.2529 20.6475C18.2529 21.7597 18.9588 22.8099 19.2618 23.2093C19.2694 23.2194 19.2832 23.2399 19.3033 23.2692C20.4638 24.9641 21.9107 26.2203 23.3773 26.8062C24.7894 27.3702 25.458 27.4354 25.8381 27.4354H25.8382C25.9979 27.4354 26.1258 27.4228 26.2386 27.4117L26.3101 27.4049C26.7979 27.3617 27.8699 26.8062 28.1137 26.1286C28.3058 25.5949 28.3564 25.0118 28.2286 24.8002C28.1411 24.6563 27.9903 24.5839 27.7993 24.4922Z" fill="#FFCC00"/>
    <path d="M23.1775 13C17.7609 13 13.3541 17.3736 13.3541 22.7495C13.3541 24.4883 13.8195 26.1903 14.701 27.6799L13.0138 32.6569C12.9823 32.7497 13.0057 32.8523 13.0743 32.9221C13.1239 32.9727 13.1911 33 13.2597 33C13.286 33 13.3125 32.996 13.3384 32.9878L18.528 31.3387C19.9481 32.0975 21.5532 32.498 23.1776 32.498C28.5937 32.4981 33 28.1249 33 22.7495C33 17.3736 28.5937 13 23.1775 13ZM23.1775 30.4671C21.649 30.4671 20.1686 30.0258 18.896 29.1907C18.8532 29.1626 18.8035 29.1482 18.7535 29.1482C18.7271 29.1482 18.7006 29.1522 18.6748 29.1604L16.0751 29.9868L16.9143 27.5108C16.9415 27.4307 16.9279 27.3423 16.8779 27.274C15.9088 25.9499 15.3965 24.3854 15.3965 22.7495C15.3965 18.4935 18.8871 15.0309 23.1775 15.0309C27.4673 15.0309 30.9575 18.4935 30.9575 22.7495C30.9575 27.0051 27.4675 30.4671 23.1775 30.4671Z" fill="#FFCC00"/>
</svg>