<svg width="225" height="293" viewBox="0 0 225 293" fill="none" xmlns="http://www.w3.org/2000/svg">
<path d="M268.037 59.7179C266.135 48.111 261.736 37.0573 255.119 27.2558C250.798 20.8482 243.829 18.6477 236.856 16.4618C233.886 15.5317 231.093 14.6225 229.44 11.8551C226.984 7.73268 228.832 2.98828 233.573 1.46066C235.287 0.836093 237.121 0.603468 238.928 0.781559C253.002 2.53139 264.546 8.00054 271.744 20.2623C281.916 37.5856 287.238 56.2141 287.135 76.2803C287.073 78.2579 287.604 80.1997 288.664 81.8748C299.36 99.036 304.069 118.095 306.959 137.752C309.112 152.443 309.519 167.173 307.424 181.972C305 199.088 296.884 212.396 279.549 219.464C270.388 223.194 261.475 223.574 252.687 218.734C247.114 215.568 241.762 212.061 236.665 208.234C235.579 215.03 234.711 221.432 233.499 227.776C231.412 238.682 228.13 249.182 220.973 258.294C210.129 272.094 195.261 275.134 180.102 266.567C179.407 266.177 178.699 265.79 177.801 265.296C174.751 270.442 172.294 275.726 168.476 280.286C158.281 292.444 146.372 295.089 131.778 288.592C116.837 281.933 106.868 270.449 98.3765 257.537C90.5701 245.884 83.8952 233.555 78.4337 220.701C77.919 219.706 77.3281 218.751 76.666 217.843C68.9208 221.693 61.004 224.208 52.4424 223.929C31.5651 223.316 16.0183 213.566 8.67499 195.625C-3.55322 165.747 -2.37993 135.67 16.1842 107.217C20.3174 100.872 25.8827 95.682 33.2208 92.5305C35.1494 91.692 37.3128 91.5365 39.3215 92.0917C42.2292 92.8438 42.9614 95.1432 40.8178 97.1094C27.095 109.724 22.6311 125.888 21.2633 143.028C20.1249 156.254 21.2964 169.526 24.7291 182.293C28.7695 197.085 42.746 207.699 58.7117 207.637C63.3649 207.572 67.9351 206.279 71.9223 203.9C68.4485 193.769 65.8454 183.367 64.1384 172.797C60.6223 151.923 59.6685 130.959 65.8078 110.084C67.6464 103.434 70.802 97.1622 75.1002 91.6161C83.1081 81.5169 94.8219 80.1469 104.544 88.2575C113.391 95.6349 117.878 105.504 119.592 116.357C123.34 140.045 119.547 162.916 108.471 184.724C105.295 191.066 101.192 196.952 96.2882 202.202C95.0577 203.511 94.3237 204.663 95.1159 206.474C102.904 224.286 111.062 241.923 122.439 257.923C127.761 265.392 133.799 272.256 142.621 276.25C148.689 278.974 152.677 278.171 157.044 273.278C161.24 268.576 163.923 263.116 166.203 257.412C166.683 256.215 166.926 255.183 166.002 254.076C154.962 240.535 148.72 224.78 143.539 208.443C136.763 187.098 133.813 165.309 135.603 142.893C136.127 136.344 137.287 129.867 140.289 123.825C142.526 119.335 145.633 115.558 150.631 113.648C158.091 110.805 163.644 113.917 168.401 118.938C175.664 126.681 179.836 136.121 182.707 146.006C191.72 177.073 190.942 208.64 185.206 240.368C184.746 242.894 184.938 244.754 186.837 246.434C187.111 246.729 187.362 247.043 187.587 247.375C196.777 258.234 204.536 258.059 213.229 244.13C217.845 236.732 219.286 228.293 220.59 219.913C221.692 212.783 222.278 205.594 222.82 198.407C222.916 197.56 222.811 196.706 222.514 195.911C222.217 195.115 221.735 194.397 221.105 193.811C205.408 177.612 195.427 158.031 186.245 138.017C179.947 124.29 174.042 110.368 171.298 95.4558C169.039 83.1748 168.093 70.7557 173.628 58.7934C178.847 47.5845 189.019 45.4908 198.158 53.8186C207.973 62.7396 214.62 73.891 220.492 85.4617C228.899 102.024 232.607 119.835 234.67 138.123C236.287 152.422 237.633 166.729 237.645 181.151C237.644 182.802 238.461 183.906 239.451 185.018C244.989 191.303 250.99 197.103 257.04 202.898C266.978 212.41 274.798 211.038 286.307 200.955C293.181 194.954 293.898 186.091 294.371 177.821C295.634 155.926 291.711 134.754 285.057 114.033C284.488 112.253 284.066 110.425 283.437 108.666C282.855 107.047 282.092 105.49 281.409 103.901C280.546 103.716 280.136 104.278 279.767 104.858C270.839 118.704 254.335 120.485 240.756 111.656C226.839 102.609 218.28 82.8577 221.842 67.6515C225.196 53.3462 237.371 46.7748 251.695 51.3823C257.403 53.2343 262.25 56.4953 268.037 59.7179ZM89.9028 189.595C105.689 166.843 111.427 142.891 106.973 117.049C105.898 110.407 102.684 104.294 97.7781 99.5621C92.97 94.972 90.099 95.4697 87.0189 101.358C83.9388 107.246 82.7913 113.528 81.9479 119.91C80.1071 133.536 80.9856 147.099 82.9319 160.518C84.2919 170.057 85.7725 179.712 89.9028 189.595ZM157.244 124.807C149.816 135.082 160.509 197.74 173.641 223.304C173.867 222.255 174.104 221.506 174.18 220.746C175.926 203.889 176.016 186.944 174.448 170.134C173.27 157.768 171.055 145.553 165.444 134.245C163.646 130.535 161.427 127.066 157.257 124.804L157.244 124.807ZM221.557 159.301C220.122 126.059 214.632 94.1438 191.156 68.1204C193.047 101.217 206.363 130.569 221.571 159.298L221.557 159.301ZM261.51 103.036C268.709 101.374 273.532 88.352 269.109 83.1572C263.202 76.2699 256.22 70.5179 247.749 66.5807C241.299 63.5729 238.16 65.2806 237.381 72.2536C236.135 83.4391 243.591 96.6934 253.969 101.696C256.484 102.896 259.037 103.888 261.523 103.032L261.51 103.036Z" fill="#FBB506"/>
</svg>
