<svg width="351" height="369" viewBox="0 0 351 369" fill="none" xmlns="http://www.w3.org/2000/svg">
<g clip-path="url(#clip0_176_17117)">
<path d="M365.099 50.5265C365.364 57.604 363.337 64.5783 359.32 70.4159C340.125 99.888 319.65 128.501 299.838 157.543C268.529 203.454 236.634 248.935 202.149 292.544C190.126 307.737 177.302 322.27 164.061 336.404C161.784 339.081 159.049 341.334 155.984 343.058C152.429 344.831 148.702 345.22 145.556 342.457C144.238 341.28 143.298 339.74 142.854 338.03C142.41 336.321 142.483 334.518 143.063 332.85C145.866 323.164 150.324 314.033 156.24 305.862C177.759 274.895 201.56 245.678 223.881 215.387C260.775 165.414 297.592 115.354 334.332 65.2074C340.081 57.4037 345.938 49.6614 355.575 46.0961C362.856 43.4413 365.106 44.9449 365.099 50.5265Z" fill="#161616"/>
<path d="M312.983 30.1025C311.583 37.5368 308.724 44.6216 304.572 50.949C283.242 84.8064 258.042 115.717 233.859 147.502C204.419 186.322 175.812 225.771 146.758 264.882C135.7 279.751 123.994 294.119 111.641 307.985C109.26 310.831 106.496 313.335 103.427 315.423C100.349 317.365 97.1772 317.892 94.1861 315.574C91.5187 313.44 91.0985 310.412 92.1105 307.151C94.4908 299.93 98.0118 293.136 102.54 287.024C151.728 217.594 201.194 148.286 254.73 82.0782C265.077 69.2861 274.715 55.9109 284.754 42.8886C290.473 35.5001 296.902 28.8334 305.845 25.3152C310.833 23.3709 312.975 24.7669 312.983 30.1025Z" fill="#161616"/>
<path d="M50.6785 272.335C50.673 268.399 52.9637 265.351 54.9924 262.288C71.5761 237.479 90.719 214.572 108.151 190.361C145.719 138.322 185.015 87.5106 222.769 35.6711C228.226 28.1906 233.899 20.8485 239.68 13.5829C244.078 7.82414 250.013 3.41941 256.804 0.873721C261.422 -0.82407 263.426 0.58776 262.786 5.47827C261.811 13.1677 258.401 19.8611 253.928 26.1715C223.769 68.575 193.688 111.04 162.974 153.044C142.222 181.442 123.165 211.052 101.395 238.714C91.8476 250.843 82.2384 262.942 71.1336 273.752C68.7588 276.329 65.906 278.422 62.733 279.914C56.2681 282.599 50.5182 278.932 50.6785 272.335Z" fill="#161616"/>
<path d="M17.5677 240.675C18.5577 235.577 20.4605 230.699 23.1847 226.275C33.7101 208.578 46.147 192.185 58.2602 175.577C94.5232 125.846 133.993 78.6016 171.011 29.4385C177.049 21.0257 184.944 14.112 194.085 9.23264C196.179 8.16877 198.502 6.3513 200.953 8.2238C203.405 10.0963 201.883 12.4046 201.532 14.5424C200.26 21.8476 197.335 28.7672 192.981 34.7743C156.813 86.0274 121.847 138.14 82.1635 186.845C67.4802 204.871 54.2 224.079 37.3734 240.309C34.2974 243.388 31.0362 246.238 26.7255 247.458C25.6636 247.834 24.5256 247.944 23.4114 247.777C22.2971 247.611 21.2411 247.173 20.3363 246.503C19.4315 245.832 18.7057 244.95 18.2229 243.934C17.7401 242.918 17.5151 241.799 17.5677 240.675Z" fill="#161616"/>
<path d="M393.695 114.283C392.033 122.259 388.95 129.872 384.593 136.76C369.795 160.553 352.653 182.672 335.789 204.975C311.837 236.653 287.654 268.157 263.24 299.486C252.056 313.507 239.953 326.771 227.01 339.192C224.432 341.859 221.324 343.958 217.885 345.355C212.528 347.392 208.782 344.645 209.19 338.955C209.538 334.342 211.704 330.326 213.793 326.34C222.319 310.476 234.067 296.897 245.013 282.767C283.704 232.832 322.492 182.97 361.378 133.179C368.374 124.205 375.94 115.814 385.881 109.911C387.82 108.771 389.866 107.584 392.209 108.965C394.013 110.039 393.707 111.807 393.695 114.283Z" fill="#161616"/>
<path d="M398.834 188.082C397.449 195.091 394.667 201.752 390.652 207.667C377.879 225.844 364.52 243.637 351.808 261.814C332.026 289.934 311.842 317.716 289.392 343.81C283.039 351.403 275.995 358.393 268.352 364.69C264.629 367.678 260.52 370.128 256.033 366.567C251.284 362.714 253.249 357.884 255.739 353.76C263.626 340.98 272.291 328.695 281.685 316.974C307.621 283.71 331.368 248.804 357.89 215.985C367.622 203.963 377.385 191.955 391.483 184.571C396.669 181.934 398.719 182.762 398.834 188.082Z" fill="#161616"/>
<path d="M121.051 41.609C120.332 48.774 117.964 55.6764 114.133 61.777C89.9293 100.62 63.0741 137.499 32.0101 171.216C29.5546 174.002 26.673 176.383 23.4722 178.27C22.3548 179.027 21.0311 179.423 19.6809 179.402C18.3307 179.382 17.0195 178.948 15.9253 178.158C13.6129 176.623 13.2861 174.163 13.4674 171.58C13.84 168.934 14.6703 166.373 15.9211 164.011C23.8119 145.657 36.0345 130.156 48.3805 114.762C64.4626 94.751 80.9454 74.908 97.2433 54.9886C101.518 49.9601 106.654 45.7307 112.412 42.4976C113.663 41.6413 115.109 41.1115 116.618 40.9564C118.127 40.8012 119.651 41.0254 121.051 41.609Z" fill="#161616"/>
<path d="M328.217 364.36C321.348 364.585 317.504 357.779 321.129 351.131C325.938 342.268 332.102 334.202 338.144 326.214C347.183 314.115 357.348 303.122 370.444 295.308C372.198 294.276 374.074 291.936 376.449 293.87C378.823 295.804 377.533 298.251 376.812 300.62C371.845 317.125 361.884 330.64 350.936 343.525C346 349.313 340.787 354.871 335.558 360.46C334.663 361.573 333.55 362.492 332.288 363.163C331.027 363.833 329.641 364.241 328.217 364.36Z" fill="#161616"/>
<path d="M50.5438 64.5253C50.4502 68.8599 49.2417 73.0976 47.0341 76.8312C39.3535 91.3416 28.5894 103.519 17.0233 114.929C15.1441 116.862 12.7348 118.197 10.098 118.767C3.2001 120.145 -1.36512 115.57 0.612246 108.786C3.40198 99.1873 9.38205 91.214 14.6224 82.9036C19.2155 76.0836 24.3574 69.6484 29.9971 63.6619C32.9032 60.4344 36.6726 58.1031 40.8613 56.9426C47.9276 54.7955 50.6254 56.791 50.5438 64.5253Z" fill="#161616"/>
</g>
<defs>
<clipPath id="clip0_176_17117">
<rect width="398.573" height="368.184" fill="white" transform="translate(399.084 368.183) rotate(179.92)"/>
</clipPath>
</defs>
</svg>
