<svg width="297" height="513" viewBox="0 0 297 513" fill="none" xmlns="http://www.w3.org/2000/svg">
<path d="M-23.4736 433.594C-40.6081 444.227 -57.6899 452.844 -77.9451 451.249C-98.3831 449.659 -114.944 439.36 -130.493 427.116C-156.728 406.338 -174.283 379.605 -184.246 347.784C-187.97 335.911 -190.649 323.843 -190.517 311.292C-190.429 310.4 -190.523 309.499 -190.793 308.644C-191.063 307.789 -191.504 306.998 -192.088 306.318C-223.87 269.07 -232.352 226.491 -220.535 179.432C-214.4 154.859 -203.485 132.559 -186.678 113.561C-168.018 92.4754 -145.188 77.677 -117.43 71.3311C-114.25 70.5981 -112.196 69.2964 -110.633 66.4412C-100.352 47.5909 -87.7215 30.5047 -69.9564 18.1358C-41.5624 -1.65094 -11.0594 -4.84146 20.1708 10.3498C39.9867 19.9579 52.8922 36.891 62.4882 56.3278C65.4698 62.4119 68.0253 68.7368 70.9582 75.5018C80.8966 71.2618 90.8341 66.9792 101.264 63.9987C140.205 52.8977 178.555 53.9758 215.302 71.4848C250.465 88.2429 274.218 116.058 286.786 152.807C302.586 198.927 299.67 244.937 279.075 288.669C261.992 324.958 232.45 348.119 192.799 357.14C184.101 359.085 175.111 359.332 166.322 357.869C164.988 357.57 163.598 357.618 162.287 358.009C160.976 358.4 159.786 359.12 158.831 360.1C155.485 363.283 152.255 366.582 148.725 369.537C145.354 372.376 141.693 374.827 137.798 377.72C142.547 389.5 145.424 401.952 146.327 414.626C149.057 453.328 125.68 493.868 92.0565 506.922C69.1032 515.83 46.6939 512.916 25.3349 501.302C0.270729 487.674 -13.5362 465.407 -21.7629 438.974C-22.3359 437.214 -22.8705 435.502 -23.4736 433.594ZM27.2601 258.465C1.82523 277.212 -9.87876 277.243 -28.3008 258.941C-26.1545 294.759 -45.0138 317.86 -74.5696 333.651C-105.032 349.928 -134.856 343.867 -164.984 329.016C-164.914 331.752 -164.053 334.309 -163.395 336.93C-153.397 376.674 -130.702 407.139 -95.4858 427.81C-82.3342 435.538 -68.052 437.026 -53.7559 429.046C-46.3346 424.911 -39.0263 420.758 -32.3723 415.438C-28.4692 412.33 -26.3846 409.219 -27.1607 403.827C-27.8435 399.124 -27.2157 394.237 -26.8524 389.455C-26.5115 386.557 -27.2375 383.635 -28.8949 381.235C-33.1639 375.109 -35.1949 367.699 -34.6475 360.247C-33.1824 339.306 -20.7947 326.425 -2.29564 319.302C32.1635 306.081 64.4509 314.125 95.3482 331.151C106.771 337.548 116.865 346.068 125.088 356.252C129.062 353.658 132.579 351.188 135.709 347.765C132.286 345.301 129.18 342.982 126.008 340.783C110.433 330.036 98.3131 316.101 91.1975 298.713C87.1358 288.798 82.0047 283.462 70.9873 281.65C54.2418 278.937 40.06 269.952 27.2601 258.465ZM77.4287 146.643C94.4318 142.033 111.105 140.977 127.912 144.334C130.55 144.864 132.471 144.141 134.597 142.827C145.414 135.977 157.484 131.346 170.104 129.203C198.136 124.666 224.453 127.518 245.638 148.894C266.093 169.544 268.309 198.432 252.848 223.578C242.19 240.936 226.994 253.216 209.001 262.221C205.707 263.872 204.126 265.861 203.66 269.633C202.287 280.04 199.845 290.279 196.371 300.187C192.114 312.71 186.328 324.662 179.144 335.771C179.602 335.967 180.083 336.105 180.575 336.18C181.499 336.116 182.418 336.001 183.329 335.835C217.05 329.77 241.958 310.907 256.368 280.518C275.885 239.348 278.307 196.562 260.867 153.769C249.365 125.484 230.419 103.645 201.627 92.094C159.913 75.3588 119.433 81.7187 79.9542 100.488C77.886 101.473 76.8926 102.633 77.2527 105.156C79.2406 118.854 78.7856 132.509 77.4237 146.65L77.4287 146.643ZM117.929 389.343C116.451 389.933 115.48 390.36 114.487 390.804C82.5069 405.082 49.0824 410.676 14.4691 405.465C5.40325 404.099 1.45699 408.64 -3.3511 413.793C-3.91005 414.408 -4.29742 415.159 -4.4742 415.971C-4.65097 416.783 -4.61094 417.626 -4.35817 418.417C1.2315 443.384 10.8652 465.922 33.7989 480.038C49.2188 489.525 65.733 492.209 83.0694 486.144C98.1428 480.882 108.468 470.045 115.42 456.064C126.2 434.361 125.783 412.117 117.924 389.35L117.929 389.343ZM-124.762 105.509C-192.502 128.418 -221.565 222.009 -184.3 277.334C-167.913 239.439 -142.84 212.039 -99.335 206.403C-111.231 192.45 -117.905 176.274 -122.303 158.926C-126.678 141.471 -127.514 123.312 -124.76 105.521L-124.762 105.509ZM-7.47668 139.897C6.52303 121.071 23.6976 104.826 43.2747 91.8934C45.9602 90.1093 44.8848 88.0824 44.2216 86.0677C40.1254 73.4302 34.0308 61.5322 26.1691 50.8256C15.5745 36.5561 1.8488 27.7406 -16.0792 26.9461C-48.7463 25.5465 -69.8061 44.2099 -87.9249 69.1598C-46.113 75.7725 -20.3833 99.9246 -7.47474 139.909L-7.47668 139.897ZM-149.702 264.971C-154.629 270.902 -158.485 280.077 -161.529 289.616C-164.979 300.243 -164.89 300.339 -155.436 306.774C-153.091 308.235 -150.667 309.566 -148.174 310.758C-113.3 329.246 -79.0824 318.726 -60.3803 289.521C-52.447 277.141 -51.4572 263.575 -57.7098 250.378C-63.5781 238.078 -75.1365 234.023 -87.9402 233.463C-113.341 232.407 -133.544 242.201 -149.724 264.987L-149.702 264.971ZM102.457 264.298C130.285 263.826 156.451 257.293 181.789 246.857C184.435 245.771 184.654 243.992 184.443 241.555C183.793 232.695 182.059 223.95 179.279 215.516C172.624 196.247 162.708 179.371 144.269 168.89C140.574 166.788 137.796 166.189 134.116 169.5C123.317 179.344 114.465 191.13 108.023 204.243C98.4183 223.337 96.0466 243.142 102.444 264.331L102.457 264.298ZM-61.642 111.979C-72.3045 103.936 -84.4619 101.019 -97.4457 100.33C-101.681 100.103 -103.187 101.462 -103.89 105.547C-108.805 133.598 -102.878 159.513 -88.2866 183.525C-83.4001 191.641 -76.0826 198.013 -67.3696 201.738C-55.2813 206.985 -44.5899 205.351 -39.1095 196.681C-34.7203 190.028 -32.2383 182.302 -31.9337 174.342C-31.2359 148.478 -41.888 128.039 -61.655 112.012L-61.642 111.979ZM204.157 235.096C215.207 228.423 224.454 220.558 231.455 209.982C244.343 190.523 237.737 171.552 222.476 159.653C211.217 150.876 197.716 148.845 183.749 149.374C174.782 149.691 165.948 151.657 157.69 155.174C185.268 175.286 198.321 202.791 204.144 235.128L204.157 235.096ZM50.616 119.321C49.542 119.858 48.501 120.459 47.4984 121.121C26.3339 137.476 8.66236 156.841 -2.73778 181.288C-10.7323 198.426 -15.6244 216.237 -11.7861 235.384C-10.7439 240.567 -9.77599 246.802 -3.87837 248.446C1.32806 249.867 5.20586 245.318 9.07055 242.351C11.4724 240.478 12.4638 238.212 11.0527 234.68C7.06977 224.685 7.22276 214.339 10.8573 204.288C17.1403 187.014 29.3073 174.396 43.7622 163.582C45.2739 162.449 47.0844 161.762 47.6063 159.242C50.2583 146.188 51.5728 133.077 50.6129 119.34L50.616 119.321ZM105.222 367.404C84.2058 345.37 58.7063 334.23 27.5867 333.239C32.7104 342.191 33.724 350.86 32.5204 359.86C31.3168 368.86 27.095 376.572 23.2154 384.583C42.6185 388.398 90.2761 378.475 105.222 367.404ZM78.6262 262.13C74.9528 243.397 76.4025 225.645 83.1068 208.326C89.7894 190.874 99.6414 174.803 112.166 160.925C99.6482 161.034 89.0596 162.585 78.6733 166.176C74.7482 167.563 72.6503 169.422 71.6436 173.52C70.0753 179.931 67.9356 186.214 65.7573 192.449C59.4663 210.812 50.6795 228.227 39.6441 244.202C50.6813 254.368 63.7063 259.352 78.6053 262.115L78.6262 262.13ZM181.493 274.179C158.445 281.63 134.47 285.818 110.268 286.62C119.113 304.821 131.153 319.436 148.726 329.178C152.074 331.03 153.974 330.175 156.071 327.441C168.271 311.711 176.935 293.539 181.472 274.164L181.493 274.179ZM1.63204 379.778C9.48377 367.424 12.4694 354.389 9.14215 345.003C3.08915 350.933 -2.17435 356.864 -4.19119 364.963C-6.73841 375.491 -6.69375 375.502 1.64591 379.788L1.63204 379.778ZM27.0444 216.96C30.7411 210.502 34.1415 203.915 35.9104 196.627C30.7834 202.456 27.495 209.092 27.0632 216.963L27.0444 216.96Z" fill="#FFCC00"/>
</svg>
