<svg width="46" height="46" viewBox="0 0 46 46" fill="none" xmlns="http://www.w3.org/2000/svg">
<ellipse cx="23" cy="23" rx="23" ry="23" fill="white"/>
<path fill-rule="evenodd" clip-rule="evenodd" d="M30.6377 18.6376C30.6377 18.7358 30.6355 18.834 30.6322 18.9343C30.6278 19.0456 30.6213 19.1547 30.6126 19.2639C30.3616 22.4236 28.2733 25.6685 26.4086 28.7672L23.0001 34V26.2751C18.782 26.2751 15.3625 22.8557 15.3625 18.6376C15.3625 14.4194 18.782 11 23.0001 11C27.2182 11 30.6377 14.4194 30.6377 18.6376Z" fill="#FFCC00"/>
<path d="M23.0001 21.9112C24.8078 21.9112 26.2733 20.4458 26.2733 18.638C26.2733 16.8302 24.8078 15.3647 23.0001 15.3647C21.1923 15.3647 19.7268 16.8302 19.7268 18.638C19.7268 20.4458 21.1923 21.9112 23.0001 21.9112Z" fill="white"/>
</svg>
