<svg width="46" height="46" viewBox="0 0 46 46" fill="none" xmlns="http://www.w3.org/2000/svg">
<ellipse cx="23" cy="23" rx="23" ry="23" fill="white"/>
<path d="M27.799 24.4923C27.76 24.4736 26.302 23.7556 26.0429 23.6623C25.9371 23.6244 25.8238 23.5873 25.7033 23.5873C25.5064 23.5873 25.341 23.6854 25.2122 23.8781C25.0665 24.0946 24.6256 24.61 24.4894 24.764C24.4716 24.7843 24.4473 24.8086 24.4328 24.8086C24.4197 24.8086 24.1941 24.7157 24.1257 24.686C22.5617 24.0066 21.3744 22.3727 21.2117 22.0972C21.1884 22.0576 21.1874 22.0396 21.1872 22.0396C21.1929 22.0186 21.2455 21.9659 21.2727 21.9387C21.3521 21.8601 21.4381 21.7566 21.5214 21.6564C21.5608 21.6089 21.6003 21.5614 21.6391 21.5166C21.7598 21.376 21.8136 21.267 21.8759 21.1406L21.9086 21.0749C22.0608 20.7725 21.9308 20.5173 21.8888 20.4349C21.8543 20.366 21.2387 18.8801 21.1732 18.724C21.0158 18.3473 20.8078 18.172 20.5188 18.172C20.492 18.172 20.5188 18.172 20.4063 18.1767C20.2694 18.1825 19.5236 18.2807 19.1939 18.4885C18.8442 18.709 18.2526 19.4117 18.2526 20.6475C18.2526 21.7598 18.9585 22.81 19.2615 23.2094C19.2691 23.2195 19.2829 23.2399 19.3029 23.2693C20.4635 24.9642 21.9104 26.2203 23.377 26.8062C24.7891 27.3703 25.4577 27.4355 25.8378 27.4355H25.8379C25.9976 27.4355 26.1255 27.4229 26.2383 27.4118L26.3098 27.405C26.7976 27.3618 27.8696 26.8063 28.1134 26.1287C28.3055 25.595 28.3561 25.0119 28.2283 24.8003C28.1408 24.6564 27.99 24.584 27.799 24.4923Z" fill="#FFCC00"/>
<path d="M23.1775 13C17.7609 13 13.3541 17.3736 13.3541 22.7495C13.3541 24.4883 13.8195 26.1903 14.701 27.6799L13.0138 32.6569C12.9823 32.7497 13.0057 32.8523 13.0743 32.9221C13.1239 32.9727 13.1911 33 13.2597 33C13.286 33 13.3125 32.996 13.3384 32.9878L18.528 31.3387C19.9481 32.0975 21.5532 32.498 23.1776 32.498C28.5937 32.4981 33 28.1249 33 22.7495C33 17.3736 28.5937 13 23.1775 13ZM23.1775 30.4671C21.649 30.4671 20.1686 30.0258 18.896 29.1907C18.8532 29.1626 18.8035 29.1482 18.7535 29.1482C18.7271 29.1482 18.7006 29.1522 18.6748 29.1604L16.0751 29.9868L16.9143 27.5108C16.9415 27.4307 16.9279 27.3423 16.8779 27.274C15.9088 25.9499 15.3965 24.3854 15.3965 22.7495C15.3965 18.4935 18.8871 15.0309 23.1775 15.0309C27.4673 15.0309 30.9575 18.4935 30.9575 22.7495C30.9575 27.0051 27.4675 30.4671 23.1775 30.4671Z" fill="#FFCC00"/>
</svg>
