<svg width="46" height="46" viewBox="0 0 46 46" fill="none" xmlns="http://www.w3.org/2000/svg">
<ellipse cx="23" cy="23" rx="23" ry="23" fill="white"/>
<path fill-rule="evenodd" clip-rule="evenodd" d="M22.523 28.4491L27.2771 31.9579C28.1494 32.434 28.7845 32.196 29.0058 31.1485L32.1303 16.4199C32.4476 15.1344 31.6386 14.5631 30.798 14.9438L12.4641 22.0237C11.211 22.5316 11.227 23.23 12.2419 23.5321L16.9441 25.0055L18.5555 30.324C18.6055 30.4563 18.6386 30.5708 18.6669 30.669L18.6669 30.669C18.7643 31.006 18.8057 31.149 19.2831 31.1494V31.1495C19.7322 31.1495 19.9412 30.9514 20.1899 30.7156L20.2347 30.6733C20.4048 30.5099 21.4056 29.5366 22.523 28.4491Z" fill="#FFCC00"/>
<path fill-rule="evenodd" clip-rule="evenodd" d="M27.3743 20.7229L18.8133 25.7344C18.4852 25.9269 18.3308 26.3035 18.4366 26.6561L19.3622 29.7474C19.4281 29.9665 19.7624 29.9441 19.7944 29.7178L20.035 28.0226C20.0804 27.7034 20.2406 27.4092 20.489 27.1896L27.5541 20.9473C27.6864 20.8308 27.5281 20.6331 27.3743 20.7229Z" fill="white"/>
</svg>
