<svg width="230" height="99" viewBox="0 0 230 99" fill="none" xmlns="http://www.w3.org/2000/svg">
<path fill-rule="evenodd" clip-rule="evenodd" d="M211.486 45.7019C210.56 45.357 209.768 44.7241 209.227 43.8959C208.686 43.0677 208.424 42.0877 208.479 41.0994C208.287 33.2386 215.206 36.5498 211.486 45.7019ZM20.383 33.4373C20.383 32.3181 20.9844 24.9937 21.4469 24.252C21.9095 23.5103 23.4889 23.2454 26.7335 22.0997C26.4626 23.0732 21.513 32.4439 20.3962 33.4373H20.383ZM21.4668 11.8284C19.6495 8.10665 18.1626 5.014 12.4928 6.53053C4.48366 8.67618 -0.981314 20.4375 2.8184 24.8745C5.75905 28.338 10.2394 26.3844 14.5017 26.1394C16.6163 46.6688 8.40233 57.8738 10.6161 62.2181C11.984 64.9068 16.8741 66.6485 20.046 66.5955C21.8963 65.8008 25.7753 50.7482 27.6653 45.9337C29.1653 42.0993 37.7163 18.4045 40.9279 16.7952C46.7498 13.9476 60.1908 14.8482 66.8982 16.08C85.6853 19.5303 80.8349 9.78875 71.5239 4.01403C66.7924 1.08694 60.3296 -0.257407 53.5562 0.0406C44.4567 0.437943 28.0551 10.6364 21.4932 11.7821L21.4668 11.8284ZM8.38252 63.589C9.92884 67.2445 8.26356 69.218 11.3033 73.2444C17.9115 81.9793 31.5905 78.8734 38.2318 71.4696C44.873 64.0658 49.3864 48.9138 42.157 43.2318C39.9962 41.5364 37.0753 43.0199 34.1677 42.1391C30.6918 41.0927 31.1808 38.212 33.9695 36.9935C39.6063 34.5366 54.1377 40.0663 59.5498 49.0661C62.7879 54.4435 61.942 62.0195 59.7349 67.8472C57.6335 73.3901 53.5364 77.4165 49.5384 80.4297C37.6437 89.4825 10.7747 93.0586 1.88003 75.1914C-3.89554 63.5956 5.18415 62.4036 8.38252 63.5625V63.589ZM91.9961 47.6953C84.6478 68.5028 69.5745 67.675 74.4051 53.6554C80.7357 35.2518 92.1415 38.1921 87.073 45.894C86.3593 46.98 85.0377 48.5893 87.4959 49.1257C89.3132 49.523 90.767 48.2317 91.9961 47.7019V47.6953ZM97.8972 93.1115C96.417 89.9659 96.4104 85.0455 97.3355 79.337C88.2625 78.0125 88.0841 72.0524 87.0135 68.0789C83.7094 71.5027 76.3545 80.0986 67.5854 75.0589C57.118 69.0458 69.6802 45.192 79.2621 36.6491C85.4011 31.1592 96.1262 30.9804 94.7319 43.2119C98.5713 42.4503 100.957 44.0066 102.444 46.682C104.049 49.576 102.556 51.8806 101.452 54.6752C100.307 57.4354 99.441 60.3041 98.8687 63.238C98.4391 65.5293 97.8642 69.3769 99.0272 71.5491C103.607 54.0925 113.612 33.8015 116.764 32.477C121.799 31.9803 125.275 35.0068 125.804 39.9603C129.636 35.5895 142.945 30.689 145.265 40.5828C149.131 57.1388 132.888 82.4893 119.744 73.5292C112.475 68.5889 117.728 57.0792 123.749 56.8341C126.808 56.7083 127.984 58.4765 126.392 61.1784C125.969 61.9003 125.414 62.5625 124.925 63.2976C113.949 79.6615 143.884 48.2979 136.198 40.2649C132.015 36.616 121.66 50.4634 120.055 52.8475C113.499 62.3837 110.717 76.2642 110.572 88.6812C110.512 93.6347 112.7 98.7406 106.99 98.9922C102.602 99.1843 99.133 95.787 97.8906 93.1513L97.8972 93.1115ZM176.059 21.517C174.315 27.2983 168.863 35.424 166.094 41.7815C165.004 33.9737 163.682 28.0996 163.299 25.358L176.059 21.517ZM153.67 17.4045C152.217 18.676 145.027 22.2521 146.606 17.1462C147.32 14.8549 152.144 12.0536 153.67 17.4045ZM160.444 15.2323C155.204 6.11994 146.17 8.78876 141.326 16.3979C138.531 20.7687 139.767 25.5897 143.011 27.9738C147.287 31.1194 151.536 29.146 155.693 27.8413C157.846 33.9929 159.372 40.3476 160.246 46.8079C161.495 56.5163 159.208 58.8871 157.867 67.5293C156.023 79.4032 159.354 90.4361 170.112 95.3433C177.605 98.7472 174.737 91.595 174.215 89.0388C166.398 66.8074 180.473 40.2252 189.963 17.7091C205.651 14.5304 211.995 13.5304 215.636 16.1528C217.763 17.6826 217.664 19.4309 218.722 21.9276C224.927 22.7421 227.894 14.7953 226.922 9.93443C222.759 -10.8797 171.03 11.292 160.444 15.2323ZM208.558 52.8938C206.827 51.7548 202.347 48.3442 202.75 38.8411C199.168 42.1523 194.456 52.2051 193.802 58.8738C192.831 68.7412 203.1 61.6552 208.558 52.9137V52.8938ZM203.675 35.8279C196.406 28.0466 179.978 57.8209 184.828 70.2246C188.588 79.8469 204.573 77.8999 214.42 59.8407C215.385 58.0593 215.669 56.6686 216.66 54.6686C221.874 54.7812 231.819 52.8938 229.711 47.2317C227.068 47.7482 223.916 49.0595 218.649 48.4966C218.907 42.4901 220.407 36.1657 216.211 32.3181C211.228 27.742 206.569 31.0664 203.688 35.8279H203.675Z" fill="white"/>
</svg>
