<svg width="46" height="46" viewBox="0 0 46 46" fill="none" xmlns="http://www.w3.org/2000/svg">
<path d="M23 46C35.7025 46 46 35.7025 46 23C46 10.2975 35.7025 0 23 0C10.2975 0 0 10.2975 0 23C0 35.7025 10.2975 46 23 46Z" fill="white"/>
<mask id="mask0_4_21" style="mask-type:luminance" maskUnits="userSpaceOnUse" x="9" y="14" width="28" height="19">
<path d="M9.20002 14.95H36.8V32.2H9.20002V14.95Z" fill="white"/>
</mask>
<g mask="url(#mask0_4_21)">
<path fill-rule="evenodd" clip-rule="evenodd" d="M9.21151 18.3869L11.2424 20.4017C9.98661 21.6515 9.20576 23.3815 9.20001 25.2885C9.20001 29.1027 12.2924 32.195 16.1069 32.195C17.8733 32.195 19.4799 31.5323 20.7023 30.4442L20.6759 30.5087L22.9862 32.1897L25.3253 30.4706C26.5846 31.5873 28.2095 32.2025 29.8931 32.1999C33.7077 32.1999 36.8 29.1077 36.8 25.2935C36.8 23.381 36.0238 21.6516 34.7691 20.4017L36.8 18.387H32.6738C30.3681 16.5123 26.5696 14.95 23.0138 14.95C19.4626 14.95 15.6331 16.5123 13.3274 18.3869H9.21151ZM23.0023 24.8787C22.8091 21.544 20.2446 18.8502 16.974 18.441C18.6231 17.2561 20.7242 16.674 23.0138 16.674C25.3035 16.674 27.4045 17.2561 29.0525 18.441C25.7715 18.8395 23.2024 21.5386 23.0023 24.8787ZM35.0762 25.2935C35.0762 28.1542 32.7589 30.4759 29.8931 30.4759C27.0331 30.4759 24.7158 28.1542 24.7101 25.2935C24.7101 22.4326 27.0331 20.111 29.8931 20.111C32.7543 20.111 35.0762 22.4328 35.0762 25.2935ZM21.2842 25.2935C21.2842 28.1542 18.9624 30.4759 16.1012 30.4759C13.2411 30.4759 10.9239 28.1542 10.9181 25.2935C10.9181 22.4326 13.2411 20.111 16.1012 20.111C18.9624 20.111 21.2842 22.4328 21.2842 25.2935ZM29.8931 21.8399C31.8056 21.8399 33.3523 23.3862 33.3523 25.2932C33.3523 27.2002 31.8056 28.7464 29.8989 28.7464C27.991 28.7464 26.4454 27.2004 26.4454 25.2932C26.4397 23.3862 27.9864 21.8399 29.8931 21.8399ZM29.8931 27.7658C31.2559 27.7658 32.3656 26.6622 32.3656 25.2935C32.3656 24.9687 32.3024 24.647 32.1782 24.3469C32.054 24.0467 31.8723 23.7741 31.6423 23.5443C31.4123 23.3147 31.1397 23.1326 30.8396 23.0085C30.5394 22.8844 30.2186 22.8207 29.8931 22.8211C28.5246 22.8211 27.4252 23.9308 27.4252 25.2935C27.4252 26.6562 28.5304 27.7658 29.8931 27.7658ZM29.8828 27.0064C28.9329 27.0064 28.1635 26.237 28.1635 25.2879C28.1635 24.3388 28.9329 23.5694 29.8828 23.5694C30.8315 23.5694 31.6009 24.3388 31.6009 25.2879C31.6009 26.237 30.8315 27.0064 29.8828 27.0064ZM19.5546 25.2932C19.5546 23.3862 18.009 21.8399 16.1012 21.8399C14.1945 21.8399 12.6477 23.386 12.6477 25.2932C12.6477 27.2004 14.1945 28.7464 16.1012 28.7464C18.009 28.7464 19.5546 27.2002 19.5546 25.2932ZM18.5737 25.2935C18.5737 26.6622 17.4639 27.7658 16.1012 27.7658C14.7384 27.7658 13.6344 26.6562 13.6344 25.2935C13.6344 23.9308 14.7327 22.8211 16.1012 22.8211C16.4266 22.8207 16.7475 22.8844 17.0476 23.0085C17.3478 23.1326 17.6215 23.3147 17.8503 23.5443C18.0803 23.7741 18.262 24.0467 18.3862 24.3469C18.5104 24.647 18.5748 24.9687 18.5737 25.2935ZM16.0908 27.0064C15.1421 27.0064 14.3716 26.237 14.3716 25.2879C14.3716 24.3388 15.1421 23.5694 16.0908 23.5694C17.0396 23.5694 17.8089 24.3388 17.8089 25.2879C17.8089 26.237 17.0396 27.0064 16.0908 27.0064Z" fill="#FFCC00"/>
</g>
</svg>
