<svg width="46" height="46" viewBox="0 0 46 46" fill="none" xmlns="http://www.w3.org/2000/svg">
<ellipse cx="23" cy="23" rx="23" ry="23" fill="white"/>
<path fill-rule="evenodd" clip-rule="evenodd" d="M35.0409 17.1818C35.2268 16.5463 35.0409 16.1014 34.1723 16.1014H31.2784C30.5341 16.1014 30.2034 16.504 30.0173 16.9489C30.0173 16.9489 28.5495 20.6348 26.4616 23.0082C25.7794 23.7072 25.4899 23.919 25.1179 23.919C24.9319 23.919 24.6631 23.7072 24.6631 23.0717V17.1818C24.6631 16.4193 24.4563 16.1014 23.8361 16.1014H19.2882C18.8333 16.1014 18.5439 16.4609 18.5439 16.7794C18.5439 17.4995 19.5775 17.6695 19.7016 19.6603V24.0251C19.7016 24.9785 19.5362 25.148 19.1641 25.148C18.1924 25.1462 15.7944 21.461 14.388 17.2234C14.0985 16.4395 13.8298 16.1006 13.0851 16.1006H10.192C9.3652 16.1006 9.19983 16.5032 9.19983 16.948C9.19983 17.7318 10.1713 21.6296 13.7685 26.7773C16.1666 30.2939 19.5362 32.2006 22.5958 32.2006C24.4356 32.2006 24.6631 31.7767 24.6631 31.0565V28.3873C24.6631 27.54 24.8285 27.3706 25.428 27.3706C25.8622 27.3706 26.5857 27.5823 28.301 29.277C30.2648 31.2896 30.5957 32.2006 31.6918 32.2006H34.5861C35.4129 32.2006 35.8265 31.7767 35.5783 30.951C35.3095 30.1248 34.3793 28.9172 33.1395 27.4763C32.4574 26.6501 31.4444 25.7818 31.155 25.3368C30.7207 24.7647 30.845 24.5105 31.155 24.0232C31.155 24.0022 34.6901 18.918 35.0416 17.1808L35.0409 17.1818Z" fill="#FFCC00"/>
</svg>
