<svg width="40" height="40" viewBox="0 0 40 40" fill="none" xmlns="http://www.w3.org/2000/svg">
<circle cx="20" cy="20" r="20" fill="black"/>
<path d="M22.1202 10.3249C21.4546 10.1149 20.7415 10 20.0046 10C17.8533 10 15.9278 10.9707 14.6402 12.4999L17.9483 15.2812L22.1202 10.3249Z" fill="white"/>
<path d="M14.6402 12.4994C13.5796 13.7591 12.9986 15.3533 13 17.0001C13 18.3154 13.2615 19.3851 13.6933 20.3399L17.9484 15.2806L14.6402 12.4994Z" fill="white"/>
<path d="M20.0046 14.3178C20.5154 14.3183 21.0153 14.4647 21.4456 14.7398C21.8759 15.0148 22.2186 15.4071 22.4334 15.8705C22.6482 16.3338 22.7262 16.8489 22.6581 17.355C22.5899 17.8612 22.3786 18.3373 22.049 18.7274L26.2169 13.7711C25.3614 12.1228 23.8865 10.8816 22.1163 10.3203L17.9524 15.2766C18.2033 14.9761 18.5172 14.7345 18.8718 14.5688C19.2265 14.4031 19.6132 14.3174 20.0046 14.3178Z" fill="white"/>
<path d="M20.0046 19.6741C18.5269 19.6741 17.3264 18.4737 17.3264 16.9959C17.3247 16.3667 17.5465 15.7573 17.9524 15.2765L13.6934 20.3358C14.4224 21.9483 15.6307 23.2438 16.8748 24.8761L22.049 18.7273C21.7976 19.0243 21.4844 19.2629 21.1313 19.4264C20.7783 19.5899 20.3938 19.6745 20.0046 19.6741Z" fill="white"/>
<path d="M21.9407 26.5534C24.2782 22.9005 27 21.2405 27 16.9934C27 15.8286 26.7147 14.7311 26.2116 13.7644L16.8734 24.8775C17.2696 25.3965 17.6698 25.9472 18.058 26.5573C19.4764 28.7522 19.0842 30.0675 19.9994 30.0675C20.9145 30.0675 20.5223 28.7482 21.9407 26.5534Z" fill="white"/>
</svg>
