<svg width="151" height="149" viewBox="0 0 151 149" fill="none" xmlns="http://www.w3.org/2000/svg">
<g clip-path="url(#clip0_150_6206)">
<path d="M75.31 148.04C116.903 148.04 150.62 114.9 150.62 74.02C150.62 33.1399 116.903 0 75.31 0C33.7174 0 0 33.1399 0 74.02C0 114.9 33.7174 148.04 75.31 148.04Z" fill="#FFCC00"/>
<path d="M75.2 13C109.5 13 137.41 40.37 137.41 74C137.41 107.63 109.5 135 75.2 135C40.9 135 13 107.62 13 74C13 40.38 40.91 13 75.2 13ZM75.2 4.00003C35.94 4.00003 4.00005 35.41 4.00005 74C4.00005 112.59 35.94 144 75.2 144C114.46 144 146.41 112.58 146.41 74C146.41 35.42 114.47 4.00003 75.2 4.00003Z" fill="#1A1A18"/>
<path fill-rule="evenodd" clip-rule="evenodd" d="M9.09999 62.9001C8.4525 62.9158 7.82409 63.1223 7.29347 63.4937C6.76285 63.8651 6.35357 64.3847 6.11708 64.9877C5.88059 65.5907 5.82735 66.2501 5.964 66.8832C6.10065 67.5163 6.42113 68.0949 6.88527 68.5467C7.3494 68.9984 7.93657 69.3032 8.57313 69.4226C9.2097 69.5421 9.86742 69.471 10.4638 69.2183C11.0601 68.9656 11.5685 68.5425 11.9254 68.002C12.2823 67.4615 12.4718 66.8276 12.47 66.18C12.4568 65.2985 12.0946 64.4583 11.4629 63.8434C10.8312 63.2286 9.98147 62.8894 9.09999 62.9001Z" fill="white"/>
<path fill-rule="evenodd" clip-rule="evenodd" d="M134.04 94.2199C133.136 96.7409 132.067 99.1995 130.84 101.58C130.95 100.11 131.01 98.58 131.01 97.13C131.014 92.5123 130.453 87.9115 129.34 83.4299C128.209 78.9633 126.53 74.654 124.34 70.5999C124.244 70.4209 124.184 70.2245 124.165 70.0223C124.145 69.8201 124.165 69.616 124.225 69.4217C124.284 69.2275 124.382 69.0468 124.511 68.8904C124.641 68.7339 124.8 68.6046 124.98 68.51C126.287 67.8131 127.382 66.7767 128.15 65.51C129.084 63.9613 129.471 62.1441 129.25 60.3492C129.029 58.5543 128.212 56.8856 126.93 55.61C125.77 54.4628 124.294 53.6875 122.691 53.3829C121.088 53.0783 119.43 53.2584 117.93 53.9C116.903 54.3497 115.978 55.0028 115.21 55.8199C114.931 56.1178 114.545 56.2933 114.136 56.3083C113.728 56.3233 113.331 56.1766 113.03 55.9C111.008 54.0181 108.849 52.2899 106.57 50.73C106.437 50.6808 106.309 50.617 106.19 50.5399C96.9473 44.2968 86.0486 40.9608 74.8949 40.9608C63.7413 40.9608 52.8427 44.2968 43.6 50.5399C43.4807 50.617 43.3533 50.6808 43.22 50.73C40.9409 52.2899 38.7816 54.0181 36.7601 55.9C36.4595 56.1766 36.0617 56.3233 35.6535 56.3083C35.2453 56.2933 34.8595 56.1178 34.58 55.8199C33.8142 55.0051 32.8927 54.3523 31.87 53.9C30.3693 53.2611 28.7125 53.0825 27.11 53.3869C25.5076 53.6914 24.0319 54.4652 22.87 55.61C21.5881 56.8856 20.7712 58.5543 20.55 60.3492C20.3288 62.1441 20.7161 63.9613 21.65 65.51C22.4178 66.7767 23.5129 67.8131 24.82 68.51C24.9998 68.6046 25.159 68.7339 25.2886 68.8904C25.4182 69.0468 25.5156 69.2275 25.5751 69.4217C25.6346 69.616 25.6551 69.8201 25.6353 70.0223C25.6156 70.2245 25.556 70.4209 25.46 70.5999C23.2704 74.654 21.591 78.9633 20.46 83.4299C19.3473 87.9115 18.7864 92.5123 18.79 97.13C18.79 98.13 18.79 99.0199 18.86 99.9599C17.6913 97.5376 16.689 95.0385 15.86 92.48C16.1175 89.1749 16.6493 85.8969 17.45 82.6799C18.5116 78.4403 20.041 74.3317 22.0101 70.4299C20.7737 69.5412 19.7294 68.412 18.94 67.11C17.6449 64.9693 17.1075 62.4553 17.414 59.9723C17.7205 57.4892 18.8533 55.1813 20.6301 53.4199C22.2268 51.8227 24.268 50.7442 26.4872 50.3249C28.7065 49.9057 31.0006 50.1653 33.07 51.0699C34.0173 51.4773 34.9027 52.0159 35.7 52.6699C46.4666 43.1092 60.3711 37.8386 74.7699 37.86H74.98C89.3788 37.8386 103.283 43.1092 114.05 52.6699C114.847 52.0159 115.733 51.4773 116.68 51.0699C118.751 50.1722 121.043 49.9162 123.261 50.3352C125.478 50.7541 127.52 51.8286 129.12 53.4199C130.271 54.5653 131.158 55.9479 131.72 57.4712C132.281 58.9944 132.504 60.6217 132.373 62.24C132.242 63.8582 131.759 65.4285 130.959 66.8412C130.159 68.2539 129.06 69.4751 127.74 70.4199C131.475 77.822 133.608 85.9282 134 94.2099" fill="#1A1A18"/>
<path d="M109.45 98.43C109.56 97.21 109.62 96.0001 109.64 94.8601H71.0399C70.5655 98.5436 70.9453 102.287 72.1499 105.8C73.1067 108.928 74.9557 111.708 77.47 113.8C80.3758 115.972 83.8497 117.254 87.47 117.49C91.4927 117.895 95.5481 117.157 99.1699 115.36C102.582 113.768 105.388 111.116 107.17 107.8C108.475 104.835 109.247 101.663 109.45 98.43ZM89.88 59.9101C89.6638 59.9176 89.4483 59.8788 89.2483 59.7964C89.0482 59.7139 88.8682 59.5897 88.72 59.4321C88.5718 59.2744 88.459 59.0869 88.389 58.8822C88.3191 58.6774 88.2936 58.4601 88.3144 58.2447C88.3353 58.0294 88.4019 57.821 88.5098 57.6334C88.6176 57.4458 88.7642 57.2834 88.9398 57.1571C89.1155 57.0307 89.3161 56.9433 89.5282 56.9007C89.7403 56.8581 89.9591 56.8614 90.1699 56.9101C90.1699 56.9101 95.41 57.36 94.71 62.45C94.29 65.56 91.88 65.99 89.62 66.45C88.71 66.61 87.85 66.7601 87.73 67.0001C87.6261 67.1901 87.5359 67.3872 87.46 67.5901C87.1963 68.2566 87.1069 68.9793 87.1999 69.69C87.2144 69.8921 87.2762 70.0879 87.3805 70.2617C87.4847 70.4354 87.6284 70.5822 87.7999 70.69L87.9399 70.7501C88.9894 70.9343 90.0584 70.9814 91.12 70.8901C94.18 70.8101 97.68 70.7301 99.12 73.1101C99.5002 73.7266 99.774 74.4027 99.9299 75.1101C100.096 75.9161 99.9976 76.7542 99.6499 77.5001C99.2893 78.2082 98.7297 78.7955 98.0399 79.19C97.3151 79.593 96.5274 79.8703 95.71 80.0101C93.0511 80.2607 90.379 80.3409 87.71 80.2501C85.4292 80.157 83.145 80.2038 80.87 80.3901C80.87 80.3901 80.8699 80.4701 80.7899 80.6301C80.6497 80.9837 80.5752 81.3598 80.5699 81.7401C80.5585 82.1123 80.6338 82.482 80.7899 82.82C80.9163 83.0868 81.1372 83.2971 81.4099 83.4101C83.0799 84.1101 88.6399 84.02 94.1799 83.93C96.1799 83.93 98.1799 83.8601 99.5599 83.8601C101.47 83.8601 103.02 83.77 104.33 83.69C108.76 83.44 110.96 83.31 112 86.54C112.424 88.2759 112.656 90.0534 112.69 91.8401H116.33C116.479 91.8396 116.627 91.8599 116.77 91.9001C117.5 92.0801 121.35 93.16 121.94 96.33C122.218 97.6623 122.128 99.045 121.68 100.33C121.257 101.414 120.632 102.408 119.84 103.26C118.741 104.464 117.209 105.184 115.58 105.26C115.174 105.26 114.785 105.099 114.498 104.812C114.211 104.525 114.05 104.136 114.05 103.73C114.05 103.324 114.211 102.935 114.498 102.648C114.785 102.361 115.174 102.2 115.58 102.2C115.963 102.176 116.338 102.075 116.681 101.903C117.025 101.731 117.33 101.492 117.58 101.2C118.115 100.638 118.539 99.9796 118.83 99.2601C119.087 98.4895 119.132 97.664 118.96 96.8701C118.72 95.6201 116.75 95.0301 116.19 94.8701H112.75C112.75 96.1101 112.67 97.4101 112.55 98.7201C112.318 102.33 111.44 105.869 109.96 109.17C107.894 113.075 104.622 116.208 100.63 118.1C96.4968 120.149 91.8707 120.995 87.2799 120.54C83.0587 120.256 79.0126 118.744 75.6399 116.19C72.6674 113.737 70.4746 110.47 69.3299 106.79C67.7727 102.351 67.4275 97.577 68.3299 92.96C68.4161 92.6333 68.608 92.3441 68.8757 92.1379C69.1435 91.9317 69.472 91.8199 69.8099 91.82H109.64C109.611 90.3468 109.42 88.8813 109.07 87.45C108.76 86.45 107.34 86.5501 104.48 86.7201C103.08 86.8001 101.41 86.9001 99.5399 86.9001C97.5399 86.9001 95.8599 86.9001 94.1999 86.9001C88.3499 87.0001 82.4699 87.1001 80.1999 86.1401C79.2565 85.761 78.4845 85.0496 78.0299 84.1401C77.6632 83.3658 77.4818 82.5167 77.5 81.6601C77.5082 80.8886 77.6608 80.1255 77.9499 79.4101C78.2241 78.6506 78.7546 78.0105 79.4499 77.6001C80.4499 77.1101 84.0099 77.1201 87.6599 77.1401C90.1448 77.2264 92.6327 77.1629 95.11 76.95C95.5778 76.8724 96.0301 76.7205 96.4499 76.5001C96.6183 76.4081 96.7597 76.2736 96.86 76.1101C96.9133 75.9511 96.9133 75.7791 96.86 75.6201C96.7723 75.2451 96.6236 74.8869 96.4199 74.56C95.9199 73.72 93.4199 73.78 91.1499 73.83C89.7093 73.9656 88.2562 73.8609 86.85 73.5201L86.34 73.29C85.745 72.9689 85.2355 72.5099 84.8545 71.9514C84.4734 71.3929 84.2318 70.7512 84.1499 70.08C83.9776 68.8515 84.1187 67.5994 84.5599 66.44C84.679 66.0968 84.8228 65.7626 84.99 65.44C85.8 63.9 87.3799 63.62 89.0499 63.32C90.2499 63.1 91.5299 62.87 91.6499 61.96C91.9699 60.09 89.8999 59.9101 89.8999 59.9101H89.88Z" fill="#1A1A18"/>
<path fill-rule="evenodd" clip-rule="evenodd" d="M68.38 75.24C67.733 75.2558 67.1049 75.462 66.5745 75.8329C66.0441 76.2039 65.6349 76.7231 65.3981 77.3255C65.1613 77.9279 65.1074 78.5867 65.2432 79.2195C65.379 79.8524 65.6985 80.4311 66.1617 80.8832C66.6248 81.3354 67.211 81.6408 67.847 81.7614C68.4829 81.882 69.1403 81.8124 69.7369 81.5612C70.3334 81.31 70.8425 80.8884 71.2006 80.3493C71.5587 79.8101 71.7498 79.1773 71.75 78.5301C71.7448 78.0927 71.6534 77.6607 71.4812 77.2587C71.3091 76.8567 71.0594 76.4926 70.7465 76.187C70.4336 75.8815 70.0634 75.6405 69.6574 75.4781C69.2514 75.3156 68.8174 75.2347 68.38 75.24Z" fill="#1A1A18"/>
<path fill-rule="evenodd" clip-rule="evenodd" d="M38.2401 75.24C37.593 75.2558 36.9649 75.462 36.4345 75.8329C35.9041 76.2039 35.4949 76.7231 35.2581 77.3255C35.0213 77.9279 34.9675 78.5867 35.1034 79.2195C35.2392 79.8524 35.5587 80.4311 36.0218 80.8832C36.485 81.3354 37.0711 81.6408 37.707 81.7614C38.3429 81.882 39.0004 81.8124 39.5969 81.5612C40.1934 81.31 40.7025 80.8884 41.0606 80.3493C41.4187 79.8101 41.6099 79.1773 41.6101 78.5301C41.6048 78.0927 41.5135 77.6607 41.3413 77.2587C41.1691 76.8567 40.9195 76.4926 40.6065 76.187C40.2936 75.8815 39.9235 75.6405 39.5174 75.4781C39.1114 75.3156 38.6774 75.2347 38.2401 75.24Z" fill="#1A1A18"/>
<path fill-rule="evenodd" clip-rule="evenodd" d="M59.45 88.82H45.91C45.15 92.95 44.41 95.1 44.65 96.6C44.99 98.73 47.24 99.9 52.16 103.36V113.36C50.69 114.79 48.49 115.52 45.73 115.72C50.31 118.13 55.14 118.16 60.22 115.72C57.7 115.64 55.32 115.24 53.54 113.47V103.39H53.73C56.18 100.93 61.4 98.82 61.08 96L59.45 88.82Z" fill="#1A1A18"/>
<path d="M99.81 16.0301L101.71 11.0301L101.06 10.7899L100.42 12.46L99.6399 14.5301L99.53 14.9001V14.56C99.2 12.98 98.83 11.3101 98.47 9.78006L97.7 9.48001L95.79 14.48L96.44 14.73L97.08 13.05C97.35 12.35 97.61 11.65 97.86 10.98L97.98 10.62V10.97L99.04 15.74L99.81 16.0301ZM89.65 10.6C89.4599 11.66 88.87 12.16 87.96 12C87.05 11.84 86.67 11.16 86.86 10.1L87.41 7.01004L86.68 6.88004L86.1399 9.88004C85.8699 11.39 86.47 12.32 87.83 12.56C88.1281 12.6469 88.4422 12.6632 88.7477 12.6077C89.0532 12.5522 89.3416 12.4263 89.59 12.24C89.8384 12.0537 90.04 11.8122 90.1789 11.5345C90.3177 11.2567 90.3899 10.9505 90.3899 10.64L90.93 7.64005L90.2 7.51004L89.65 10.6ZM77.53 11.36L77.58 8.99002H79.7601V8.36002H77.58V6.66006H80.12V6.03006L76.84 5.97L76.74 11.2899L77.53 11.36ZM62.41 8.27005C62.33 7.81005 62.63 7.59995 62.99 7.53995C63.35 7.47995 63.54 7.53998 63.6 7.94998C63.621 8.15621 63.5878 8.36443 63.5036 8.55386C63.4194 8.74329 63.2872 8.90744 63.12 9.03006C62.66 8.67006 62.45 8.60001 62.45 8.23001L62.41 8.27005ZM63.7699 11.7701C63.1199 11.8801 62.32 11.77 62.22 11.19C62.22 10.91 62.28 10.47 63.22 9.87003L64.95 11.1501C64.8013 11.3198 64.6205 11.4585 64.418 11.558C64.2155 11.6576 63.9952 11.716 63.7699 11.73V11.7701ZM66.48 11.39L65.84 10.94C66.0144 10.4327 66.0692 9.89197 66 9.36002L65.25 9.49002C65.3045 9.82113 65.3045 10.1589 65.25 10.49L63.7699 9.49002C64.0062 9.29762 64.1886 9.04718 64.299 8.76321C64.4094 8.47925 64.4441 8.17149 64.4 7.87003C64.27 7.09003 63.7 6.87001 62.96 6.98001C62.22 7.09001 61.58 7.60004 61.71 8.38004C61.733 8.53682 61.7895 8.68671 61.8758 8.81961C61.9621 8.95251 62.0761 9.0653 62.21 9.15005L62.65 9.48001C62.04 9.91001 61.38 10.48 61.53 11.32C61.7 12.32 62.89 12.61 63.95 12.44C64.5639 12.3606 65.1284 12.0623 65.54 11.6L66.04 11.97L66.48 11.39ZM51.48 15.7801C51.8311 15.6772 52.1572 15.5032 52.4383 15.2691C52.7193 15.0349 52.9493 14.7454 53.1138 14.4187C53.2784 14.092 53.374 13.735 53.3948 13.3698C53.4157 13.0046 53.3612 12.639 53.2349 12.2957C53.1086 11.9524 52.9131 11.6387 52.6604 11.3741C52.4078 11.1095 52.1035 10.8996 51.7664 10.7575C51.4293 10.6154 51.0667 10.544 50.7009 10.5479C50.3351 10.5518 49.9739 10.6308 49.6399 10.7801L47.82 11.47L49.71 16.47L51.48 15.7801ZM50.18 15.6L48.73 11.7899L49.84 11.37C50.0902 11.2748 50.3566 11.2298 50.6242 11.2376C50.8918 11.2454 51.1551 11.3057 51.3993 11.4153C51.6436 11.5249 51.8638 11.6814 52.0475 11.8761C52.2312 12.0708 52.3748 12.2998 52.47 12.55C52.5652 12.8001 52.6102 13.0667 52.6025 13.3343C52.5947 13.6018 52.5343 13.8652 52.4247 14.1094C52.3152 14.3536 52.1585 14.5739 51.9638 14.7576C51.7691 14.9413 51.5401 15.0848 51.29 15.18L50.18 15.6ZM41.99 19.8C41.6379 20.0661 41.2129 20.2186 40.7719 20.237C40.3309 20.2554 39.8947 20.1388 39.5217 19.9029C39.1486 19.6669 38.8563 19.3229 38.6839 18.9165C38.5115 18.5102 38.467 18.0609 38.5566 17.6287C38.6461 17.1965 38.8653 16.8019 39.185 16.4975C39.5046 16.1931 39.9095 15.9934 40.3456 15.9251C40.7817 15.8568 41.2284 15.9231 41.6258 16.1151C42.0232 16.3072 42.3526 16.6159 42.57 17C42.8614 17.4385 42.9681 17.9743 42.867 18.491C42.7659 19.0077 42.4651 19.4637 42.03 19.76L41.99 19.8ZM42.2601 20.35C42.7527 20.1009 43.1592 19.7097 43.4272 19.2271C43.6952 18.7445 43.8124 18.1926 43.7635 17.6427C43.7146 17.0929 43.5019 16.5703 43.153 16.1425C42.8041 15.7147 42.3349 15.4014 41.8061 15.2431C41.2772 15.0847 40.7131 15.0886 40.1865 15.2542C39.6598 15.4198 39.195 15.7395 38.852 16.172C38.5089 16.6045 38.3034 17.13 38.262 17.6805C38.2207 18.2309 38.3454 18.7811 38.62 19.26C38.7804 19.5825 39.0062 19.8678 39.2831 20.0981C39.5601 20.3283 39.882 20.4983 40.2283 20.5971C40.5746 20.6959 40.9376 20.7213 41.2944 20.6719C41.6511 20.6225 41.9936 20.4992 42.3 20.31L42.2601 20.35ZM33.2 26.06C32.9085 26.3906 32.5232 26.6247 32.0954 26.731C31.6676 26.8373 31.2176 26.8107 30.8052 26.6549C30.3929 26.4991 30.0377 26.2214 29.787 25.8588C29.5364 25.4962 29.4023 25.0658 29.4023 24.625C29.4023 24.1842 29.5364 23.7539 29.787 23.3913C30.0377 23.0286 30.3929 22.7509 30.8052 22.5951C31.2176 22.4393 31.6676 22.4128 32.0954 22.5191C32.5232 22.6254 32.9085 22.8593 33.2 23.19C33.3886 23.3731 33.5393 23.5915 33.6434 23.8329C33.7475 24.0743 33.803 24.3339 33.8067 24.5967C33.8104 24.8595 33.7622 25.1206 33.665 25.3648C33.5677 25.609 33.4234 25.8317 33.24 26.0201L33.2 26.06ZM33.58 26.5399C34.1063 26.0566 34.4254 25.3887 34.4708 24.6756C34.5161 23.9624 34.284 23.2594 33.8232 22.7133C33.3623 22.1672 32.7082 21.8203 31.9976 21.7451C31.287 21.67 30.575 21.8724 30.0101 22.31C29.7321 22.5424 29.5046 22.8293 29.3418 23.1531C29.1791 23.4769 29.0845 23.8306 29.0639 24.1924C29.0433 24.5542 29.0971 24.9162 29.222 25.2564C29.3469 25.5965 29.5402 25.9075 29.79 26.17C30.0107 26.4561 30.2885 26.6933 30.6056 26.8665C30.9228 27.0397 31.2725 27.1452 31.6325 27.1762C31.9925 27.2072 32.3551 27.1632 32.6972 27.0468C33.0393 26.9304 33.3536 26.7442 33.62 26.5L33.58 26.5399ZM26.17 33.7801L24.3899 32.22L25.84 30.58L25.37 30.1601L23.92 31.81L22.6399 30.68L24.32 28.7701L23.85 28.35L21.68 30.82L25.68 34.34L26.17 33.7801Z" fill="white" stroke="white" stroke-width="0.16" stroke-miterlimit="22.93"/>
<path d="M113.26 130.69L112.92 130.15L110.66 131.58L109.66 130L111.56 128.8L111.23 128.28L109.33 129.48L108.49 128.14L110.68 126.75L110.35 126.22L107.52 128L110.36 132.51L113.26 130.69ZM102.54 135.69L101.64 133.69L102.35 133.38C103.14 133.03 103.74 133.23 104.01 133.83C104.28 134.43 104.01 135.05 103.28 135.37L102.54 135.69ZM103.54 135.95C104.74 135.41 105.18 134.57 104.72 133.53C104.26 132.49 103.26 132.3 102.13 132.8L101.42 133.12L100.66 131.4L99.97 131.7L102.14 136.57L103.54 135.95ZM96.54 138.65L95.11 133.52L92.05 134.37C92.23 135.46 92.56 136.8 92.59 137.62C92.6218 138.343 92.3909 139.054 91.94 139.62L92.43 139.99C93.0264 139.34 93.3457 138.482 93.32 137.6C93.32 136.86 93.01 135.72 92.86 134.82L94.56 134.34L95.83 138.87L96.54 138.65ZM86.8899 140.98L86.81 140.36L84.16 140.69L83.92 138.84L86.15 138.56L86.07 137.94L83.84 138.22L83.6399 136.65L86.22 136.33L86.1399 135.71L82.83 136.12L83.5 141.41L86.8899 140.98ZM77.61 140.92C77.1769 141.196 76.6736 141.342 76.16 141.34C75.619 141.303 75.1122 141.062 74.7421 140.666C74.372 140.269 74.1662 139.747 74.1662 139.205C74.1662 138.663 74.372 138.141 74.7421 137.744C75.1122 137.348 75.619 137.107 76.16 137.07H77.16L77.37 137.76H77.79V136.56C77.38 136.56 76.5601 136.47 76.25 136.48C75.8743 136.462 75.4987 136.521 75.1465 136.653C74.7943 136.785 74.4729 136.988 74.202 137.249C73.931 137.51 73.7163 137.824 73.571 138.171C73.4256 138.518 73.3528 138.891 73.3569 139.267C73.361 139.643 73.4419 140.014 73.5948 140.358C73.7476 140.702 73.9691 141.011 74.2457 141.266C74.5222 141.521 74.8481 141.717 75.2031 141.841C75.558 141.966 75.9347 142.016 76.31 141.99C76.8717 141.992 77.4225 141.836 77.9 141.54L77.61 140.92ZM67.97 141.51L68.05 140.88L65.3899 140.55L65.6301 138.69L67.86 138.98L67.94 138.36L65.71 138.08L65.9 136.51L68.48 136.83L68.56 136.21L65.24 135.79L64.58 141.08L67.97 141.51ZM56.15 138.51L56.65 136.71L57.65 136.99C58.31 137.18 58.79 137.62 58.65 138.23C58.51 138.84 57.87 138.99 57.23 138.81L56.15 138.51ZM56.82 136.11L57.24 134.59L57.97 134.79C58.74 135.01 59.19 135.31 59.03 135.87C58.87 136.43 58.3 136.52 57.49 136.3L56.82 136.11ZM56.6301 139.3C57.2148 139.532 57.8554 139.584 58.47 139.45C58.6897 139.368 58.8863 139.235 59.043 139.061C59.1998 138.887 59.312 138.677 59.37 138.45C59.4594 138.129 59.4258 137.786 59.2761 137.488C59.1263 137.191 58.871 136.96 58.56 136.84C58.8326 136.845 59.0994 136.761 59.3196 136.6C59.5399 136.439 59.7015 136.211 59.78 135.95C59.99 135.2 59.42 134.52 58.49 134.26L56.69 133.76L55.2699 138.9L56.6301 139.3ZM46.35 130.95C46.3818 130.866 46.4319 130.79 46.4969 130.728C46.5619 130.666 46.64 130.619 46.7254 130.591C46.8108 130.564 46.9015 130.555 46.9905 130.567C47.0796 130.579 47.1649 130.611 47.24 130.66C47.3099 130.677 47.3749 130.71 47.4299 130.756C47.4848 130.802 47.528 130.861 47.5562 130.927C47.5844 130.993 47.5968 131.065 47.5922 131.137C47.5877 131.208 47.5663 131.278 47.53 131.34C47.4318 131.522 47.2882 131.676 47.113 131.787C46.9377 131.897 46.7368 131.96 46.53 131.97C46.24 131.51 46.1399 131.32 46.2699 131.01L46.35 130.95ZM45.56 134.62C44.96 134.36 44.35 133.83 44.56 133.28C44.68 133.02 45.01 132.72 46.09 132.71L46.83 134.71C46.6108 134.802 46.3746 134.847 46.1368 134.842C45.899 134.837 45.665 134.782 45.45 134.68L45.56 134.62ZM48.03 135.79L47.74 135.06C48.1655 134.738 48.5082 134.32 48.74 133.84L48.05 133.53C47.8946 133.833 47.6921 134.11 47.45 134.35L46.79 132.66C47.0912 132.629 47.3793 132.52 47.6263 132.345C47.8733 132.17 48.0709 131.934 48.2 131.66C48.53 130.94 48.2 130.43 47.49 130.12C46.78 129.81 46 129.88 45.68 130.6C45.6142 130.744 45.5802 130.901 45.5802 131.06C45.5802 131.219 45.6142 131.376 45.68 131.52L45.87 132.04C45.13 132.04 44.27 132.17 43.92 132.96C43.49 133.96 44.34 134.79 45.32 135.23C45.8752 135.506 46.5128 135.566 47.11 135.4L47.33 135.99L48.03 135.79ZM36.72 127.65L35.08 126.51L37.18 125.13L37.3899 124.95L37.29 125.21L36.72 127.65ZM36.84 130.29L38.09 124.67L37.42 124.2L32.57 127.31L33.2 127.75L34.56 126.85L36.56 128.26L36.19 129.85L36.84 130.29ZM28.28 122.7L26.28 120.86C26.7605 120.818 27.2205 120.645 27.61 120.36C28.21 119.95 29.04 119.13 29.72 118.55L31.0101 119.75L28.28 122.7ZM28.07 124.87L29.25 123.61L28.82 123.21L32.03 119.77L29.71 117.61C28.88 118.33 27.91 119.3 27.22 119.76C26.7631 120.094 26.205 120.26 25.6399 120.23L25.41 120.02L24.23 121.28L24.53 121.56L25.53 120.97L28.31 123.57L27.79 124.57L28.07 124.87ZM21.62 116.51L22.11 116.11L20.44 114.03L21.8899 112.86L23.3 114.61L23.79 114.22L22.3801 112.47L23.61 111.47L25.24 113.47L25.73 113.08L23.6301 110.47L19.48 113.81L21.62 116.51Z" fill="white" stroke="white" stroke-width="0.16" stroke-miterlimit="22.93"/>
<path fill-rule="evenodd" clip-rule="evenodd" d="M99.98 20.6C97.8751 18.8445 95.221 17.883 92.48 17.883C89.7391 17.883 87.085 18.8445 84.98 20.6C84.0734 21.335 83.3423 22.2632 82.8401 23.3168C82.338 24.3704 82.0773 25.5228 82.0773 26.69C82.0773 27.8571 82.338 29.0095 82.8401 30.0631C83.3423 31.1167 84.0734 32.045 84.98 32.7801C87.085 34.5356 89.7391 35.497 92.48 35.497C95.221 35.497 97.8751 34.5356 99.98 32.7801C100.887 32.045 101.618 31.1167 102.12 30.0631C102.622 29.0095 102.883 27.8571 102.883 26.69C102.883 25.5228 102.622 24.3704 102.12 23.3168C101.618 22.2632 100.887 21.335 99.98 20.6ZM116.41 28.24C117.41 29.06 118.29 29.9099 119.19 30.7899C118.24 36.1588 115.569 41.0728 111.58 44.7899C106.39 49.5995 99.5757 52.2716 92.5 52.2716C85.4244 52.2716 78.6097 49.5995 73.42 44.7899C70.9144 42.4761 68.9113 39.6719 67.5351 36.5513C66.1589 33.4307 65.4389 30.0606 65.42 26.6501C65.4326 21.9035 66.8221 17.2625 69.42 13.2899C70.73 13.1699 72.04 13.0899 73.42 13.0399C69.9439 17.3068 68.2293 22.7407 68.6271 28.2299C69.0249 33.7191 71.505 38.8489 75.56 42.57C80.1894 46.8443 86.2591 49.2179 92.56 49.2179C98.8609 49.2179 104.931 46.8443 109.56 42.57C113.574 38.8233 116.033 33.705 116.45 28.23L116.41 28.24ZM90.32 14.83C94.7278 15.8998 99.0063 17.4455 103.08 19.44C104.799 21.4652 105.745 24.0337 105.75 26.69C105.74 28.3295 105.378 29.9477 104.687 31.435C103.997 32.9222 102.996 34.2437 101.75 35.31C99.1712 37.5039 95.8959 38.7086 92.5101 38.7086C89.1243 38.7086 85.8488 37.5039 83.2699 35.31C82.0137 34.2511 81.0039 32.9306 80.3112 31.4408C79.6185 29.951 79.2597 28.3279 79.2597 26.685C79.2597 25.042 79.6185 23.4189 80.3112 21.9291C81.0039 20.4393 82.0137 19.1188 83.2699 18.06C85.2626 16.3294 87.709 15.2052 90.32 14.82V14.83Z" fill="#1A1A18"/>
</g>
<defs>
<clipPath id="clip0_150_6206">
<rect width="150.62" height="148.05" fill="white"/>
</clipPath>
</defs>
</svg>
