<svg width="11" height="8" viewBox="0 0 11 8" fill="none" xmlns="http://www.w3.org/2000/svg">
<path d="M5.84268 7.81106L10.8693 1.02225C10.9532 0.908975 11 0.758482 11 0.601984C11 0.445486 10.9532 0.294993 10.8693 0.181719L10.8636 0.174409C10.8229 0.119306 10.7739 0.075428 10.7197 0.0454445C10.6654 0.015461 10.607 -9.19313e-07 10.5479 -9.1415e-07C10.4888 -9.08987e-07 10.4304 0.015461 10.3761 0.0454445C10.3218 0.0754281 10.2729 0.119306 10.2322 0.174409L5.49905 6.56732L0.767806 0.17441C0.727127 0.119307 0.678161 0.0754289 0.623888 0.0454454C0.569615 0.0154619 0.51117 -3.67117e-08 0.452106 -3.15482e-08C0.393043 -2.63847e-08 0.334598 0.0154619 0.280324 0.0454454C0.226052 0.075429 0.177085 0.119307 0.136406 0.17441L0.130725 0.18172C0.0468123 0.294994 2.93238e-07 0.445487 3.06919e-07 0.601985C3.20601e-07 0.758482 0.0468124 0.908976 0.130725 1.02225L5.15732 7.81106C5.20153 7.87077 5.25469 7.9183 5.3136 7.95078C5.3725 7.98325 5.43592 8 5.5 8C5.56408 8 5.6275 7.98325 5.68641 7.95078C5.74531 7.9183 5.79848 7.87077 5.84268 7.81106Z" fill="black" fill-opacity="0.5"/>
</svg>
